<svg width="75" height="161" viewBox="0 0 75 161" fill="none" xmlns="http://www.w3.org/2000/svg">
<rect width="75" height="161" fill="black" fill-opacity="0"/>
<rect width="75" height="161" fill="black" fill-opacity="0"/>
<rect width="75" height="161" fill="black" fill-opacity="0"/>
<path opacity="0.2" d="M37.5 161C58.2107 161 75 152.202 75 141.35C75 130.498 58.2107 121.7 37.5 121.7C16.7893 121.7 0 130.498 0 141.35C0 152.202 16.7893 161 37.5 161Z" fill="#C4C3EF"/>
<path d="M49.7801 75.8071L59.6401 81.7625L60.8501 91.0837L55.4101 93.6331L43.5901 85.8235L44.2401 76.4923L46.4101 75.3032L48.0901 74.8296L49.7801 75.8071Z" fill="#E4C38C"/>
<path d="M59.64 81.7629L56.98 82.8815L55.04 83.4256L55.41 93.6336L60.85 91.0841L59.64 81.7629Z" fill="#F7D7A9"/>
<path d="M55.0401 83.4256L44.2401 76.4927L43.5901 85.8239L55.4101 93.6335L55.0401 83.4256Z" fill="#E5B26E"/>
<path d="M50.6 84.3324C50.66 84.7859 50.92 85.1184 51.17 85.0882C51.42 85.058 51.56 84.6448 51.5 84.1914C51.44 83.7379 51.17 83.3953 50.92 83.4356C50.67 83.4759 50.53 83.879 50.6 84.3324Z" fill="#0F0F49"/>
<path d="M47.0599 82.0652C47.1199 82.5187 47.3799 82.8512 47.6299 82.8109C47.8799 82.7706 48.0199 82.3675 47.9499 81.914C47.8799 81.4606 47.6299 81.128 47.3799 81.1683C47.1299 81.2087 46.9999 81.6017 47.0599 82.0652Z" fill="#0F0F49"/>
<path d="M48.5801 73.943C48.5801 73.943 52.6401 91.5272 54.3401 100.929C56.0401 110.331 53.3401 134.737 53.3401 134.737C53.0314 135.202 52.611 135.581 52.1179 135.838C51.6248 136.095 51.0751 136.223 50.5201 136.208C48.5201 136.208 46.4001 107.096 46.4001 107.096C46.4001 107.096 43.7501 85.7028 42.3401 85.995C42.0201 86.0555 39.4501 87.0632 38.2801 86.8314C34.2801 86.0353 28.5501 82.3875 28.7701 78.0544C29.0501 72.4718 33.2901 72.1695 33.2901 72.1695C33.2901 72.1695 40.6401 71.585 41.4901 71.8772C42.3401 72.1695 48.5801 73.943 48.5801 73.943Z" fill="#4B456F"/>
<path d="M51.13 47.108C50.9737 50.5518 50.5962 53.9817 50 57.3764C49 62.7071 49.7 68.2897 47.55 68.6424C45.4 68.9951 43.22 67.0099 43.22 67.0099C43.22 67.0099 42 60.6413 42 59.7848C42 58.9282 42.83 53.2448 43 52.5596C43.17 51.8744 45 46.8863 45 46.8863C45 46.8863 46.69 44.4074 51.13 47.108Z" fill="#E2A1AF"/>
<path d="M48.9999 66.1537L54.7199 76.412C54.7199 76.412 53.4099 78.7801 52.4299 77.4197C51.4499 76.0593 44.4299 68.5822 44.4299 68.5822L44.6699 68.2497C45.4599 67.1211 45.8899 65.4584 47.4599 65.2266C47.6804 65.2091 47.9019 65.2437 48.1068 65.3276C48.3116 65.4116 48.4942 65.5426 48.6399 65.7103L48.9999 66.1537Z" fill="#EEBCC5"/>
<path d="M34.1901 38.9359C33.3401 39.1576 32.3901 39.6312 32.1901 40.5281C32.0601 41.2335 32.4701 41.959 32.3301 42.6644C32.0701 43.9542 30.3301 44.186 29.5801 45.2743C29.0201 46.1107 29.2001 47.2897 28.9001 48.2168C28.5501 49.0511 28.0745 49.8261 27.4901 50.5143C27.2004 50.8632 26.9946 51.2748 26.8888 51.717C26.7829 52.1593 26.78 52.6202 26.8801 53.0638C27.2601 54.1622 28.5501 54.5552 29.6601 54.6257C30.7823 54.533 31.9066 54.7785 32.8901 55.3311C33.6101 55.8954 33.9601 56.8628 34.6801 57.4271C35.1683 57.7467 35.7342 57.9251 36.3161 57.9428C36.898 57.9606 37.4736 57.8171 37.9801 57.5278C38.5128 57.2763 38.989 56.9177 39.3793 56.4741C39.7697 56.0305 40.066 55.5113 40.2501 54.9482C40.4246 54.3774 40.4405 53.7693 40.2959 53.1901C40.1513 52.6109 39.8519 52.0827 39.4301 51.6631C40.0991 51.5638 40.7178 51.2474 41.1924 50.7619C41.667 50.2763 41.9716 49.6482 42.0601 48.9725C42.2301 47.5114 41.4101 46.1611 40.8001 44.841C40.617 44.5096 40.5369 44.1305 40.5701 43.7527C40.685 43.3603 40.9109 43.0102 41.2201 42.745C42.8011 41.1463 44.025 39.2258 44.8101 37.112C46.0001 34.0184 44.0001 30.1489 40.3501 31.7612C39.1138 32.519 38.1556 33.6614 37.6201 35.016C36.5801 37.112 36.6601 38.2809 34.1901 38.9359Z" fill="#4B456F"/>
<path d="M39.1599 80.2713C39.1599 80.2713 40.5299 99.5082 38.5499 103.327C36.5699 107.146 25.5199 118.735 25.5199 118.735C25.5199 118.735 22.2799 119.178 23.1299 116.83C23.9799 114.482 31.6299 100.324 31.6299 100.324L28.7899 78.0544L34.9999 70.1138L39.1599 80.2713Z" fill="#4B456F"/>
<path d="M24.8301 63.1305C26.3301 57.3766 30.5901 48.7407 31.7201 47.5617C32.8501 46.3827 44.3401 43.8735 46.8901 43.8735C49.4401 43.8735 51.1301 47.1082 51.1301 47.1082C51.1301 47.1082 33.0001 55.9356 33.0001 55.0589C33.0001 54.3636 29.2401 65.7002 27.2101 70.1743C26.7401 71.182 25.9801 72.099 25.0901 71.4138C24.2153 68.7352 24.125 65.8594 24.8301 63.1305Z" fill="#F1F1F2"/>
<path d="M48.3001 45.7075L31.7001 50.4941L29.3501 54.8271C29.9591 58.276 30.8659 61.6646 32.0601 64.9544C32.5901 66.5768 31.1901 68.8744 30.3601 71.2525C29.2801 74.3663 28.6101 77.5002 28.7901 78.0544C29.6301 80.7047 38.9701 81.8736 42.3601 81.2891C45.7501 80.7047 48.5801 73.9431 48.5801 73.9431L47.0901 65.3777L49.2901 59.4323C50.0668 57.339 50.384 55.1009 50.2201 52.8722L49.7801 47.0578L48.3001 45.7075Z" fill="#F1F1F2"/>
<path d="M46.1699 39.1272L43.9099 46.181C43.2686 46.752 42.4671 47.1082 41.6162 47.2003C40.7652 47.2923 39.9069 47.1158 39.1599 46.6949L38.4399 46.2919L40.3199 38.583L46.1699 39.1272Z" fill="#EEBCC5"/>
<path d="M25.7599 118.423C25.7599 118.423 24.8899 122.05 25.1699 122.735C25.4499 123.421 26.4399 126.766 24.7299 127.079C23.0199 127.391 21.9399 125.748 21.7299 124.056C21.5199 122.363 23.0599 117.002 23.0599 117.002L25.7599 118.423Z" fill="#4B456F"/>
<path d="M51.1499 128.893C52.0099 128.751 52.9899 128.469 53.9699 128.278C53.6499 132.117 53.3599 134.737 53.3599 134.737C53.1399 137.146 52.3599 136.944 50.4899 136.319C49.8799 136.118 49.2399 133.155 48.6399 129.034C49.4786 129.039 50.3169 128.992 51.1499 128.893Z" fill="#EEBCC5"/>
<path d="M23.1299 116.871C23.3399 116.286 23.9599 114.996 24.7799 113.374C25.2688 114.156 25.8278 114.892 26.4499 115.571C26.8552 115.902 27.3157 116.158 27.8099 116.327C26.4499 117.798 25.5199 118.735 25.5199 118.735C25.5199 118.735 22.2799 119.219 23.1299 116.871Z" fill="#EEBCC5"/>
<path d="M50.1199 139.423C50.0299 138.163 49.93 136.904 49.84 135.644C49.7946 135.455 49.7946 135.259 49.84 135.07C49.9652 135.181 50.111 135.265 50.2689 135.319C50.4268 135.373 50.5937 135.394 50.7599 135.382C51.6283 135.431 52.4993 135.363 53.3499 135.181C53.5671 136.514 54.239 137.729 55.25 138.617C56.2317 139.537 57.0621 140.608 57.7099 141.791C57.7732 141.896 57.8131 142.013 57.8269 142.135C57.8407 142.257 57.8281 142.38 57.79 142.497C57.7063 142.621 57.5901 142.72 57.4543 142.782C57.3184 142.844 57.1681 142.868 57.02 142.849C55.7177 142.841 54.4397 142.494 53.31 141.842C52.1754 141.135 51.1076 140.326 50.1199 139.423Z" fill="#4B456F"/>
<path d="M54.36 79.959C55.691 79.959 56.77 78.8356 56.77 77.4498C56.77 76.0641 55.691 74.9407 54.36 74.9407C53.0289 74.9407 51.95 76.0641 51.95 77.4498C51.95 78.8356 53.0289 79.959 54.36 79.959Z" fill="#EEBCC5"/>
<path d="M33.41 53.4265C32.9539 56.3404 32.2274 59.2048 31.24 61.9818C29.83 65.0049 28.24 68.5722 27.24 70.7488C27.1348 70.9888 26.9769 71.2016 26.7781 71.3712C26.5794 71.5408 26.345 71.6627 26.0928 71.7277C25.8405 71.7927 25.5768 71.7992 25.3217 71.7465C25.0666 71.6939 24.8266 71.5836 24.62 71.4239C23.7433 68.7426 23.6496 65.864 24.35 63.1306C25.86 57.3767 30.46 48.6299 31.76 47.5618C31.74 47.5618 33.74 49.295 33.41 53.4265Z" fill="#E2A1AF"/>
<path d="M32.42 76.0389L27.21 65.5891" stroke="#4B456F" stroke-miterlimit="10" stroke-linecap="round"/>
<path d="M24.09 69.6301L35.04 76.2405L36.61 95.1045L30.14 99.3368L17 90.6606L17.94 70.3858L20.44 70.9199L22.21 68.5417L24.09 69.6301Z" fill="#08AAA2"/>
<path d="M46.1101 43.9241C46.1101 43.9241 48.9001 45.0527 50.3501 49.7183C51.5101 53.4266 54.7101 80.9568 54.7101 80.9568" stroke="#4B456F" stroke-miterlimit="10" stroke-linecap="round"/>
<path d="M37.34 36.9507C37.3053 37.8506 37.4512 38.7482 37.769 39.5899C38.0869 40.4315 38.57 41.1999 39.1896 41.8489C39.8091 42.4979 40.5523 43.0142 41.3745 43.3669C42.1968 43.7196 43.0813 43.9014 43.975 43.9014C44.8686 43.9014 45.7531 43.7196 46.5754 43.3669C47.3977 43.0142 48.1408 42.4979 48.7604 41.8489C49.3799 41.1999 49.8631 40.4315 50.1809 39.5899C50.4987 38.7482 50.6446 37.8506 50.61 36.9507C50.6446 36.0508 50.4987 35.1532 50.1809 34.3115C49.8631 33.4698 49.3799 32.7015 48.7604 32.0525C48.1408 31.4035 47.3977 30.8871 46.5754 30.5345C45.7531 30.1818 44.8686 30 43.975 30C43.0813 30 42.1968 30.1818 41.3745 30.5345C40.5523 30.8871 39.8091 31.4035 39.1896 32.0525C38.57 32.7015 38.0869 33.4698 37.769 34.3115C37.4512 35.1532 37.3053 36.0508 37.34 36.9507Z" fill="#EEBCC5"/>
<path d="M36.5601 37.2326C36.5601 38.7039 37.1601 39.903 37.9101 39.903C38.6601 39.903 39.2601 38.7039 39.2601 37.2326C39.2601 35.7614 38.6601 34.5623 37.9101 34.5623C37.1601 34.5623 36.5601 35.7513 36.5601 37.2326Z" fill="#EEBCC5"/>
<path d="M44 30.0581C45.3463 30.0694 46.6571 30.494 47.7577 31.2754C48.8583 32.0568 49.6963 33.1578 50.16 34.4315C48.8509 35.1053 47.3999 35.4509 45.93 35.4392C45.4 35.4392 40.66 34.7741 40.87 33.9075C40.6107 34.9617 40.2175 35.9778 39.7 36.9306C39.6903 36.41 39.5078 35.9077 39.1815 35.504C38.8552 35.1002 38.4039 34.8184 37.9 34.7036H37.72C38.149 33.3621 38.9868 32.1911 40.1142 31.3571C41.2417 30.5231 42.6014 30.0686 44 30.0581V30.0581Z" fill="#4B456F"/>
<path d="M39.6799 38.17C39.7428 37.3114 39.6548 36.4483 39.4199 35.6205C39.1818 34.7706 39.2785 33.8609 39.6899 33.0811C40.3599 32.0735 41.6899 31.9928 42.9199 32.0735C44.2679 32.0782 45.6106 32.244 46.9199 32.5672C47.5599 32.7385 49.8399 33.454 49.9199 34.3206C49.9999 35.1872 47.6499 36.2755 47.0499 36.5778C44.7744 37.7508 42.2327 38.2999 39.6799 38.17Z" fill="#4B456F"/>
<path d="M29.93 78.0948L17.94 70.386L17 90.6608L30.14 99.337L29.93 78.0948Z" fill="#E0E4ED"/>
<path d="M27.21 65.5891L28.18 80.4526" stroke="#4B456F" stroke-miterlimit="10" stroke-linecap="round"/>
<path d="M24.9099 65.3374L19.9399 75.6662" stroke="#4B456F" stroke-miterlimit="10" stroke-linecap="round"/>
<path d="M26.4799 52.1064C26.4799 52.1064 27.6799 67.3428 27.4799 69.8721C27.3099 71.8068 23.2799 73.1672 22.4799 71.3231C21.6799 69.4791 24.4799 52.3584 24.4799 52.3584L26.4799 52.1064Z" fill="#EEBCC5"/>
<path d="M35.0399 76.2407L33.1599 80.0397L29.9299 78.0949L30.1399 99.337L36.6099 95.1047L35.0399 76.2407Z" fill="#F1F1F2"/>
<path d="M36.6099 95.1045L33.2699 93.8147L30.1399 99.3369L36.6099 95.1045Z" fill="#E0E4ED"/>
<path d="M25.2701 52.8623C26.4741 52.8623 27.4501 51.8471 27.4501 50.5949C27.4501 49.3427 26.4741 48.3276 25.2701 48.3276C24.0661 48.3276 23.0901 49.3427 23.0901 50.5949C23.0901 51.8471 24.0661 52.8623 25.2701 52.8623Z" fill="#EEBCC5"/>
<rect width="25" height="26" fill="black" fill-opacity="0" transform="translate(1)"/>
<rect width="25" height="25" fill="black" fill-opacity="0" transform="translate(1)"/>
<circle cx="13.5" cy="12.5" r="12.5" fill="#E7BB84"/>
<path d="M9.14709 7.92C9.95109 5.94 11.5291 4.95 13.8811 4.95C15.1891 4.95 16.2511 5.34 17.0671 6.12C17.8591 6.912 18.2551 7.86 18.2551 8.964C18.2551 10.26 17.8951 11.256 17.1751 11.952C16.4671 12.648 15.1531 13.374 13.2331 14.13C12.9451 14.226 12.7651 14.292 12.6931 14.328C12.6811 14.328 12.6631 14.334 12.6391 14.346C12.6151 14.358 12.5851 14.376 12.5491 14.4C12.5131 14.412 12.4771 14.424 12.4411 14.436C12.3571 14.472 12.1891 14.568 11.9371 14.724C11.5891 14.916 11.4151 15.198 11.4151 15.57V15.894H17.4271C17.6551 15.894 17.8111 15.942 17.8951 16.038C17.9911 16.122 18.0391 16.278 18.0391 16.506V17.388C18.0391 17.616 17.9911 17.778 17.8951 17.874C17.8111 17.958 17.6551 18 17.4271 18H9.66909C9.44109 18 9.27909 17.958 9.18309 17.874C9.09909 17.778 9.05709 17.616 9.05709 17.388V16.038C9.05709 14.862 9.43509 13.974 10.1911 13.374C10.8031 12.894 11.6071 12.456 12.6031 12.06C13.7551 11.616 14.5291 11.244 14.9251 10.944C15.5611 10.452 15.8791 9.828 15.8791 9.072C15.8791 8.496 15.6811 8.016 15.2851 7.632C14.9011 7.248 14.4031 7.056 13.7911 7.056C12.6031 7.056 11.7751 7.59 11.3071 8.658C11.2111 8.886 11.1091 9.03 11.0011 9.09C10.8931 9.138 10.7311 9.126 10.5151 9.054L9.54309 8.694C9.13509 8.538 9.00309 8.28 9.14709 7.92Z" fill="#F8F8F8"/>
</svg>
