<svg width="1440" height="600" viewBox="0 0 1440 600" fill="none" xmlns="http://www.w3.org/2000/svg">
<g clip-path="url(#clip0)">
<path opacity="0.4" fill-rule="evenodd" clip-rule="evenodd" d="M-8.78601 -46.5538C133.192 -122.677 294.078 16.822 238.873 168.179L163.211 375.621C120.233 493.452 -28.9095 529.418 -120.858 444.122L-234.857 338.369C-323.133 256.482 -304.563 112.027 -198.449 55.1348L-8.78601 -46.5538Z" fill="#08AAA2"/>
<path opacity="0.3" fill-rule="evenodd" clip-rule="evenodd" d="M-14.5999 43.0112C78.169 -6.72171 183.293 84.4157 147.222 183.3L97.7838 318.825C69.7018 395.807 -27.7487 419.304 -87.8281 363.578L-162.316 294.488C-219.996 240.99 -207.862 146.615 -138.527 109.446L-14.5999 43.0112Z" fill="#08AAA2"/>
<path opacity="0.4" fill-rule="evenodd" clip-rule="evenodd" d="M-10.6048 -5.89158C109.328 -70.1677 245.235 47.6207 198.601 175.422L134.687 350.578C98.3817 450.07 -27.6037 480.439 -105.275 408.418L-201.574 319.124C-276.143 249.981 -260.457 128.008 -170.82 79.9707L-10.6048 -5.89158Z" fill="#08AAA2"/>
</g>
<defs>
<clipPath id="clip0">
<rect width="1440" height="600" fill="white"/>
</clipPath>
</defs>
</svg>
