<svg width="834" height="510" viewBox="0 0 834 510" fill="none" xmlns="http://www.w3.org/2000/svg">
<g clip-path="url(#clip0)">
<rect width="834" height="510" fill="white" fill-opacity="0"/>
<path opacity="0.4" fill-rule="evenodd" clip-rule="evenodd" d="M-55.8194 -79.196C55.4533 -138.842 181.546 -29.5384 138.28 89.0565L78.9806 251.595C45.2973 343.921 -71.5908 372.102 -143.654 305.269L-232.999 222.407C-302.183 158.245 -287.629 45.0586 -204.465 0.481316L-55.8194 -79.196Z" fill="#08AAA2"/>
<path opacity="0.3" fill-rule="evenodd" clip-rule="evenodd" d="M-60.3759 -9.01799C12.3302 -47.9858 94.7197 23.4242 66.4493 100.904L27.7031 207.094C5.69421 267.412 -70.681 285.823 -117.767 242.16L-176.146 188.025C-221.351 146.106 -211.842 72.1598 -157.502 43.0366L-60.3759 -9.01799Z" fill="#08AAA2"/>
<path opacity="0.4" fill-rule="evenodd" clip-rule="evenodd" d="M-57.2449 -47.3355C36.7507 -97.6985 143.265 -5.40631 106.717 94.7311L56.6249 231.973C28.1716 309.93 -70.5675 333.725 -131.441 277.293L-206.914 207.328C-265.356 153.151 -253.062 57.5808 -182.811 19.9413L-57.2449 -47.3355Z" fill="#08AAA2"/>
</g>
<defs>
<clipPath id="clip0">
<rect width="834" height="510" fill="white"/>
</clipPath>
</defs>
</svg>
