<svg width="119" height="161" viewBox="0 0 119 161" fill="none" xmlns="http://www.w3.org/2000/svg">
<rect width="118.18" height="160.51" fill="black" fill-opacity="0"/>
<rect width="118.18" height="160.51" fill="black" fill-opacity="0"/>
<rect width="118.18" height="160.51" fill="black" fill-opacity="0"/>
<path opacity="0.2" d="M37.5 160.51C58.2107 160.51 75 151.78 75 141.01C75 130.24 58.2107 121.51 37.5 121.51C16.7893 121.51 0 130.24 0 141.01C0 151.78 16.7893 160.51 37.5 160.51Z" fill="#C4C3EF"/>
<path d="M37.49 133C36.9079 134.361 36.5434 135.806 36.41 137.28C36.3871 137.678 36.4493 138.077 36.5924 138.449C36.7355 138.822 36.9563 139.16 37.24 139.44C38.5004 139.79 39.7789 140.07 41.07 140.28C41.96 140.33 44.86 142.63 46.97 142.78C49.08 142.93 51.79 143.57 52.08 141.9C52.37 140.23 41.66 133.59 41.66 133.59L37.49 133Z" fill="#3A3079"/>
<path d="M49.68 44.6299L51.92 47.1399C51.92 47.1399 57.76 68.3099 57.58 70.1399C57.4 71.9699 55.07 72.2899 53.63 71.7499C52.19 71.2099 48.25 58.1199 48.25 58.1199L49.68 44.6299Z" fill="#188782"/>
<path d="M37.94 127.93L37.51 133.69C37.51 133.69 37.39 135.06 39.24 135.15C39.7534 135.184 40.2644 135.054 40.6993 134.779C41.1342 134.504 41.4706 134.098 41.66 133.62L43 125L37.94 127.93Z" fill="#EEBCC5"/>
<path d="M25.42 133.1L24.33 138.26C24.33 138.26 24.67 140.1 26.33 139.85C27.99 139.6 28.5 137.35 28.5 137.35L29.5 131.85L25.42 133.1Z" fill="#EEBCC5"/>
<path d="M24.5 137.43C24.5 137.43 24.67 138.93 26 138.85C26.9805 138.651 27.8629 138.122 28.5 137.35L28.17 142.68C28.17 142.68 27.42 150.68 25.08 151.51C22.74 152.34 22.25 147.93 22.25 147.93L24.5 137.43Z" fill="#3A3079"/>
<path d="M28.9401 77.8C28.9401 77.8 29.3801 86.18 29.8201 87.72C30.2601 89.26 28.9401 109.72 28.9401 109.72C28.9401 109.72 24.3101 134 24.5301 135.31C24.7501 136.62 28.5301 135.97 29.3801 134.65C30.2301 133.33 35.7701 113.28 36.6501 107.55C37.5301 101.82 40.1801 88.55 40.1801 88.55C40.1801 88.55 40.4001 104.63 40.4001 105.96C40.4001 107.29 37.5301 131.29 37.5301 131.29C37.5301 131.29 37.6401 132 39.8601 132.29C40.3326 132.363 40.8161 132.309 41.2608 132.133C41.7055 131.958 42.0953 131.667 42.3901 131.29C43.7101 129.14 44.1401 124.43 44.1401 124.43C44.1401 124.43 50.5301 97.11 50.1401 94.25C49.7501 91.39 51.0201 72.25 51.0201 72.25L47.4501 71L28.9401 77.8Z" fill="#3A3079"/>
<path d="M37.33 45.31C37.33 45.31 44.65 43 47.65 43.7C48.6355 43.8719 49.5542 44.3133 50.3043 44.9752C51.0544 45.637 51.6067 46.4936 51.9 47.45C52.15 48.45 50.9 72.7 50.9 72.7C50.9 72.7 37.9 83.45 32.4 80.7C28.4 78.7 28.11 76.46 28.23 75.37C28.3253 74.7078 28.3654 74.0388 28.35 73.37L27.65 52L37.33 45.31Z" fill="#08AAA2"/>
<path d="M49.63 63.5199L34.46 66.5199L31.29 50.5099L30.94 49.6899L27.65 51.9999L28.35 73.4299C28.3654 74.0988 28.3253 74.7677 28.23 75.4299C28.13 76.3499 28.34 78.0699 30.73 79.7599C35.73 77.1699 45.91 71.5899 49.98 67.4299C52.3 64.9999 49.63 63.5199 49.63 63.5199Z" fill="#188782"/>
<path d="M34.9 59.2001C34.9 59.2001 39.08 46.0601 37.33 45.3101C37.33 45.3101 27.1499 48.7001 25.8999 51.4501C24.6499 54.2001 24.9 56.6401 23.7899 60.8901C23.7899 60.8901 21.1699 70.0101 21.5399 72.3901C21.9099 74.7701 24.42 76.0101 30.29 73.6401C36.16 71.2701 50.7899 65.5101 50.7899 65.5101L50.6699 62.8901L33.4199 64.7601L34.9 59.2001Z" fill="#08AAA2"/>
<path d="M39.48 45.3C39.48 45.3 36.8 46.04 36.55 46.67C36.3 47.3 38.3 50.15 40.41 51.67C41.4672 52.5068 42.6435 53.1809 43.9 53.67C45.4307 51.6567 46.2628 49.1991 46.27 46.67C46.21 42.68 39.48 45.3 39.48 45.3Z" fill="#F7F7FB"/>
<path d="M52 39.86C51.53 41.2228 50.6665 42.4157 49.5187 43.2879C48.3708 44.16 46.9901 44.6723 45.5512 44.7599C44.1122 44.8475 42.6796 44.5065 41.4345 43.78C40.1893 43.0535 39.1875 41.9741 38.5557 40.6784C37.9239 39.3826 37.6904 37.9286 37.8849 36.5001C38.0793 35.0717 38.6929 33.733 39.648 32.6532C40.6032 31.5735 41.8571 30.8011 43.2511 30.4339C44.6452 30.0666 46.1168 30.1209 47.48 30.59C49.3074 31.2215 50.8097 32.5523 51.6571 34.2902C52.5045 36.0281 52.6278 38.0312 52 39.86Z" fill="#EEBCC5"/>
<path d="M46.66 39.45L44.18 47C43.462 47.6022 42.58 47.9755 41.6478 48.0718C40.7156 48.168 39.776 47.9828 38.95 47.54C38.7245 47.417 38.5461 47.2226 38.443 46.9873C38.3398 46.752 38.3177 46.4892 38.38 46.24L40.23 38.96L46.66 39.45Z" fill="#EEBCC5"/>
<path d="M51.23 37.8099C51.6141 37.8233 51.9934 37.7224 52.32 37.5199C52.3173 35.7968 51.7043 34.1304 50.5898 32.8163C49.4753 31.5021 47.9313 30.6253 46.2318 30.3412C44.5323 30.0572 42.7871 30.3843 41.3058 31.2646C39.8245 32.1448 38.7029 33.5214 38.14 35.1499C38.0426 35.4517 37.9624 35.7589 37.9 36.0699C38.187 36.2308 38.5031 36.3328 38.83 36.3699C39.58 36.4299 42.03 35.4399 41.83 34.4199L42.16 35.9099C42.4323 35.7991 42.6727 35.6222 42.8595 35.3953C43.0463 35.1683 43.1736 34.8984 43.23 34.6099C44.2714 35.6652 45.5195 36.4941 46.8961 37.0448C48.2727 37.5954 49.7481 37.8559 51.23 37.8099Z" fill="#E37965"/>
<path d="M55.5399 74.1399C54.5789 74.1372 53.6582 73.7536 52.9796 73.0732C52.301 72.3927 51.9199 71.4709 51.9199 70.5099C51.9226 69.5506 52.3048 68.6314 52.9831 67.9531C53.6614 67.2748 54.5807 66.8925 55.5399 66.8899C56.5009 66.8899 57.4227 67.271 58.1032 67.9496C58.7837 68.6282 59.1673 69.5489 59.1699 70.5099C59.1673 71.4718 58.784 72.3936 58.1038 73.0738C57.4236 73.754 56.5018 74.1373 55.5399 74.1399Z" fill="#68C1E0"/>
<path d="M41.05 36.3501C40.9069 36.7654 40.6438 37.129 40.2939 37.3948C39.9441 37.6605 39.5233 37.8165 39.0847 37.843C38.6462 37.8694 38.2096 37.7651 37.8304 37.5434C37.4511 37.3216 37.1462 36.9922 36.9543 36.5971C36.7623 36.2019 36.6919 35.7586 36.7519 35.3234C36.812 34.8882 36.9999 34.4806 37.2917 34.1522C37.5836 33.8238 37.9663 33.5894 38.3914 33.4787C38.8166 33.3679 39.265 33.3858 39.68 33.5301C39.9557 33.6245 40.2099 33.7725 40.4282 33.9656C40.6464 34.1587 40.8243 34.393 40.9516 34.6551C41.079 34.9172 41.1532 35.2019 41.1701 35.4927C41.187 35.7836 41.1462 36.075 41.05 36.3501Z" fill="#EEBCC5"/>
<path d="M60.5201 71.2201C60.5221 71.7545 60.3654 72.2775 60.0699 72.7228C59.7745 73.1681 59.3535 73.5158 58.8603 73.7216C58.3671 73.9275 57.8239 73.9824 57.2995 73.8794C56.7751 73.7763 56.2931 73.52 55.9145 73.1428C55.5359 72.7656 55.2777 72.2845 55.1727 71.7605C55.0677 71.2365 55.1206 70.6931 55.3247 70.1991C55.5287 69.7052 55.8748 69.2829 56.319 68.9858C56.7633 68.6887 57.2857 68.5301 57.8201 68.53C58.1742 68.5287 58.5251 68.5973 58.8526 68.7319C59.1801 68.8665 59.4778 69.0645 59.7287 69.3144C59.9795 69.5643 60.1786 69.8613 60.3144 70.1883C60.4502 70.5153 60.5201 70.866 60.5201 71.2201Z" fill="#EEBCC5"/>
<path d="M55.25 63.8299C55.25 64.3643 55.0914 64.8867 54.7942 65.331C54.4971 65.7752 54.0748 66.1213 53.5809 66.3253C53.087 66.5294 52.5436 66.5823 52.0195 66.4773C51.4955 66.3723 51.0144 66.1141 50.6372 65.7355C50.26 65.3569 50.0037 64.8749 49.9006 64.3505C49.7976 63.8261 49.8525 63.2829 50.0584 62.7897C50.2643 62.2965 50.6119 61.8755 51.0572 61.5801C51.5026 61.2846 52.0255 61.1279 52.56 61.1299C53.2743 61.1325 53.9585 61.4182 54.4627 61.9242C54.9669 62.4303 55.25 63.1155 55.25 63.8299Z" fill="#EEBCC5"/>
<path d="M56.8801 66.24L54.9401 63.24C54.8323 63.0834 54.6691 62.9736 54.4835 62.9328C54.2978 62.892 54.1036 62.9231 53.9401 63.02C53.7854 63.1293 53.6771 63.2924 53.6364 63.4774C53.5957 63.6624 53.6256 63.8559 53.7201 64.02L55.6601 67.02C55.7736 67.1844 55.9467 67.2982 56.1426 67.3374C56.3385 67.3766 56.542 67.3381 56.7101 67.23C56.8558 67.1152 56.9539 66.9505 56.9853 66.7677C57.0167 66.5848 56.9792 66.3968 56.8801 66.24Z" fill="#EEBCC5"/>
<path d="M61.88 64.76L53.09 70.12L50.79 72.81L59.68 67.6L61.88 64.76Z" fill="#E0E4ED"/>
<path d="M61.88 64.76L62.28 65.28L60.19 68.22L51.06 73.34L50.79 72.81L59.68 67.6L61.88 64.76Z" fill="#252551"/>
<path d="M89.82 0C82.2984 0 75.0849 2.98792 69.7664 8.30645C64.4479 13.625 61.46 20.8385 61.46 28.36C61.46 35.8815 64.4479 43.095 69.7664 48.4135C75.0849 53.7321 82.2984 56.72 89.82 56.72C97.3415 56.72 104.555 53.7321 109.874 48.4135C115.192 43.095 118.18 35.8815 118.18 28.36C118.18 20.8385 115.192 13.625 109.874 8.30645C104.555 2.98792 97.3415 0 89.82 0V0Z" fill="#E5E7EC"/>
<path d="M89.82 2C86.3588 2 82.9315 2.68189 79.7339 4.00673C76.5364 5.33157 73.6311 7.27339 71.1842 9.72127C68.7372 12.1692 66.7965 15.0751 65.4729 18.2732C64.1492 21.4713 63.4687 24.8988 63.47 28.36C63.47 35.3485 66.2461 42.0507 71.1877 46.9923C76.1293 51.9338 82.8315 54.71 89.82 54.71C96.8084 54.71 103.511 51.9338 108.452 46.9923C113.394 42.0507 116.17 35.3485 116.17 28.36C116.171 24.8988 115.491 21.4713 114.167 18.2732C112.843 15.0751 110.903 12.1692 108.456 9.72127C106.009 7.27339 103.104 5.33157 99.906 4.00673C96.7084 2.68189 93.2811 2 89.82 2Z" fill="#F0F4FF"/>
<path d="M63.0601 62.8501L75.7801 49.3501" stroke="#F0F4FF" stroke-width="0.75" stroke-miterlimit="10"/>
<path d="M81.7127 39.0058C81.3465 39.6424 80.6797 39.9986 79.995 39.9987C79.6594 39.9987 79.3196 39.9131 79.0086 39.733C78.0634 39.1853 77.7384 37.9679 78.2841 37.0193L78.6734 36.3425H83.2448L81.7127 39.0058ZM77.9795 34.7532C76.888 34.7532 76 33.862 76 32.7666C76 31.6712 76.888 30.78 77.9795 30.78H81.8733L87.2143 21.4957L85.7668 18.9795C85.2211 18.0309 85.546 16.8135 86.4913 16.2657C87.4365 15.718 88.6496 16.0443 89.1953 16.9929L89.5 17.5225L89.8047 16.993C90.3506 16.0443 91.5636 15.7181 92.5086 16.2658C92.9665 16.5311 93.2941 16.9595 93.4309 17.4721C93.5678 17.9846 93.4975 18.5201 93.2331 18.9796L86.4447 30.78H90.7266L93.0124 34.7532H77.9795ZM101.021 34.7532H99.4123L100.716 37.0192C101.262 37.9678 100.937 39.1852 99.9914 39.7329C99.6864 39.9096 99.3478 40 99.0048 40C98.8328 40 98.6599 39.9774 98.4893 39.9314C97.9785 39.794 97.5516 39.4653 97.2872 39.0057L90.4142 27.0582L92.6999 23.085L97.1267 30.78H101.021C102.112 30.78 103 31.6712 103 32.7666C103 33.862 102.112 34.7532 101.021 34.7532Z" fill="#08AAA2"/>
<rect width="25" height="27" fill="black" fill-opacity="0"/>
<rect width="25" height="25" fill="black" fill-opacity="0"/>
<circle cx="12.5" cy="12.5" r="12.5" fill="#E7BB84"/>
<path d="M13.1481 6.22H14.0121C14.2401 6.22 14.3961 6.268 14.4801 6.364C14.5761 6.448 14.6241 6.604 14.6241 6.832V18.388C14.6241 18.616 14.5761 18.778 14.4801 18.874C14.3961 18.958 14.2401 19 14.0121 19H12.9861C12.7581 19 12.5961 18.958 12.5001 18.874C12.4161 18.778 12.3741 18.616 12.3741 18.388V8.956L9.85413 10.36C9.61413 10.492 9.42813 10.54 9.29613 10.504C9.16413 10.468 9.04413 10.342 8.93613 10.126L8.48613 9.316C8.39013 9.112 8.36013 8.956 8.39613 8.848C8.44413 8.728 8.57013 8.608 8.77413 8.488L12.2841 6.472C12.5601 6.304 12.8481 6.22 13.1481 6.22Z" fill="#F8F8F8"/>
</svg>
