<svg width="320" height="1035" viewBox="0 0 320 1035" fill="none" xmlns="http://www.w3.org/2000/svg">
<g clip-path="url(#clip0)">
<path opacity="0.4" fill-rule="evenodd" clip-rule="evenodd" d="M-55.8194 -99.196C55.4533 -158.842 181.546 -49.5384 138.28 69.0565L78.9806 231.595C45.2973 323.921 -71.5908 352.102 -143.654 285.269L-232.999 202.407C-302.183 138.245 -287.629 25.0586 -204.465 -19.5187L-55.8194 -99.196Z" fill="#08AAA2"/>
<path opacity="0.3" fill-rule="evenodd" clip-rule="evenodd" d="M-60.3759 -29.018C12.3302 -67.9858 94.7197 3.42422 66.4493 80.9044L27.7031 187.094C5.69421 247.412 -70.681 265.823 -117.767 222.16L-176.146 168.025C-221.351 126.106 -211.842 52.1598 -157.502 23.0366L-60.3759 -29.018Z" fill="#08AAA2"/>
<path opacity="0.4" fill-rule="evenodd" clip-rule="evenodd" d="M-57.2447 -67.3355C36.7509 -117.698 143.265 -25.4063 106.717 74.7311L56.6252 211.973C28.1718 289.93 -70.5673 313.725 -131.441 257.293L-206.914 187.328C-265.356 133.151 -253.062 37.5808 -182.81 -0.0587234L-57.2447 -67.3355Z" fill="#08AAA2"/>
</g>
<defs>
<clipPath id="clip0">
<rect width="320" height="1035" fill="white"/>
</clipPath>
</defs>
</svg>
