<svg width="82" height="159" viewBox="0 0 82 159" fill="none" xmlns="http://www.w3.org/2000/svg">
<rect width="81.9999" height="159" fill="black" fill-opacity="0"/>
<rect width="81.9999" height="159" fill="black" fill-opacity="0"/>
<rect width="78.9999" height="131" fill="black" fill-opacity="0" transform="translate(3 28)"/>
<path opacity="0.2" d="M46.8908 159C66.281 159 81.9998 150.767 81.9998 140.61C81.9998 130.454 66.281 122.22 46.8908 122.22C27.5006 122.22 11.7817 130.454 11.7817 140.61C11.7817 150.767 27.5006 159 46.8908 159Z" fill="#C4C3EF"/>
<path d="M36.9482 76.689C36.9482 76.689 32.4355 95.6257 30.5443 105.754C28.6531 115.883 31.621 142.185 31.621 142.185C31.9765 142.688 32.4492 143.096 32.9977 143.372C33.5462 143.649 34.1537 143.785 34.7668 143.769C36.9669 143.769 39.345 112.412 39.345 112.412C39.345 112.412 42.3222 89.3544 43.8576 89.675C44.2134 89.741 47.0783 90.8255 48.3703 90.6181C52.8268 89.7599 59.1933 85.8273 58.9499 81.1874C58.6409 75.1706 53.9222 74.85 53.9222 74.85C53.9222 74.85 45.7489 74.2181 44.8033 74.5388C43.8576 74.8594 36.9482 76.689 36.9482 76.689Z" fill="#3A3079"/>
<path d="M31.8643 46.3412C31.8643 46.3412 26.6401 55.885 26.3217 62.5431C26.0034 69.2011 27.5108 83.6395 27.5108 83.6395C28.064 83.9912 28.6934 84.2032 29.3454 84.2574C29.9974 84.3115 30.6527 84.2063 31.2557 83.9507C33.1282 83.0076 32.5103 65.2685 33.4559 63.0523L40.4496 46.9165C40.4496 46.9165 38.1558 42.5406 31.8643 46.3412Z" fill="#08AAA2"/>
<path d="M9.31958 71.3419C10.8036 71.3419 12.0066 70.1301 12.0066 68.6353C12.0066 67.1405 10.8036 65.9287 9.31958 65.9287C7.83558 65.9287 6.63257 67.1405 6.63257 68.6353C6.63257 70.1301 7.83558 71.3419 9.31958 71.3419Z" fill="#EFC0BE"/>
<path d="M47.4153 83.5169C47.4153 83.5169 45.8986 104.264 48.0987 108.348C50.2989 112.431 62.5824 124.993 62.5824 124.993C62.5824 124.993 66.1869 125.464 65.2413 122.928C64.2957 120.391 55.7946 105.16 55.7946 105.16L58.9498 81.1215L52.0403 72.5679L47.4153 83.5169Z" fill="#3A3079"/>
<path d="M37.257 46.2845L55.7197 51.4431L58.3224 56.1018C58.3224 56.1018 59.8953 78.2733 58.9497 81.1214C58.0041 83.9695 47.6305 85.2426 43.8575 84.5825C40.0844 83.9223 36.948 76.6607 36.948 76.6607L35.01 45.0774L37.257 46.2845Z" fill="#08AAA2"/>
<path d="M9.31958 59.3084L28.2036 70.2952L47.0594 59.3084L28.1942 48.3406L9.31958 59.3084Z" fill="#B5E7FE"/>
<path d="M9.31958 81.2535V59.3083L28.2036 70.2951V92.2402L9.31958 81.2535Z" fill="#B5E7FE"/>
<path d="M47.0595 81.2724V59.3083L28.2036 70.2951V92.2402L47.0595 81.2724Z" fill="#88D6F2"/>
<path d="M17.5493 54.5269L36.2554 65.5985L37.9875 64.5894L19.272 53.5933L17.5493 54.5269Z" fill="#E7BB84"/>
<path d="M37.2289 53.5933L18.7569 64.7875L16.95 63.7407L35.5624 52.6313L37.2289 53.5933Z" fill="#E7BB84"/>
<path d="M18.7569 64.7875V86.7327L16.95 85.6765V63.7407L18.7569 64.7875Z" fill="#E7BB84"/>
<path d="M36.2554 65.5987V87.5533L37.9874 86.5442V64.5896L36.2554 65.5987Z" fill="#E7BB84"/>
<path d="M62.3203 124.606C62.3203 124.606 63.2566 128.511 62.9663 129.246C62.6761 129.982 61.5713 133.575 63.4625 133.962C65.3537 134.348 66.5615 132.528 66.7675 130.651C66.9734 128.775 65.2882 123.003 65.2882 123.003L62.3203 124.606Z" fill="#3A3079"/>
<path d="M34.0832 135.885C33.1469 135.735 32.0328 135.433 30.9468 135.225C31.3119 139.365 31.6209 142.185 31.6209 142.185C31.8737 144.779 32.6882 144.552 34.8228 143.883C35.5063 143.666 36.2085 140.478 36.8732 136.036C35.941 136.045 35.0091 135.995 34.0832 135.885Z" fill="#EFC0BE"/>
<path d="M30.3382 135.923C30.3382 135.923 32.4822 138.092 36.8919 137.583C37.4162 137.46 37.9312 136.338 37.9686 135.338C37.98 134.869 37.9296 134.399 37.8188 133.943C37.7896 133.806 37.7284 133.679 37.6404 133.571C37.5524 133.463 37.44 133.378 37.3127 133.322C37.1854 133.267 37.0469 133.243 36.9085 133.253C36.7702 133.262 36.6361 133.305 36.5174 133.377C35.4628 134.075 34.2211 134.43 32.9597 134.395C32.3468 134.284 31.7879 133.971 31.371 133.505C30.9541 133.039 30.7028 132.446 30.6566 131.821H30.2259C29.9638 132.28 29.8038 132.791 29.7569 133.319C29.71 133.846 29.7774 134.378 29.9544 134.876C30.004 135.078 30.0665 135.277 30.1416 135.47L30.3382 135.923Z" fill="#E0E4ED"/>
<path d="M65.2414 122.928C65.0074 122.305 64.3052 120.919 63.3689 119.155C62.8101 119.992 62.1838 120.78 61.4964 121.513C61.0413 121.87 60.5281 122.144 59.9797 122.324C61.4964 123.918 62.5263 124.974 62.5263 124.974C62.5263 124.974 66.187 125.464 65.2414 122.928Z" fill="#EFC0BE"/>
<path d="M58.0134 121.051L59.3523 123.06C59.3523 123.06 63.247 124.946 64.2301 119.938L62.9849 117.392L62.5448 117.477C62.5448 117.477 62.7602 119.938 60.9439 120.306C60.0968 120.558 59.205 120.619 58.3317 120.485L58.0134 121.051Z" fill="#E0E4ED"/>
<path d="M35.2347 147.23L35.5437 143.166C35.5778 142.954 35.5585 142.736 35.4875 142.534C35.2015 142.779 34.8327 142.904 34.4576 142.883C33.4939 142.93 32.5281 142.854 31.5834 142.657C31.5178 144.128 30.4693 145.288 29.4768 146.363C28.388 147.35 27.462 148.506 26.7337 149.786C26.6638 149.897 26.6199 150.023 26.6053 150.154C26.5907 150.284 26.6058 150.417 26.6494 150.541C26.7898 150.842 27.1737 150.908 27.5014 150.918C28.949 150.896 30.3682 150.51 31.6302 149.796C32.9037 149.048 34.1098 148.19 35.2347 147.23Z" fill="#3A3079"/>
<path d="M40.4028 79.0089C41.8868 79.0089 43.0898 77.7971 43.0898 76.3023C43.0898 74.8075 41.8868 73.5957 40.4028 73.5957C38.9188 73.5957 37.7158 74.8075 37.7158 76.3023C37.7158 77.7971 38.9188 79.0089 40.4028 79.0089Z" fill="#EFC0BE"/>
<path d="M56.1503 71.4268C56.1503 71.4268 56.1503 57.0545 56.1503 58.007C56.1503 58.9595 31.8643 46.3412 31.8643 46.3412C31.8643 46.3412 33.7367 42.8613 36.5455 42.8613C39.3542 42.8613 57.9198 47.0014 59.1744 48.2745C60.429 49.5477 64.6327 65.7213 64.6327 71.4268C64.6327 71.4268 55.9256 82.2627 42.0599 80.3577V75.2368L56.1503 71.4268Z" fill="#08AAA2"/>
<path d="M42.06 44.2853C46.1345 44.2853 49.4375 40.9582 49.4375 36.854C49.4375 32.7497 46.1345 29.4226 42.06 29.4226C37.9854 29.4226 34.6824 32.7497 34.6824 36.854C34.6824 40.9582 37.9854 44.2853 42.06 44.2853Z" fill="#EFC0BE"/>
<path d="M39.6257 39.1363L42.1349 46.7751C42.861 47.389 43.7533 47.7692 44.6964 47.8667C45.6394 47.9643 46.5898 47.7745 47.4246 47.3221L48.2204 46.86L46.1326 38.561L39.6257 39.1363Z" fill="#EFC0BE"/>
<path d="M50.3083 37.1463C50.3083 38.7401 49.6342 40.0227 48.8103 40.0227C47.9864 40.0227 47.303 38.7401 47.303 37.1463C47.303 35.5526 47.9771 34.3171 48.8103 34.3171C49.6436 34.3171 50.3083 35.5431 50.3083 37.1463Z" fill="#EFC0BE"/>
<path d="M42.0598 29.4224C40.5791 29.4227 39.133 29.8728 37.9103 30.7141C36.6876 31.5553 35.7453 32.7485 35.2065 34.1378C36.6669 34.8437 38.2679 35.205 39.8877 35.194C40.4682 35.194 45.7393 34.4679 45.5052 33.5342C45.7867 34.6864 46.2246 35.7939 46.8066 36.8255C46.8277 36.2482 47.0446 35.6955 47.4211 35.2597C47.7976 34.8238 48.3109 34.5311 48.8757 34.4301H49.0629C48.5618 32.9628 47.6167 31.6905 46.3606 30.7923C45.1044 29.894 43.6003 29.415 42.0598 29.4224Z" fill="#3A3079"/>
<path d="M35.2066 34.1379C35.2066 34.1379 31.34 32.2518 32.7256 28.7247C32.7256 28.7247 34.1581 30.4223 35.2066 30.2714C36.2552 30.1205 41.0301 25.4995 44.9155 29.8847C48.8009 34.27 44.9155 33.1289 44.9155 33.1289L35.2066 34.1379Z" fill="#3A3079"/>
<rect width="20.1385" height="42.6361" fill="black" fill-opacity="0" transform="translate(3 82.0364)"/>
<rect width="2.03511" height="5.30004" fill="black" fill-opacity="0" transform="translate(6.21729 107.113)"/>
<rect width="2.03511" height="5.30004" fill="black" fill-opacity="0" transform="translate(6.21729 107.113)"/>
<rect width="2.03511" height="5.30004" fill="black" fill-opacity="0" transform="translate(6.21729 107.113)"/>
<path d="M6.98833 112.413L7.73732 111.998L7.62497 111.837L6.87598 112.252L6.98833 112.413Z" fill="#3B4592"/>
<path d="M6.87598 112.252L7.62497 111.837C7.54145 111.727 7.46633 111.61 7.40027 111.488L6.66064 111.932C6.72353 112.056 6.79551 112.176 6.87598 112.29" fill="#39438D"/>
<path d="M6.66056 111.932L7.40019 111.526C7.32201 111.352 7.25631 111.172 7.20358 110.989L6.45459 111.404C6.50991 111.56 6.57883 111.712 6.66056 111.856" fill="#374088"/>
<path d="M6.45481 111.441L7.2038 111.026C7.04293 110.582 6.96362 110.113 6.96974 109.64C6.95089 109.251 7.00907 108.862 7.14088 108.497C7.27268 108.131 7.47549 107.795 7.73746 107.509C7.88947 107.353 8.06287 107.219 8.25239 107.113L7.5034 107.518C7.31388 107.625 7.14047 107.758 6.98847 107.914C6.72649 108.2 6.52369 108.536 6.39188 108.902C6.26008 109.268 6.2019 109.657 6.22075 110.045C6.21453 110.521 6.29382 110.994 6.45481 111.441Z" fill="#353E83"/>
<rect width="3.85731" height="1.58207" fill="black" fill-opacity="0" transform="translate(6.98828 111.998)"/>
<rect width="3.85731" height="1.58207" fill="black" fill-opacity="0" transform="translate(6.98828 111.998)"/>
<rect width="3.85731" height="1.58207" fill="black" fill-opacity="0" transform="translate(6.98828 111.998)"/>
<path d="M10.0967 113.535L10.8457 113.12C10.4904 113.192 10.1243 113.192 9.76897 113.12C9.44544 113.075 9.1301 112.983 8.83273 112.846L8.08374 113.252C8.38111 113.388 8.69645 113.48 9.01998 113.525C9.37527 113.598 9.74136 113.598 10.0967 113.525" fill="#434FA6"/>
<path d="M8.08382 113.299L8.83281 112.893C8.68919 112.823 8.55143 112.741 8.42087 112.648L7.67188 113.054C7.80154 113.148 7.93942 113.23 8.08382 113.299Z" fill="#414CA1"/>
<path d="M7.68119 113.054L8.43018 112.648C8.32634 112.575 8.22634 112.496 8.13058 112.413L7.38159 112.818C7.47497 112.905 7.57517 112.984 7.68119 113.054Z" fill="#3F4A9C"/>
<path d="M7.37217 112.818L8.12116 112.412C8.02986 112.332 7.94531 112.243 7.86838 112.148L7.11938 112.563C7.19646 112.655 7.28102 112.74 7.37217 112.818Z" fill="#3D4797"/>
<path d="M7.11935 112.563L7.86835 112.148L7.73727 111.998L6.98828 112.413L7.11935 112.563Z" fill="#3B4592"/>
<rect width="2.76191" height="0.733307" fill="black" fill-opacity="0" transform="translate(8.08374 112.846)"/>
<rect width="2.76191" height="0.733307" fill="black" fill-opacity="0" transform="translate(8.08374 112.846)"/>
<rect width="2.76191" height="0.733307" fill="black" fill-opacity="0" transform="translate(8.08374 112.846)"/>
<path d="M10.0967 113.535L10.8457 113.12C10.4904 113.192 10.1243 113.192 9.76897 113.12C9.44544 113.075 9.1301 112.983 8.83273 112.846L8.08374 113.252C8.38111 113.388 8.69645 113.48 9.01998 113.525C9.37527 113.598 9.74136 113.598 10.0967 113.525" fill="#434FA6"/>
<rect width="2.03511" height="4.32868" fill="black" fill-opacity="0" transform="translate(6.21729 107.113)"/>
<rect width="2.03511" height="4.32868" fill="black" fill-opacity="0" transform="translate(6.21729 107.113)"/>
<rect width="2.03511" height="4.32868" fill="black" fill-opacity="0" transform="translate(6.21729 107.113)"/>
<path d="M6.45481 111.441L7.2038 111.026C7.04293 110.582 6.96362 110.113 6.96974 109.64C6.95089 109.251 7.00907 108.862 7.14088 108.497C7.27268 108.131 7.47549 107.795 7.73746 107.509C7.88947 107.353 8.06287 107.219 8.25239 107.113L7.5034 107.518C7.31388 107.625 7.14047 107.758 6.98847 107.914C6.72649 108.2 6.52369 108.536 6.39188 108.902C6.26008 109.268 6.2019 109.657 6.22075 110.045C6.21453 110.521 6.29382 110.994 6.45481 111.441Z" fill="#353E83"/>
<rect width="2.25645" height="1.00245" fill="black" fill-opacity="0" transform="translate(8.15869 111.309)"/>
<rect width="2.25645" height="1.00245" fill="black" fill-opacity="0" transform="translate(8.15869 111.309)"/>
<rect width="2.25645" height="1.00245" fill="black" fill-opacity="0" transform="translate(8.15869 111.309)"/>
<path d="M9.66626 112.196L10.4153 111.79L9.66626 112.205" fill="#99999C"/>
<path d="M9.63784 112.215L10.3868 111.8C10.341 111.828 10.2902 111.847 10.237 111.856L9.48804 112.271L9.63784 112.215Z" fill="#9E9EA1"/>
<path d="M9.48814 112.271L10.2371 111.856C10.086 111.89 9.92948 111.89 9.77837 111.856C9.63613 111.84 9.49721 111.802 9.36642 111.743L8.61743 112.167C8.74553 112.226 8.88095 112.267 9.02002 112.29C9.17157 112.319 9.32722 112.319 9.47877 112.29" fill="#A3A3A6"/>
<path d="M8.6175 112.167L9.35713 111.762L9.19797 111.658L8.44897 112.073C8.5007 112.112 8.55739 112.144 8.6175 112.167Z" fill="#9E9EA1"/>
<path d="M8.4583 112.073L9.20729 111.658L9.08558 111.573L8.34595 111.979C8.37688 112.017 8.41506 112.049 8.4583 112.073Z" fill="#99999C"/>
<path d="M8.34591 111.979L9.08554 111.573L8.99191 111.479L8.24292 111.932L8.34591 112.026" fill="#949497"/>
<path d="M8.24295 111.932L8.99195 111.526L8.90768 111.413L8.15869 111.819L8.24295 111.932Z" fill="#8F8F92"/>
<path d="M8.15869 111.771L8.90768 111.366C8.91037 111.347 8.91037 111.328 8.90768 111.309L8.16805 111.724" fill="#8A8A8D"/>
<rect width="3.23003" height="0.733307" fill="black" fill-opacity="0" transform="translate(8.08374 112.846)"/>
<rect width="3.23003" height="0.733307" fill="black" fill-opacity="0" transform="translate(8.08374 112.846)"/>
<rect width="3.23003" height="0.733307" fill="black" fill-opacity="0" transform="translate(8.08374 112.846)"/>
<path d="M10.5649 113.346L11.3139 112.941H11.239L10.49 113.346H10.5649Z" fill="#3F4A9C"/>
<path d="M10.4897 113.384L11.2386 112.978C11.1118 113.037 10.9803 113.084 10.8454 113.12L10.0964 113.535C10.2329 113.5 10.3649 113.449 10.4897 113.384Z" fill="#414CA1"/>
<path d="M10.0967 113.535L10.8457 113.12C10.4904 113.192 10.1243 113.192 9.76897 113.12C9.44544 113.075 9.1301 112.983 8.83273 112.846L8.08374 113.252C8.38111 113.388 8.69645 113.48 9.01998 113.525C9.37527 113.598 9.74136 113.598 10.0967 113.525" fill="#434FA6"/>
<rect width="2.03511" height="4.32868" fill="black" fill-opacity="0" transform="translate(6.21729 107.113)"/>
<rect width="2.03511" height="4.32868" fill="black" fill-opacity="0" transform="translate(6.21729 107.113)"/>
<rect width="2.03511" height="4.32868" fill="black" fill-opacity="0" transform="translate(6.21729 107.113)"/>
<path d="M6.45481 111.441L7.2038 111.026C7.04293 110.582 6.96362 110.113 6.96974 109.64C6.95089 109.251 7.00907 108.862 7.14088 108.497C7.27268 108.131 7.47549 107.795 7.73746 107.509C7.88947 107.353 8.06287 107.219 8.25239 107.113L7.5034 107.518C7.31388 107.625 7.14047 107.758 6.98847 107.914C6.72649 108.2 6.52369 108.536 6.39188 108.902C6.26008 109.268 6.2019 109.657 6.22075 110.045C6.21453 110.521 6.29382 110.994 6.45481 111.441Z" fill="#353E83"/>
<rect width="1.30969" height="3.16871" fill="black" fill-opacity="0" transform="translate(9.66626 109.027)"/>
<rect width="1.30969" height="3.16871" fill="black" fill-opacity="0" transform="translate(9.66626 109.027)"/>
<rect width="1.30969" height="3.16871" fill="black" fill-opacity="0" transform="translate(9.66626 109.027)"/>
<path d="M9.66626 112.196L10.4153 111.79C10.5159 111.736 10.6025 111.658 10.668 111.564C10.9031 111.149 11.0076 110.672 10.9676 110.197C10.9749 109.8 10.918 109.405 10.7991 109.027L10.0501 109.442C10.1736 109.816 10.2306 110.208 10.2186 110.602C10.2581 111.081 10.1537 111.561 9.91904 111.979C9.85566 112.073 9.76834 112.148 9.66626 112.196Z" fill="#353E83"/>
<rect width="1.30855" height="3.45162" fill="black" fill-opacity="0" transform="translate(7.86133 108.272)"/>
<rect width="1.30855" height="3.45162" fill="black" fill-opacity="0" transform="translate(7.86133 108.272)"/>
<rect width="1.30855" height="3.45162" fill="black" fill-opacity="0" transform="translate(7.86133 108.272)"/>
<path d="M8.13062 111.724L8.87025 111.309V111.234L8.13062 111.639C8.14262 111.669 8.15834 111.698 8.17743 111.724" fill="#8A8A8D"/>
<path d="M8.08386 111.639L8.82349 111.234C8.78775 111.155 8.75954 111.073 8.73923 110.989L7.99023 111.394C8.01392 111.466 8.04531 111.536 8.08386 111.602" fill="#858588"/>
<path d="M7.99021 111.432L8.7392 111.026C8.63156 110.65 8.59036 110.257 8.61749 109.866C8.58226 109.399 8.67968 108.931 8.89836 108.518C8.96978 108.417 9.06251 108.333 9.16987 108.272L8.42088 108.678C8.31443 108.736 8.22428 108.821 8.15873 108.923C7.93328 109.334 7.83238 109.803 7.8685 110.272C7.85571 110.665 7.91278 111.058 8.03702 111.432" fill="#808083"/>
<rect width="1.36691" height="0.502501" fill="black" fill-opacity="0" transform="translate(8.4021 108.166)"/>
<rect width="1.36691" height="0.502501" fill="black" fill-opacity="0" transform="translate(8.4021 108.166)"/>
<rect width="1.36691" height="0.502501" fill="black" fill-opacity="0" transform="translate(8.4021 108.166)"/>
<path d="M9.01988 108.593L9.76887 108.188C9.61413 108.159 9.45549 108.159 9.30075 108.188L8.55176 108.603C8.70646 108.574 8.86518 108.574 9.01988 108.603" fill="#434FA6"/>
<path d="M8.5519 108.612L9.30089 108.197L9.15109 108.254L8.4021 108.669C8.44859 108.642 8.49921 108.622 8.5519 108.612Z" fill="#414CA1"/>
<path d="M8.4021 108.669L9.15109 108.254L8.4021 108.659" fill="#3F4A9C"/>
<rect width="1.30969" height="3.16871" fill="black" fill-opacity="0" transform="translate(9.66626 109.027)"/>
<rect width="1.30969" height="3.16871" fill="black" fill-opacity="0" transform="translate(9.66626 109.027)"/>
<rect width="1.30969" height="3.16871" fill="black" fill-opacity="0" transform="translate(9.66626 109.027)"/>
<path d="M9.66626 112.196L10.4153 111.79C10.5159 111.736 10.6025 111.658 10.668 111.564C10.9031 111.149 11.0076 110.672 10.9676 110.197C10.9749 109.8 10.918 109.405 10.7991 109.027L10.0501 109.442C10.1736 109.816 10.2306 110.208 10.2186 110.602C10.2581 111.081 10.1537 111.561 9.91904 111.979C9.85566 112.073 9.76834 112.148 9.66626 112.196Z" fill="#353E83"/>
<rect width="1.67575" height="1.06564" fill="black" fill-opacity="0" transform="translate(9.02002 108.159)"/>
<rect width="1.67575" height="1.06564" fill="black" fill-opacity="0" transform="translate(9.02002 108.159)"/>
<rect width="1.67575" height="1.06564" fill="black" fill-opacity="0" transform="translate(9.02002 108.159)"/>
<path d="M9.9468 109.216L10.6958 108.81L10.6396 108.725L9.89062 109.14L9.9468 109.225" fill="#39438D"/>
<path d="M9.8721 109.102L10.6211 108.687L10.5368 108.584L9.78784 108.999L9.8721 109.102Z" fill="#3B4592"/>
<path d="M9.78778 108.989L10.5368 108.574L10.49 108.49L9.74097 108.895L9.82523 108.989" fill="#3D4797"/>
<path d="M9.70341 108.895L10.4524 108.489L10.3401 108.395L9.59106 108.81L9.70341 108.895Z" fill="#3F4A9C"/>
<path d="M9.55345 108.81L10.3024 108.395L10.1339 108.301L9.39429 108.716C9.4503 108.742 9.50361 108.773 9.55345 108.81Z" fill="#414CA1"/>
<path d="M9.43197 108.716L10.1716 108.301C10.0458 108.232 9.90985 108.185 9.76901 108.159L9.02002 108.565C9.16276 108.584 9.3017 108.626 9.43197 108.688" fill="#434FA6"/>
<rect width="1.30969" height="3.47049" fill="black" fill-opacity="0" transform="translate(9.66602 108.725)"/>
<rect width="1.30969" height="3.47049" fill="black" fill-opacity="0" transform="translate(9.66602 108.725)"/>
<rect width="1.30969" height="3.47049" fill="black" fill-opacity="0" transform="translate(9.66602 108.725)"/>
<path d="M9.66602 112.196L10.415 111.79C10.5157 111.736 10.6023 111.658 10.6678 111.564C10.9028 111.149 11.0073 110.672 10.9674 110.196C10.9747 109.8 10.9177 109.405 10.7989 109.027L10.0499 109.442C10.1733 109.815 10.2304 110.208 10.2184 110.602C10.2579 111.081 10.1535 111.56 9.9188 111.979C9.85541 112.073 9.76809 112.147 9.66602 112.196Z" fill="#353E83"/>
<path d="M10.05 109.442L10.799 109.027C10.7703 108.952 10.7359 108.88 10.696 108.81L9.94702 109.216C9.98696 109.288 10.0214 109.364 10.05 109.442Z" fill="#374088"/>
<path d="M9.9468 109.215L10.6958 108.81L10.6396 108.725L9.89062 109.14L9.9468 109.225" fill="#39438D"/>
<path d="M9.02002 108.593C8.84916 108.546 8.66798 108.552 8.50068 108.611C8.33338 108.67 8.18793 108.779 8.08378 108.923C7.85833 109.335 7.75743 109.803 7.79355 110.272C7.76007 110.775 7.86709 111.279 8.10251 111.724C8.20234 111.887 8.33945 112.023 8.50234 112.122C8.66523 112.22 8.84917 112.278 9.03875 112.29C9.20102 112.329 9.37113 112.321 9.52883 112.266C9.68652 112.211 9.82514 112.111 9.92818 111.979C10.1629 111.56 10.2673 111.081 10.2278 110.602C10.2528 110.11 10.1529 109.62 9.93754 109.178C9.84167 109.014 9.70845 108.876 9.5489 108.774C9.38935 108.672 9.20806 108.61 9.02002 108.593Z" fill="#08AAA2"/>
<rect width="5.06123" height="6.54756" fill="black" fill-opacity="0" transform="translate(7.50342 106.836)"/>
<rect width="5.06123" height="6.54756" fill="black" fill-opacity="0" transform="translate(7.50342 106.836)"/>
<rect width="5.06123" height="6.54756" fill="black" fill-opacity="0" transform="translate(7.50342 106.836)"/>
<path d="M10.5649 113.346L11.3139 112.941C11.4938 112.844 11.6579 112.72 11.8008 112.573C12.0645 112.286 12.2677 111.949 12.398 111.581C12.5284 111.213 12.5832 110.822 12.5591 110.432C12.5732 109.981 12.5066 109.53 12.3625 109.103L11.6229 109.508C11.774 109.948 11.8531 110.41 11.857 110.876C11.8803 111.266 11.8243 111.658 11.6923 112.026C11.5603 112.394 11.3551 112.731 11.0892 113.016C10.9464 113.163 10.7822 113.287 10.6024 113.384" fill="#808083"/>
<path d="M11.5854 109.47L12.3624 109.102C12.3091 108.939 12.2402 108.781 12.1565 108.631L11.4075 109.036C11.4887 109.189 11.5606 109.346 11.6228 109.508" fill="#858588"/>
<path d="M11.37 108.998L12.119 108.593C12.0479 108.46 11.9698 108.331 11.885 108.206L11.136 108.621C11.2227 108.741 11.3009 108.867 11.37 108.998Z" fill="#8A8A8D"/>
<path d="M11.1361 108.621L11.8851 108.206L11.7915 108.074L11.6323 107.886L10.8833 108.301C10.9413 108.359 10.9945 108.422 11.0425 108.489L11.1361 108.621Z" fill="#8F8F92"/>
<path d="M10.8832 108.301L11.6322 107.886L11.4262 107.622L10.6772 108.037C10.7708 108.115 10.8555 108.204 10.93 108.301" fill="#949497"/>
<path d="M10.6304 108.037L11.3794 107.622C11.2836 107.538 11.1836 107.459 11.0798 107.386L10.3308 107.801C10.4368 107.871 10.537 107.95 10.6304 108.037Z" fill="#99999C"/>
<path d="M10.3311 107.801L11.08 107.386C10.9492 107.296 10.8115 107.217 10.6681 107.15L9.92847 107.565C10.0697 107.631 10.2044 107.71 10.3311 107.801Z" fill="#9E9EA1"/>
<path d="M9.92828 107.565L10.6679 107.15C10.3719 107.012 10.0558 106.923 9.73166 106.886C9.38523 106.82 9.02951 106.82 8.68307 106.886L7.93408 107.301C8.28051 107.235 8.63624 107.235 8.98267 107.301C9.30678 107.344 9.62252 107.436 9.91891 107.575" fill="#A3A3A6"/>
<path d="M7.97159 107.339L8.72058 106.924C8.5841 106.958 8.45212 107.009 8.32736 107.075L7.57837 107.48C7.70518 107.422 7.83674 107.374 7.97159 107.339Z" fill="#9E9EA1"/>
<path d="M7.57832 107.48L8.32731 107.075H8.25241L7.50342 107.48H7.57832Z" fill="#99999C"/>
<path d="M15.4427 114.318L16.1916 113.912L9.09494 100.879L8.34595 101.284L15.4427 114.318Z" fill="#3C4796"/>
<path d="M9.89074 101.501L10.6304 101.096L9.09494 100.879L8.34595 101.284L9.89074 101.501Z" fill="#AFAFB1"/>
<path d="M16.9874 114.535L17.7364 114.129L16.1916 113.912L15.4426 114.318L16.9874 114.535Z" fill="#4754B2"/>
<path d="M16.9876 114.534L17.7366 114.129L10.6305 101.096L9.89087 101.501L16.9876 114.534Z" fill="#939395"/>
<rect width="1.96419" height="5.44161" fill="black" fill-opacity="0" transform="translate(13.5627 102.086)"/>
<rect width="1.96419" height="5.44161" fill="black" fill-opacity="0" transform="translate(13.5627 102.086)"/>
<rect width="1.96419" height="5.44161" fill="black" fill-opacity="0" transform="translate(13.5627 102.086)"/>
<path d="M14.4127 107.528L15.1617 107.113L15.0775 107.018L14.9464 106.849L14.2349 107.216L14.3659 107.396L14.4502 107.49" fill="#3B4592"/>
<path d="M14.2349 107.216L14.9838 106.811L14.7872 106.49L14.0476 106.905C14.1038 107.009 14.1693 107.112 14.2349 107.216Z" fill="#39438D"/>
<path d="M14.0103 106.943L14.75 106.528C14.6802 106.39 14.6177 106.248 14.5627 106.104L13.8137 106.509C13.8697 106.658 13.9354 106.803 14.0103 106.943Z" fill="#374088"/>
<path d="M13.8136 106.509L14.5626 106.103C14.3955 105.622 14.3131 105.114 14.3192 104.604C14.2915 104.209 14.3435 103.812 14.4723 103.437C14.601 103.063 14.8037 102.719 15.0682 102.425C15.2066 102.294 15.3607 102.18 15.5269 102.086L14.7779 102.501C14.6115 102.586 14.4597 102.697 14.3285 102.831C14.0608 103.124 13.8554 103.47 13.725 103.846C13.5945 104.222 13.5419 104.621 13.5702 105.019C13.5679 105.526 13.6502 106.029 13.8136 106.509Z" fill="#353E83"/>
<rect width="4.04456" height="1.75544" fill="black" fill-opacity="0" transform="translate(14.2349 106.849)"/>
<rect width="4.04456" height="1.75544" fill="black" fill-opacity="0" transform="translate(14.2349 106.849)"/>
<rect width="4.04456" height="1.75544" fill="black" fill-opacity="0" transform="translate(14.2349 106.849)"/>
<path d="M17.5305 108.499L18.2795 108.093C17.8994 108.17 17.508 108.17 17.1279 108.093C16.7765 108.063 16.4321 107.977 16.1074 107.839L15.3584 108.254C15.6796 108.4 16.0202 108.499 16.3695 108.546C16.7496 108.623 17.1411 108.623 17.5211 108.546" fill="#434FA6"/>
<path d="M15.3678 108.254L16.1168 107.839C15.9684 107.772 15.8272 107.69 15.6955 107.594L14.9465 108.008C15.0825 108.098 15.2231 108.18 15.3678 108.254Z" fill="#414CA1"/>
<path d="M14.9465 108.008L15.6955 107.594C15.5931 107.526 15.4961 107.45 15.4052 107.367L14.6562 107.773L14.9465 108.008Z" fill="#3F4A9C"/>
<path d="M14.6563 107.773L15.4053 107.367C15.3171 107.289 15.2356 107.204 15.1618 107.113L14.4128 107.528C14.4892 107.614 14.5705 107.696 14.6563 107.773Z" fill="#3D4797"/>
<path d="M14.4127 107.528L15.1617 107.113L15.0775 107.018L14.9464 106.849L14.2349 107.216L14.3659 107.396L14.4502 107.49" fill="#3B4592"/>
<rect width="2.92107" height="0.765218" fill="black" fill-opacity="0" transform="translate(15.3584 107.839)"/>
<rect width="2.92107" height="0.765218" fill="black" fill-opacity="0" transform="translate(15.3584 107.839)"/>
<rect width="2.92107" height="0.765218" fill="black" fill-opacity="0" transform="translate(15.3584 107.839)"/>
<path d="M17.5305 108.499L18.2795 108.093C17.8994 108.17 17.508 108.17 17.1279 108.093C16.7765 108.063 16.4321 107.977 16.1074 107.839L15.3584 108.254C15.6796 108.4 16.0202 108.499 16.3695 108.546C16.7496 108.623 17.1411 108.623 17.5211 108.546" fill="#434FA6"/>
<rect width="1.96419" height="4.42299" fill="black" fill-opacity="0" transform="translate(13.5627 102.086)"/>
<rect width="1.96419" height="4.42299" fill="black" fill-opacity="0" transform="translate(13.5627 102.086)"/>
<rect width="1.96419" height="4.42299" fill="black" fill-opacity="0" transform="translate(13.5627 102.086)"/>
<path d="M13.8136 106.509L14.5626 106.103C14.3955 105.622 14.3131 105.114 14.3192 104.604C14.2915 104.209 14.3435 103.812 14.4723 103.437C14.601 103.063 14.8037 102.719 15.0682 102.425C15.2066 102.294 15.3607 102.18 15.5269 102.086L14.7779 102.501C14.6115 102.586 14.4597 102.697 14.3285 102.831C14.0608 103.124 13.8554 103.47 13.725 103.846C13.5945 104.222 13.5419 104.621 13.5702 105.019C13.5679 105.526 13.6502 106.029 13.8136 106.509Z" fill="#353E83"/>
<path d="M9.89074 101.501L8.34595 101.284L15.4427 114.318L16.9874 114.535L9.89074 101.501Z" fill="white"/>
<rect width="1.96419" height="4.42299" fill="black" fill-opacity="0" transform="translate(13.5627 102.086)"/>
<rect width="1.96419" height="4.42299" fill="black" fill-opacity="0" transform="translate(13.5627 102.086)"/>
<rect width="1.96419" height="4.42299" fill="black" fill-opacity="0" transform="translate(13.5627 102.086)"/>
<path d="M13.8136 106.509L14.5626 106.103C14.3955 105.622 14.3131 105.114 14.3192 104.604C14.2915 104.209 14.3435 103.812 14.4723 103.437C14.601 103.063 14.8037 102.719 15.0682 102.425C15.2066 102.294 15.3607 102.18 15.5269 102.086L14.7779 102.501C14.6115 102.586 14.4597 102.697 14.3285 102.831C14.0608 103.124 13.8554 103.47 13.725 103.846C13.5945 104.222 13.5419 104.621 13.5702 105.019C13.5679 105.526 13.6502 106.029 13.8136 106.509Z" fill="#353E83"/>
<rect width="3.37047" height="0.765218" fill="black" fill-opacity="0" transform="translate(15.3584 107.839)"/>
<rect width="3.37047" height="0.765218" fill="black" fill-opacity="0" transform="translate(15.3584 107.839)"/>
<rect width="3.37047" height="0.765218" fill="black" fill-opacity="0" transform="translate(15.3584 107.839)"/>
<path d="M17.9798 108.32L18.7288 107.914H18.6539L17.9143 108.329H17.9798" fill="#3F4A9C"/>
<path d="M17.9237 108.358L18.6634 107.943C18.5412 108.007 18.4125 108.057 18.2795 108.094L17.5305 108.499C17.6657 108.465 17.7974 108.417 17.9237 108.358Z" fill="#414CA1"/>
<path d="M17.5305 108.499L18.2795 108.093C17.8994 108.17 17.508 108.17 17.1279 108.093C16.7765 108.063 16.4321 107.977 16.1074 107.839L15.3584 108.254C15.6796 108.4 16.0202 108.499 16.3695 108.546C16.7496 108.623 17.1411 108.623 17.5211 108.546" fill="#434FA6"/>
<rect width="2.62049" height="4.07415" fill="black" fill-opacity="0" transform="translate(15.1721 103.199)"/>
<rect width="2.62049" height="4.07415" fill="black" fill-opacity="0" transform="translate(15.1721 103.199)"/>
<rect width="2.62049" height="4.07415" fill="black" fill-opacity="0" transform="translate(15.1721 103.199)"/>
<path d="M17.0437 107.216L17.7927 106.801L17.0437 107.207" fill="#99999C"/>
<path d="M16.9874 107.216L17.7364 106.811L17.5866 106.867L16.8376 107.273C16.8908 107.264 16.9417 107.245 16.9874 107.216Z" fill="#9E9EA1"/>
<path d="M16.8377 107.216L17.5867 106.811C17.432 106.84 17.2733 106.84 17.1186 106.811C16.9799 106.787 16.8446 106.746 16.716 106.688L15.967 107.103C16.0978 107.162 16.2367 107.2 16.379 107.216C16.5301 107.25 16.6866 107.25 16.8377 107.216Z" fill="#A3A3A6"/>
<path d="M15.9668 107.141L16.7158 106.726L16.5472 106.631L15.8076 107.046L15.9668 107.141Z" fill="#9E9EA1"/>
<path d="M15.8079 107.046L16.5475 106.632L16.4445 106.547L15.6956 106.952C15.7265 106.991 15.7647 107.023 15.8079 107.046Z" fill="#99999C"/>
<path d="M15.6954 106.952L16.4444 106.547C16.4109 106.518 16.3796 106.486 16.3508 106.452L15.6018 106.858L15.6954 106.952Z" fill="#949497"/>
<path d="M15.6018 106.858L16.3508 106.452L16.2666 106.349L15.5176 106.754L15.6018 106.858Z" fill="#8F8F92"/>
<path d="M15.5175 106.754L16.2665 106.349V106.283L16.2103 106.198L15.4707 106.613C15.4807 106.641 15.4967 106.667 15.5175 106.688C15.5157 106.71 15.5157 106.732 15.5175 106.754Z" fill="#8A8A8D"/>
<path d="M15.4332 106.613L16.1729 106.198C16.1729 106.141 16.1167 106.066 16.0886 106L15.3396 106.405C15.3651 106.477 15.3964 106.546 15.4332 106.613Z" fill="#858588"/>
<path d="M15.3397 106.405L16.0887 106C15.9699 105.625 15.913 105.233 15.9202 104.84C15.8758 104.356 15.9769 103.869 16.2104 103.444C16.276 103.341 16.3661 103.257 16.4726 103.199L15.733 103.604C15.6234 103.666 15.5302 103.753 15.4614 103.859C15.239 104.275 15.1414 104.746 15.1806 105.217C15.1653 105.607 15.2192 105.997 15.3397 106.367" fill="#808083"/>
<rect width="1.303" height="3.16871" fill="black" fill-opacity="0" transform="translate(17.0437 104.048)"/>
<rect width="1.303" height="3.16871" fill="black" fill-opacity="0" transform="translate(17.0437 104.048)"/>
<rect width="1.303" height="3.16871" fill="black" fill-opacity="0" transform="translate(17.0437 104.048)"/>
<path d="M17.0437 107.216L17.7927 106.801C17.8932 106.751 17.9799 106.676 18.0455 106.584C18.2807 106.17 18.3821 105.692 18.3357 105.217C18.3476 104.82 18.2906 104.425 18.1672 104.048L17.4276 104.453C17.5417 104.835 17.5985 105.233 17.5961 105.632C17.6359 106.105 17.5313 106.579 17.2965 106.99C17.231 107.084 17.1444 107.162 17.0437 107.216Z" fill="#353E83"/>
<rect width="1.7695" height="0.553696" fill="black" fill-opacity="0" transform="translate(15.7517 103.126)"/>
<rect width="1.7695" height="0.553696" fill="black" fill-opacity="0" transform="translate(15.7517 103.126)"/>
<rect width="1.7695" height="0.553696" fill="black" fill-opacity="0" transform="translate(15.7517 103.126)"/>
<path d="M16.7722 103.68L17.5212 103.265C17.3937 103.206 17.2579 103.168 17.1186 103.152C16.9676 103.117 16.8109 103.117 16.6599 103.152L15.9109 103.557C16.0624 103.528 16.2181 103.528 16.3696 103.557C16.5084 103.581 16.6436 103.622 16.7722 103.68Z" fill="#434FA6"/>
<path d="M15.9109 103.576L16.6599 103.17L16.5007 103.218L15.7517 103.633C15.8015 103.605 15.8552 103.586 15.9109 103.576Z" fill="#414CA1"/>
<path d="M15.7517 103.632L16.5007 103.218L15.7611 103.623" fill="#3F4A9C"/>
<rect width="1.303" height="3.16871" fill="black" fill-opacity="0" transform="translate(17.0437 104.048)"/>
<rect width="1.303" height="3.16871" fill="black" fill-opacity="0" transform="translate(17.0437 104.048)"/>
<rect width="1.303" height="3.16871" fill="black" fill-opacity="0" transform="translate(17.0437 104.048)"/>
<path d="M17.0437 107.216L17.7927 106.801C17.8932 106.751 17.9799 106.676 18.0455 106.584C18.2807 106.17 18.3821 105.692 18.3357 105.217C18.3476 104.82 18.2906 104.425 18.1672 104.048L17.4276 104.453C17.5417 104.835 17.5985 105.233 17.5961 105.632C17.6359 106.105 17.5313 106.579 17.2965 106.99C17.231 107.084 17.1444 107.162 17.0437 107.216Z" fill="#353E83"/>
<rect width="2.13446" height="1.07246" fill="black" fill-opacity="0" transform="translate(15.9109 103.126)"/>
<rect width="2.13446" height="1.07246" fill="black" fill-opacity="0" transform="translate(15.9109 103.126)"/>
<rect width="2.13446" height="1.07246" fill="black" fill-opacity="0" transform="translate(15.9109 103.126)"/>
<path d="M17.2963 104.189L18.0452 103.784L17.9797 103.689L17.2307 104.104C17.2577 104.132 17.2799 104.164 17.2963 104.198" fill="#39438D"/>
<path d="M17.2121 104.057L17.9611 103.642L17.8768 103.538L17.1372 103.953C17.1674 103.983 17.1926 104.018 17.2121 104.057Z" fill="#3B4592"/>
<path d="M17.1373 103.953L17.877 103.538L17.7927 103.444L17.0437 103.859C17.0772 103.888 17.1085 103.919 17.1373 103.953Z" fill="#3D4797"/>
<path d="M17.0437 103.859L17.7927 103.444L17.6804 103.359L16.9314 103.774C16.9726 103.797 17.0104 103.826 17.0437 103.859Z" fill="#3F4A9C"/>
<path d="M16.9311 103.774L17.6801 103.359C17.6303 103.323 17.577 103.291 17.521 103.265L16.772 103.68C16.828 103.706 16.8813 103.738 16.9311 103.774Z" fill="#414CA1"/>
<path d="M16.7722 103.68L17.5212 103.265C17.3937 103.206 17.2579 103.168 17.1186 103.152C16.9676 103.117 16.8109 103.117 16.6599 103.152L15.9109 103.557C16.0624 103.528 16.2181 103.528 16.3696 103.557C16.5084 103.581 16.6436 103.622 16.7722 103.68Z" fill="#434FA6"/>
<rect width="1.303" height="3.52696" fill="black" fill-opacity="0" transform="translate(17.0437 103.689)"/>
<rect width="1.303" height="3.52696" fill="black" fill-opacity="0" transform="translate(17.0437 103.689)"/>
<rect width="1.303" height="3.52696" fill="black" fill-opacity="0" transform="translate(17.0437 103.689)"/>
<path d="M17.0437 107.216L17.7927 106.801C17.8932 106.751 17.9799 106.676 18.0455 106.584C18.2807 106.17 18.3821 105.692 18.3357 105.217C18.3476 104.82 18.2906 104.424 18.1672 104.047L17.4276 104.453C17.5417 104.835 17.5985 105.233 17.5961 105.632C17.6359 106.105 17.5313 106.578 17.2965 106.99C17.231 107.084 17.1444 107.162 17.0437 107.216Z" fill="#353E83"/>
<path d="M17.3994 104.387L18.139 103.982C18.1135 103.907 18.0822 103.834 18.0454 103.765L17.2964 104.17C17.3363 104.24 17.3707 104.312 17.3994 104.387Z" fill="#374088"/>
<path d="M17.2963 104.189L18.0452 103.784L17.9797 103.689L17.2307 104.104C17.2577 104.132 17.2799 104.164 17.2963 104.198" fill="#39438D"/>
<path d="M13.5702 105.019C13.5419 104.621 13.5945 104.222 13.725 103.846C13.8554 103.47 14.0608 103.124 14.3285 102.831C14.6003 102.581 14.9273 102.401 15.2822 102.304C15.6372 102.207 16.0099 102.197 16.3695 102.275C16.7698 102.323 17.1565 102.451 17.5069 102.652C17.8574 102.853 18.1646 103.122 18.4106 103.444C18.9299 104.134 19.1977 104.983 19.1689 105.849C19.199 106.246 19.1481 106.645 19.0193 107.021C18.8905 107.397 18.6865 107.743 18.4199 108.037C18.1477 108.285 17.8204 108.465 17.4653 108.56C17.1103 108.655 16.7378 108.663 16.3789 108.584C15.579 108.492 14.8449 108.093 14.3285 107.471C13.7988 106.768 13.5305 105.9 13.5702 105.019ZM17.3151 106.905C17.55 106.494 17.6545 106.02 17.6147 105.547C17.6362 105.052 17.5365 104.56 17.3245 104.114C17.2292 103.944 17.0939 103.802 16.9305 103.698C16.7672 103.594 16.5809 103.533 16.3883 103.519C16.2165 103.471 16.0342 103.478 15.8666 103.539C15.6989 103.6 15.554 103.712 15.452 103.859C15.2296 104.275 15.132 104.746 15.1712 105.217C15.1348 105.714 15.2387 106.211 15.4708 106.65C15.5706 106.813 15.7077 106.95 15.8706 107.048C16.0335 107.146 16.2174 107.204 16.407 107.216C16.576 107.266 16.7559 107.263 16.9231 107.207C17.0902 107.151 17.2367 107.046 17.3432 106.905" fill="white"/>
<path d="M15.4802 106.688C15.5801 106.851 15.7172 106.987 15.88 107.086C16.0429 107.184 16.2269 107.242 16.4165 107.254C16.5855 107.303 16.7654 107.3 16.9325 107.245C17.0997 107.189 17.2462 107.084 17.3527 106.943C17.5876 106.531 17.6921 106.058 17.6523 105.585C17.6737 105.09 17.5741 104.598 17.3621 104.151C17.2668 103.982 17.1314 103.839 16.9681 103.736C16.8047 103.632 16.6184 103.571 16.4258 103.557C16.2541 103.509 16.0718 103.516 15.9041 103.577C15.7364 103.638 15.5916 103.749 15.4896 103.897C15.2671 104.312 15.1695 104.784 15.2087 105.255C15.1637 105.749 15.2578 106.245 15.4802 106.688Z" fill="#08AAA2"/>
<rect width="5.1394" height="6.54404" fill="black" fill-opacity="0" transform="translate(14.7781 101.823)"/>
<rect width="5.1394" height="6.54404" fill="black" fill-opacity="0" transform="translate(14.7781 101.823)"/>
<rect width="5.1394" height="6.54404" fill="black" fill-opacity="0" transform="translate(14.7781 101.823)"/>
<path d="M17.9797 108.32L18.7287 107.914C18.8856 107.827 19.0304 107.719 19.1594 107.594C19.4267 107.298 19.6311 106.951 19.7599 106.573C19.8887 106.195 19.9393 105.795 19.9084 105.396C19.9129 104.895 19.8306 104.397 19.665 103.925L18.916 104.387C19.0831 104.859 19.1655 105.357 19.1594 105.858C19.1895 106.255 19.1386 106.654 19.0098 107.03C18.881 107.407 18.677 107.752 18.4104 108.046C18.2838 108.175 18.1386 108.283 17.9797 108.367" fill="#808083"/>
<path d="M18.9161 104.387L19.6651 103.972C19.6091 103.823 19.5435 103.678 19.4685 103.538L18.7195 103.944C18.7944 104.087 18.8601 104.235 18.9161 104.387Z" fill="#858588"/>
<path d="M18.7288 103.897L19.4778 103.491C19.4182 103.373 19.3493 103.259 19.2719 103.152L18.5322 103.567C18.6032 103.673 18.6688 103.784 18.7288 103.897Z" fill="#8A8A8D"/>
<path d="M18.5323 103.567L19.2719 103.152L19.1596 103.001L19.0472 102.869L18.3076 103.274L18.4106 103.406L18.5323 103.567Z" fill="#8F8F92"/>
<path d="M18.3076 103.274L19.0473 102.869C18.9741 102.782 18.8959 102.701 18.8132 102.624L18.0642 103.029L18.3076 103.274Z" fill="#949497"/>
<path d="M18.0642 103.029L18.8132 102.624L18.5229 102.388L17.7739 102.803C17.8746 102.873 17.9715 102.949 18.0642 103.029Z" fill="#99999C"/>
<path d="M17.7738 102.803L18.5228 102.388C18.3888 102.298 18.2479 102.219 18.1015 102.152L17.3525 102.558C17.4992 102.628 17.64 102.71 17.7738 102.803Z" fill="#9E9EA1"/>
<path d="M17.3526 102.557L18.1016 102.152C17.7865 102.007 17.4522 101.909 17.1092 101.86C16.7386 101.798 16.3593 101.814 15.9951 101.907L15.2461 102.312C15.6168 102.236 15.9989 102.236 16.3696 102.312C16.7098 102.355 17.0414 102.45 17.3526 102.595" fill="#A3A3A6"/>
<path d="M15.2462 102.313L15.9952 101.907C15.8565 101.94 15.7216 101.987 15.5927 102.048L14.853 102.463C14.9778 102.398 15.1098 102.347 15.2462 102.313Z" fill="#9E9EA1"/>
<path d="M14.853 102.501L15.5926 102.086H15.5271L14.7781 102.501H14.853Z" fill="#99999C"/>
<rect width="4.08536" height="4.97746" fill="black" fill-opacity="0" transform="translate(10.4866 89.5432)"/>
<rect width="4.08536" height="4.97746" fill="black" fill-opacity="0" transform="translate(10.4866 89.5432)"/>
<rect width="4.08536" height="4.97746" fill="black" fill-opacity="0" transform="translate(10.4866 89.5432)"/>
<path d="M13.8229 94.3149L14.5719 93.9094H14.5063L13.7573 94.3149H13.8229Z" fill="#3F4A9C"/>
<path d="M13.7575 94.3528L14.5064 93.9473C14.3978 93.9979 14.2851 94.0389 14.1694 94.0699L13.4204 94.4848C13.5369 94.4523 13.6498 94.4081 13.7575 94.3528Z" fill="#414CA1"/>
<path d="M13.4205 94.4849L14.1695 94.07C13.9226 94.1224 13.6675 94.1224 13.4205 94.07C13.1997 94.0417 12.9848 93.978 12.7839 93.8813L12.0349 94.2869C12.2369 94.3824 12.4512 94.4491 12.6716 94.4849C12.919 94.5326 13.1731 94.5326 13.4205 94.4849Z" fill="#434FA6"/>
<path d="M12.0347 94.3244L12.7837 93.9189C12.6601 93.859 12.5411 93.7896 12.4279 93.7114L11.679 94.1264C11.7923 94.2015 11.9113 94.2677 12.0347 94.3244Z" fill="#414CA1"/>
<path d="M11.6789 94.1263L12.4279 93.7114L12.1657 93.5039L11.4167 93.9094C11.4999 93.9868 11.5874 94.0592 11.6789 94.1263Z" fill="#3F4A9C"/>
<path d="M11.4263 93.9094L12.1753 93.5039L11.9506 93.2776L11.2109 93.6831C11.2754 93.7653 11.3475 93.841 11.4263 93.9094Z" fill="#3D4797"/>
<path d="M11.2015 93.6832L11.9411 93.2777C11.8736 93.2001 11.811 93.1182 11.7539 93.0325L11.0049 93.438C11.0623 93.526 11.1282 93.6081 11.2015 93.6832Z" fill="#3B4592"/>
<path d="M11.005 93.4379L11.754 93.0323C11.686 92.9405 11.6265 92.8427 11.5761 92.74L10.8271 93.1455C10.8775 93.2482 10.9371 93.346 11.005 93.4379Z" fill="#39438D"/>
<path d="M10.827 93.1456L11.576 92.7401C11.5186 92.6208 11.4685 92.4979 11.4262 92.3723L10.6772 92.7778C10.722 92.9054 10.7784 93.0285 10.8458 93.1456" fill="#374088"/>
<path d="M10.6586 92.7779L11.4076 92.3724C11.2986 92.07 11.2416 91.7511 11.2391 91.4293C11.2201 91.0519 11.3044 90.6764 11.4827 90.3438C11.661 90.0112 11.9265 89.7343 12.2502 89.5432L11.5012 89.9582C11.1753 90.1468 10.908 90.4233 10.7294 90.7564C10.5508 91.0896 10.4679 91.4663 10.4901 91.8443C10.4913 92.1661 10.5483 92.4853 10.6586 92.7874" fill="#353E83"/>
<path d="M3 92.976L3.05617 121.938L22.3895 124.672L22.3427 95.7108L12.6433 82.4419L3 92.976ZM12.662 89.8072C13.2742 89.9277 13.8258 90.2589 14.2221 90.7441C14.6184 91.2294 14.8348 91.8384 14.8341 92.4667C14.8637 92.7548 14.827 93.046 14.7269 93.3175C14.6267 93.5891 14.4659 93.8338 14.2567 94.0326C14.0476 94.2314 13.7958 94.379 13.5208 94.464C13.2459 94.549 12.9552 94.569 12.6714 94.5226C12.0583 94.3988 11.5064 94.0656 11.1089 93.5794C10.7115 93.0931 10.4928 92.4836 10.4899 91.8537C10.4615 91.5654 10.4995 91.2743 10.6008 91.0032C10.7021 90.732 10.8641 90.488 11.0742 90.2901C11.2842 90.0922 11.5368 89.9457 11.8121 89.8619C12.0875 89.7782 12.3783 89.7595 12.662 89.8072ZM19.2157 105.839C19.2458 106.236 19.1949 106.635 19.0661 107.011C18.9373 107.388 18.7333 107.733 18.4667 108.027C18.1945 108.276 17.8672 108.455 17.5121 108.55C17.1571 108.645 16.7845 108.654 16.4257 108.574C15.6258 108.482 14.8916 108.084 14.3753 107.461C13.8539 106.769 13.586 105.916 13.617 105.047C13.5887 104.65 13.6413 104.251 13.7717 103.874C13.9021 103.498 14.1076 103.153 14.3753 102.859C14.6471 102.61 14.974 102.429 15.329 102.332C15.684 102.236 16.0567 102.225 16.4163 102.303C17.2037 102.406 17.9197 102.815 18.4105 103.444C18.9299 104.134 19.1976 104.983 19.1689 105.849L19.2157 105.839ZM16.9874 114.572L15.4426 114.355L8.34594 101.284L9.89073 101.501L16.9874 114.534V114.572ZM6.98839 112.413C6.47385 111.734 6.20319 110.899 6.22067 110.045C6.20182 109.657 6.25999 109.268 6.3918 108.902C6.52361 108.536 6.72641 108.2 6.98839 107.914C7.25078 107.651 7.57316 107.457 7.92733 107.348C8.2815 107.24 8.65667 107.22 9.02003 107.292C9.41976 107.344 9.8049 107.477 10.1524 107.683C10.4999 107.889 10.8026 108.163 11.0423 108.489C11.5523 109.164 11.8256 109.99 11.8194 110.838C11.8427 111.228 11.7867 111.62 11.6547 111.988C11.5227 112.356 11.3175 112.693 11.0517 112.978C10.7875 113.238 10.4639 113.428 10.1096 113.531C9.75528 113.635 9.38107 113.649 9.02003 113.573C8.62224 113.523 8.23798 113.396 7.88933 113.197C7.54068 112.998 7.23451 112.731 6.98839 112.413Z" fill="#08AAA2"/>
<path d="M6.22075 110.045C6.20328 110.899 6.47394 111.734 6.98847 112.413C7.23459 112.731 7.54076 112.998 7.88941 113.197C8.23806 113.396 8.62232 113.523 9.02011 113.572C9.38115 113.649 9.75536 113.635 10.1097 113.531C10.464 113.428 10.7876 113.238 11.0518 112.978C11.3176 112.693 11.5228 112.356 11.6548 111.988C11.7868 111.62 11.8428 111.228 11.8195 110.838C11.8257 109.99 11.5524 109.164 11.0424 108.489C10.8026 108.163 10.5 107.889 10.1525 107.683C9.80499 107.477 9.41985 107.344 9.02011 107.292C8.65676 107.22 8.28159 107.24 7.92741 107.348C7.57324 107.457 7.25086 107.651 6.98847 107.914C6.72649 108.2 6.52369 108.536 6.39188 108.902C6.26008 109.268 6.2019 109.657 6.22075 110.045ZM8.09323 111.724C7.85781 111.278 7.7508 110.775 7.78427 110.272C7.74815 109.803 7.84905 109.334 8.07451 108.923C8.17866 108.779 8.3241 108.67 8.4914 108.611C8.6587 108.552 8.83989 108.546 9.01075 108.593C9.20205 108.607 9.38712 108.668 9.55015 108.77C9.71318 108.871 9.84933 109.011 9.94699 109.178C10.1624 109.62 10.2623 110.11 10.2372 110.602C10.2767 111.081 10.1723 111.56 9.93763 111.979C9.83459 112.111 9.69597 112.211 9.53828 112.266C9.38059 112.321 9.21047 112.329 9.0482 112.29C8.85862 112.278 8.67468 112.22 8.51179 112.122C8.3489 112.023 8.21179 111.887 8.11196 111.724" fill="white"/>
<path d="M22.3896 124.673L23.1386 124.267L23.0824 95.3054L22.3428 95.7109L22.3896 124.673Z" fill="#343D81"/>
<path d="M22.3428 95.7109L23.0824 95.3053L13.3923 82.0364L12.6433 82.4419L22.3428 95.7109Z" fill="#3A3079"/>
<rect width="25" height="27" fill="black" fill-opacity="0"/>
<rect width="25" height="25" fill="black" fill-opacity="0"/>
<circle cx="12.5" cy="12.5" r="12.5" fill="#E7BB84"/>
<path d="M16.5245 9.604C16.5245 10.876 16.0565 11.782 15.1205 12.322C16.3325 12.886 16.9385 13.9 16.9385 15.364C16.9385 16.588 16.5425 17.548 15.7505 18.244C14.9585 18.928 13.8125 19.27 12.3125 19.27C9.75647 19.27 8.13047 18.262 7.43447 16.246C7.30247 15.862 7.43447 15.598 7.83047 15.454L8.80247 15.112C9.01847 15.04 9.18047 15.034 9.28847 15.094C9.39647 15.142 9.49847 15.274 9.59447 15.49C9.82247 16.09 10.1285 16.522 10.5125 16.786C10.9085 17.038 11.5085 17.164 12.3125 17.164C13.8245 17.164 14.5805 16.552 14.5805 15.328C14.5805 14.128 13.9565 13.528 12.7085 13.528H10.8365C10.6085 13.528 10.4465 13.486 10.3505 13.402C10.2665 13.318 10.2245 13.156 10.2245 12.916V12.106C10.2245 11.878 10.2665 11.722 10.3505 11.638C10.4465 11.542 10.6085 11.494 10.8365 11.494H12.3845C12.9605 11.494 13.4165 11.344 13.7525 11.044C14.1005 10.732 14.2745 10.318 14.2745 9.802C14.2745 8.638 13.6025 8.056 12.2585 8.056C11.4905 8.056 10.9265 8.176 10.5665 8.416C10.2065 8.656 9.91847 9.088 9.70247 9.712C9.61847 9.928 9.52247 10.066 9.41447 10.126C9.30647 10.174 9.13847 10.162 8.91047 10.09L7.93847 9.748C7.54247 9.604 7.41047 9.34 7.54247 8.956C7.90247 7.936 8.46047 7.18 9.21647 6.688C9.98447 6.196 11.0105 5.95 12.2945 5.95C13.6265 5.95 14.6645 6.274 15.4085 6.922C16.1525 7.558 16.5245 8.452 16.5245 9.604Z" fill="#F8F8F8"/>
</svg>
