<?xml version="1.0" standalone="no"?>
<!DOCTYPE svg PUBLIC "-//W3C//DTD SVG 20010904//EN"
 "http://www.w3.org/TR/2001/REC-SVG-20010904/DTD/svg10.dtd">
<svg version="1.0" xmlns="http://www.w3.org/2000/svg"
 width="260.000000pt" height="260.000000pt" viewBox="0 0 260.000000 260.000000"
 preserveAspectRatio="xMidYMid meet">
<metadata>
Created by potrace 1.11, written by Peter Selinger 2001-2013
</metadata>
<g transform="translate(0.000000,260.000000) scale(0.100000,-0.100000)"
fill="#000000" stroke="none">
<path d="M1490 2364 c-95 -19 -188 -62 -280 -130 l-65 -49 335 -6 c308 -5 340
-7 400 -27 127 -42 209 -119 245 -231 14 -40 16 -74 13 -154 -8 -164 -62 -273
-175 -357 -57 -41 -78 -70 -53 -70 24 0 109 -93 131 -143 31 -70 38 -225 15
-318 -51 -201 -197 -340 -423 -401 -68 -18 -117 -22 -382 -27 l-303 -6 126
-74 c211 -123 287 -146 456 -139 176 8 306 66 434 193 74 73 122 151 157 252
12 36 45 244 85 538 53 388 64 494 59 554 -22 260 -194 480 -447 568 -59 21
-95 26 -188 29 -63 1 -126 0 -140 -2z"/>
<path d="M655 1763 c-174 -151 -235 -226 -279 -344 -92 -249 -29 -530 160
-709 30 -29 57 -50 59 -48 3 2 52 274 110 604 57 329 107 607 109 617 2 9 3
17 2 17 -1 0 -73 -62 -161 -137z"/>
<path d="M1252 1663 c-12 -70 -22 -131 -22 -135 0 -5 66 -8 146 -8 114 0 153
4 180 16 51 24 77 68 82 134 4 49 1 60 -21 86 l-25 29 -159 3 -159 3 -22 -128z"/>
<path d="M1155 1118 c-6 -23 -45 -244 -45 -262 0 -16 16 -17 184 -14 168 3
187 5 213 24 39 28 73 99 73 152 0 99 -28 112 -250 112 -128 0 -172 -3 -175
-12z"/>
</g>
</svg>
