<svg width="320" height="658" viewBox="0 0 320 658" fill="none" xmlns="http://www.w3.org/2000/svg">
<rect width="1631" height="990" fill="black" fill-opacity="0" transform="translate(-1058 -332)"/>
<path d="M320 658H16L320 402V658Z" fill="#F8F8F8"/>
<g clip-path="url(#clip0)">
<rect width="447" height="402" fill="white" fill-opacity="0" transform="translate(126 216)"/>
<g opacity="0.300003">
<path fill-rule="evenodd" clip-rule="evenodd" d="M378.859 389.364C442.58 341.99 531.089 398.388 515.103 476.18L492.974 583.867C480.53 644.427 410.416 672.737 359.431 637.788L295.582 594.022C246.633 560.47 245.256 488.692 292.881 453.285L378.859 389.364ZM513.821 475.916C529.565 399.302 442.396 343.758 379.64 390.415L293.661 454.335C246.757 489.206 248.114 559.898 296.321 592.942L360.171 636.708C410.384 671.128 479.436 643.246 491.692 583.603L513.821 475.916Z" fill="#08AAA2"/>
<path fill-rule="evenodd" clip-rule="evenodd" d="M381.262 396.07C442.043 351.71 525.445 405.894 509.647 479.477L487.787 581.297C475.487 638.582 408.809 664.823 360.786 631.279L300.672 589.289C254.567 557.085 253.861 489.054 299.287 455.899L381.262 396.07ZM508.367 479.203C523.913 406.794 441.843 353.476 382.034 397.128L300.058 456.957C255.358 489.582 256.053 556.526 301.421 588.215L361.535 630.206C408.791 663.214 474.404 637.392 486.507 581.022L508.367 479.203Z" fill="#08AAA2"/>
<path fill-rule="evenodd" clip-rule="evenodd" d="M383.666 402.775C441.505 361.429 519.801 413.4 504.19 482.776L482.599 578.728C470.445 632.737 407.202 656.91 362.141 624.77L305.761 584.555C262.5 553.699 262.466 489.416 305.694 458.514L383.666 402.775ZM502.913 482.489C518.26 414.285 441.288 363.193 384.427 403.84L306.455 459.579C263.958 489.959 263.991 553.155 306.52 583.489L362.901 623.704C407.2 655.301 469.374 631.537 481.322 578.441L502.913 482.489Z" fill="#08AAA2"/>
<path fill-rule="evenodd" clip-rule="evenodd" d="M386.071 409.481C440.969 371.149 514.157 420.907 498.732 486.075L477.41 576.16C465.402 626.893 405.593 648.996 363.495 618.259L310.849 579.821C270.433 550.312 271.072 489.776 312.102 461.128L386.071 409.481ZM497.459 485.774C512.607 421.775 440.732 372.91 386.82 410.554L312.851 462.201C272.557 490.336 271.93 549.784 311.621 578.764L364.266 617.202C405.609 647.387 464.343 625.681 476.136 575.859L497.459 485.774Z" fill="#08AAA2"/>
<path fill-rule="evenodd" clip-rule="evenodd" d="M388.476 416.185C440.434 380.868 508.515 428.415 493.275 489.375L472.221 573.593C460.357 621.05 403.984 641.082 364.849 611.748L315.937 575.086C278.366 546.924 279.678 490.136 318.511 463.741L388.476 416.185ZM492.006 489.058C506.954 429.264 440.176 382.627 389.212 417.267L319.246 464.824C281.157 490.714 279.869 546.415 316.722 574.039L365.634 610.7C404.02 639.473 459.314 619.824 470.951 573.275L492.006 489.058Z" fill="#08AAA2"/>
<path fill-rule="evenodd" clip-rule="evenodd" d="M390.883 422.889C439.901 390.589 502.873 435.925 487.817 492.677L467.032 571.027C455.311 615.208 402.373 633.168 366.201 605.237L321.025 570.351C286.298 543.535 288.285 490.495 324.921 466.354L390.883 422.889ZM486.552 492.341C501.299 436.751 439.617 392.343 391.603 423.982L325.641 467.447C289.756 491.093 287.809 543.048 321.824 569.314L367.001 604.2C402.432 631.56 454.286 613.967 465.767 570.691L486.552 492.341Z" fill="#08AAA2"/>
<path fill-rule="evenodd" clip-rule="evenodd" d="M393.29 429.592C439.37 400.309 497.231 443.436 482.359 495.979L461.842 568.463C450.264 609.367 400.76 625.254 367.552 598.724L326.11 565.614C294.23 540.144 296.893 490.851 331.332 468.966L393.29 429.592ZM481.099 495.623C495.644 444.237 439.057 402.059 393.992 430.697L332.034 470.071C298.353 491.475 295.749 539.682 326.927 564.591L368.369 597.701C400.845 623.647 449.26 608.109 460.583 568.106L481.099 495.623Z" fill="#08AAA2"/>
<path fill-rule="evenodd" clip-rule="evenodd" d="M395.7 436.295C438.84 410.031 491.59 450.951 476.9 499.284L456.652 565.899C445.215 603.527 399.145 617.34 368.903 592.21L331.195 560.876C302.161 536.75 305.502 491.207 337.745 471.577L395.7 436.295ZM475.648 498.903C489.988 451.72 438.494 411.775 396.38 437.413L338.425 472.696C306.95 491.858 303.689 536.318 332.032 559.869L369.739 591.203C399.261 615.735 444.235 602.25 455.4 565.519L475.648 498.903Z" fill="#08AAA2"/>
<path fill-rule="evenodd" clip-rule="evenodd" d="M398.111 442.996C438.314 419.753 485.951 458.467 471.44 502.59L451.461 563.339C440.164 597.688 397.527 609.425 370.251 585.694L336.279 556.137C310.093 533.355 314.112 491.559 344.16 474.188L398.111 442.996ZM470.197 502.181C484.332 459.2 437.929 421.489 398.766 444.13L344.814 475.321C315.545 492.243 311.63 532.956 337.138 555.149L371.11 584.706C397.68 607.823 439.213 596.389 450.217 562.929L470.197 502.181Z" fill="#08AAA2"/>
<path fill-rule="evenodd" clip-rule="evenodd" d="M400.525 449.697C437.791 429.477 480.312 465.988 465.978 505.899L446.268 560.78C435.109 591.85 395.906 601.509 371.599 579.176L341.361 551.395C318.023 529.955 322.724 491.908 350.577 476.797L400.525 449.697ZM464.747 505.456C478.674 466.677 437.359 431.201 401.149 450.848L351.201 477.948C324.138 492.631 319.57 529.599 342.246 550.431L372.484 578.212C396.102 599.911 434.194 590.526 445.037 560.337L464.747 505.456Z" fill="#08AAA2"/>
<path fill-rule="evenodd" clip-rule="evenodd" d="M402.943 456.396C437.274 439.203 474.674 473.514 460.515 509.211L441.074 558.225C430.05 586.015 394.28 593.591 372.942 572.655L346.439 546.651C325.954 526.551 331.339 492.255 356.998 479.405L402.943 456.396ZM459.299 508.728C473.015 474.148 436.785 440.912 403.529 457.567L357.584 480.576C332.728 493.023 327.512 526.246 347.356 545.716L373.859 571.721C394.529 592.001 429.179 584.662 439.857 557.742L459.299 508.728Z" fill="#08AAA2"/>
<path fill-rule="evenodd" clip-rule="evenodd" d="M405.366 463.094C436.763 448.932 469.038 481.046 455.049 512.528L435.877 555.674C424.986 580.182 392.649 585.672 374.284 566.131L351.515 541.902C333.885 523.141 339.958 492.596 363.424 482.012L405.366 463.094ZM453.853 511.996C467.354 481.613 436.205 450.62 405.904 464.287L363.962 483.205C341.315 493.42 335.453 522.899 352.469 541.005L375.238 565.234C392.961 584.094 424.17 578.795 434.681 555.142L453.853 511.996Z" fill="#08AAA2"/>
<path fill-rule="evenodd" clip-rule="evenodd" d="M407.795 469.79C436.26 458.666 463.404 488.588 449.579 515.85L430.676 553.129C419.913 574.353 391.009 577.75 375.622 559.6L356.587 537.147C341.816 519.722 348.583 492.931 369.857 484.617L407.795 469.79ZM448.412 515.258C461.693 489.068 435.616 460.323 408.272 471.01L370.333 485.836C349.896 493.824 343.395 519.561 357.586 536.3L376.62 558.753C391.402 576.189 419.169 572.926 429.508 552.537L448.412 515.258Z" fill="#08AAA2"/>
<path fill-rule="evenodd" clip-rule="evenodd" d="M410.235 476.485C435.768 468.407 457.769 496.144 444.103 519.18L425.468 550.592C414.828 568.526 389.358 569.821 376.955 553.06L361.655 532.383C349.748 516.291 357.217 493.257 376.3 487.22L410.235 476.485ZM410.629 477.733L376.695 488.469C358.468 494.235 351.334 516.235 362.707 531.604L378.007 552.281C389.853 568.29 414.18 567.053 424.342 549.924L442.977 518.512C456.03 496.51 435.016 470.018 410.629 477.733Z" fill="#08AAA2"/>
<path fill-rule="evenodd" clip-rule="evenodd" d="M437.553 521.756C450.369 503.931 434.401 479.701 412.972 484.457L383.041 491.101C367.026 494.656 359.27 512.926 367.834 526.922L379.399 545.822C388.32 560.401 409.209 561.177 419.187 547.301L437.553 521.756ZM412.689 483.179C435.291 478.162 452.134 503.719 438.616 522.52L420.249 548.065C409.726 562.702 387.692 561.883 378.283 546.506L366.718 527.606C357.685 512.843 365.865 493.573 382.757 489.823L412.689 483.179Z" fill="#08AAA2"/>
<path fill-rule="evenodd" clip-rule="evenodd" d="M376.833 517.973C373.601 505.862 383.248 494.168 395.749 495.045L417.674 496.583C434.4 497.757 440.831 518.972 427.574 529.24L409.745 543.05C399.425 551.044 384.296 545.936 380.929 533.321L376.833 517.973ZM395.658 496.351C384.053 495.537 375.097 506.393 378.098 517.635L382.193 532.983C385.319 544.694 399.363 549.436 408.944 542.015L426.773 528.205C439.08 518.673 433.109 498.979 417.582 497.889L395.658 496.351Z" fill="#08AAA2"/>
</g>
</g>
<rect width="1463" height="835" fill="black" fill-opacity="0" transform="translate(-1058 -332)"/>
<path opacity="0.1" fill-rule="evenodd" clip-rule="evenodd" d="M-781.379 138.901C-931.286 -10.5137 -662.426 -212.049 -367.512 -171.329L38.0224 -115.334C267.609 -83.6322 339.576 79.6016 175.094 195.575L-29.5187 339.842C-187.432 451.185 -468.42 450.839 -580.458 339.165L-781.379 138.901Z" fill="url(#paint0_linear)"/>
<path opacity="0.2" fill-rule="evenodd" clip-rule="evenodd" d="M-779.518 129.731C-921.928 -12.2925 -666.558 -203.843 -386.416 -165.129L-1.19501 -111.894C216.891 -81.7543 285.268 73.401 129.039 183.628L-65.3086 320.747C-215.299 426.573 -482.209 426.235 -588.644 320.087L-779.518 129.731Z" fill="url(#paint1_linear)"/>
<path opacity="0.3" fill-rule="evenodd" clip-rule="evenodd" d="M-477.801 98.556C-569.594 7.01257 -404.991 -116.454 -224.421 -91.5009L23.8796 -57.1873C164.451 -37.7602 208.524 62.2477 107.824 133.296L-17.4459 221.679C-114.125 289.891 -286.166 289.673 -354.77 221.253L-477.801 98.556Z" fill="url(#paint2_linear)"/>
<path opacity="0.3" fill-rule="evenodd" clip-rule="evenodd" d="M-490.395 96.2707C-575.362 11.5339 -422.998 -102.753 -255.854 -79.6548L-26.0154 -47.8925C104.104 -29.9099 144.9 62.6621 51.6872 128.428L-64.2683 210.239C-153.759 273.379 -313.008 273.177 -376.511 209.845L-490.395 96.2707Z" fill="url(#paint3_linear)"/>
<path opacity="0.3" fill-rule="evenodd" clip-rule="evenodd" d="M-481.64 99.0258C-555.868 24.9988 -422.761 -74.8433 -276.743 -54.6646L-75.9528 -26.9168C37.7209 -11.2069 73.3612 69.665 -8.07088 127.119L-109.371 198.59C-187.551 253.75 -326.673 253.574 -382.15 198.245L-481.64 99.0258Z" fill="url(#paint4_linear)"/>
<defs>
<linearGradient id="paint0_linear" x1="-81.2697" y1="-370.539" x2="-464.322" y2="282.473" gradientUnits="userSpaceOnUse">
<stop stop-color="#08AAA2"/>
<stop offset="1" stop-color="#08AAA2" stop-opacity="0"/>
</linearGradient>
<linearGradient id="paint1_linear" x1="-114.535" y1="-354.469" x2="-478.715" y2="265.98" gradientUnits="userSpaceOnUse">
<stop stop-color="#08AAA2"/>
<stop offset="1" stop-color="#08AAA2" stop-opacity="0"/>
</linearGradient>
<linearGradient id="paint2_linear" x1="-49.1753" y1="-213.543" x2="-283.914" y2="186.378" gradientUnits="userSpaceOnUse">
<stop stop-color="#08AAA2"/>
<stop offset="1" stop-color="#08AAA2" stop-opacity="0"/>
</linearGradient>
<linearGradient id="paint3_linear" x1="-93.6384" y1="-192.622" x2="-310.923" y2="177.563" gradientUnits="userSpaceOnUse">
<stop stop-color="#08AAA2"/>
<stop offset="1" stop-color="#08AAA2" stop-opacity="0"/>
</linearGradient>
<linearGradient id="paint4_linear" x1="-135.029" y1="-153.354" x2="-324.851" y2="170.044" gradientUnits="userSpaceOnUse">
<stop stop-color="#08AAA2"/>
<stop offset="1" stop-color="#08AAA2" stop-opacity="0"/>
</linearGradient>
<clipPath id="clip0">
<rect width="447" height="402" fill="white" transform="translate(126 216)"/>
</clipPath>
</defs>
</svg>
