<svg width="1440" height="600" viewBox="0 0 1440 600" fill="none" xmlns="http://www.w3.org/2000/svg">
<rect width="3571" height="1222" fill="black" fill-opacity="0" transform="translate(-1444 -478)"/>
<path d="M1440 600H509.5L1345.28 0H1440V600Z" fill="#F8F8F8"/>
<rect width="921" height="910" fill="white" fill-opacity="0" transform="translate(1206 -197)"/>
<g opacity="0.300003">
<path fill-rule="evenodd" clip-rule="evenodd" d="M1575.37 -117.949C1770.12 -262.688 2040.62 -90.3774 1991.76 147.297L1924.13 476.31C1886.1 661.338 1671.81 747.833 1515.99 641.056L1320.86 507.338C1171.26 404.826 1167.05 185.525 1312.6 77.3468L1575.37 -117.949ZM1987.84 146.492C2035.96 -87.5844 1769.55 -257.286 1577.76 -114.738L1314.99 80.5572C1171.64 187.098 1175.79 403.079 1323.12 504.038L1518.25 637.756C1671.72 742.917 1882.75 657.731 1920.21 475.505L1987.84 146.492Z" fill="#08AAA2"/>
<path fill-rule="evenodd" clip-rule="evenodd" d="M1582.71 -97.4594C1768.47 -232.993 2023.37 -67.4453 1975.08 157.373L1908.27 468.46C1870.69 643.48 1666.9 723.655 1520.13 621.168L1336.41 492.876C1195.51 394.485 1193.35 186.632 1332.18 85.3348L1582.71 -97.4594ZM1971.17 156.533C2018.68 -64.6935 1767.86 -227.596 1585.07 -94.2281L1334.54 88.5661C1197.92 188.245 1200.05 392.777 1338.7 489.596L1522.42 617.889C1666.85 718.738 1867.38 639.844 1904.36 467.621L1971.17 156.533Z" fill="#08AAA2"/>
<path fill-rule="evenodd" clip-rule="evenodd" d="M1590.06 -76.9732C1766.83 -203.298 2006.12 -44.5125 1958.41 167.451L1892.42 460.612C1855.28 625.623 1661.99 699.478 1524.28 601.28L1351.97 478.414C1219.75 384.14 1219.65 187.738 1351.76 93.323L1590.06 -76.9732ZM1954.5 166.573C2001.41 -41.8071 1766.17 -197.908 1592.39 -73.7188L1354.09 96.5774C1224.21 189.396 1224.31 382.477 1354.29 475.158L1526.6 598.023C1661.98 694.561 1852 621.955 1888.52 459.733L1954.5 166.573Z" fill="#08AAA2"/>
<path fill-rule="evenodd" clip-rule="evenodd" d="M1597.41 -56.4864C1765.19 -173.601 1988.87 -21.576 1941.73 177.531L1876.56 452.766C1839.86 607.769 1657.07 675.3 1528.41 581.389L1367.52 463.951C1244 373.792 1245.95 188.839 1371.35 101.31L1597.41 -56.4864ZM1937.83 176.609C1984.13 -18.9228 1764.47 -168.219 1599.7 -53.2065L1373.64 104.59C1250.49 190.548 1248.57 372.179 1369.88 460.72L1530.77 578.158C1657.12 670.383 1836.63 604.064 1872.67 451.844L1937.83 176.609Z" fill="#08AAA2"/>
<path fill-rule="evenodd" clip-rule="evenodd" d="M1604.76 -36.0039C1763.56 -143.906 1971.62 1.36345 1925.05 187.613L1860.7 444.921C1824.44 589.916 1652.16 651.12 1532.55 561.496L1383.07 449.484C1268.24 363.439 1272.25 189.938 1390.93 109.293L1604.76 -36.0039ZM1921.17 186.643C1966.85 3.95683 1762.77 -138.533 1607.01 -32.6955L1393.18 112.601C1276.77 191.703 1272.84 361.885 1385.47 446.283L1534.95 558.295C1652.27 646.204 1821.26 586.171 1856.82 443.951L1921.17 186.643Z" fill="#08AAA2"/>
<path fill-rule="evenodd" clip-rule="evenodd" d="M1612.12 -15.5212C1761.93 -114.207 1954.38 24.3083 1908.37 197.7L1844.84 437.082C1809.02 572.066 1647.23 626.941 1536.68 541.601L1398.62 435.016C1292.48 353.086 1298.56 191.033 1410.52 117.277L1612.12 -15.5212ZM1904.5 196.674C1949.57 26.833 1761.06 -108.845 1614.32 -12.1808L1412.72 120.617C1303.05 192.863 1297.1 351.597 1401.06 431.849L1539.13 538.435C1647.41 622.027 1805.89 568.276 1840.98 436.056L1904.5 196.674Z" fill="#08AAA2"/>
<path fill-rule="evenodd" clip-rule="evenodd" d="M1619.47 4.95947C1760.3 -84.5075 1937.14 47.2577 1891.69 207.79L1828.98 429.247C1793.6 554.22 1642.3 602.761 1540.81 521.703L1414.16 420.545C1316.73 342.725 1324.86 192.124 1430.12 125.257L1619.47 4.95947ZM1887.84 206.7C1932.29 49.7026 1759.35 -79.1613 1621.62 8.33575L1432.26 128.634C1329.33 194.028 1321.37 341.313 1416.66 417.419L1543.31 518.578C1642.56 597.851 1790.53 550.378 1825.13 428.157L1887.84 206.7Z" fill="#08AAA2"/>
<path fill-rule="evenodd" clip-rule="evenodd" d="M1626.84 25.4379C1758.68 -54.8045 1919.9 70.216 1875 217.886L1813.12 421.415C1778.17 536.377 1637.37 578.581 1544.94 501.801L1429.7 406.069C1340.97 332.358 1351.18 193.209 1449.72 133.236L1626.84 25.4379ZM1871.17 216.722C1915 72.5671 1757.63 -49.4776 1628.92 28.8548L1451.79 136.652C1355.6 195.198 1345.63 331.035 1432.26 402.992L1547.5 498.724C1637.72 573.676 1775.17 532.477 1809.29 420.252L1871.17 216.722Z" fill="#08AAA2"/>
<path fill-rule="evenodd" clip-rule="evenodd" d="M1634.21 45.9134C1757.08 -25.1003 1902.66 93.1813 1858.31 227.988L1797.25 413.592C1762.73 518.537 1632.42 554.398 1549.06 481.894L1445.24 391.589C1365.21 321.982 1377.49 194.286 1469.32 141.211L1634.21 45.9134ZM1854.52 226.738C1897.72 95.4209 1755.9 -19.7988 1636.21 49.3766L1471.32 144.674C1381.87 196.376 1369.9 320.766 1447.86 388.571L1551.69 478.876C1632.89 549.503 1759.82 514.57 1793.45 412.341L1854.52 226.738Z" fill="#08AAA2"/>
<path fill-rule="evenodd" clip-rule="evenodd" d="M1641.59 66.3846C1755.48 4.60894 1885.43 116.158 1841.62 238.097L1781.39 405.774C1747.28 500.701 1627.47 530.211 1553.18 461.98L1460.77 377.102C1389.44 311.596 1403.81 195.353 1488.93 149.183L1641.59 66.3846ZM1837.86 236.744C1880.42 118.263 1754.16 9.87652 1643.49 69.9007L1490.84 152.699C1408.13 197.56 1394.17 310.507 1463.47 374.156L1555.89 459.034C1628.07 525.331 1744.48 496.657 1777.62 404.421L1837.86 236.744Z" fill="#08AAA2"/>
<path fill-rule="evenodd" clip-rule="evenodd" d="M1648.97 86.853C1753.9 34.3236 1868.2 139.151 1824.93 248.217L1765.51 397.968C1731.82 482.874 1622.5 506.022 1557.29 442.057L1476.29 362.605C1413.68 301.196 1430.14 196.412 1508.56 157.151L1648.97 86.853ZM1821.21 246.741C1863.13 141.091 1752.4 39.545 1650.77 90.4297L1510.35 160.728C1434.39 198.759 1418.44 300.263 1479.09 359.749L1560.09 439.201C1623.26 501.164 1729.16 478.74 1761.79 396.493L1821.21 246.741Z" fill="#08AAA2"/>
<path fill-rule="evenodd" clip-rule="evenodd" d="M1656.38 107.317C1752.33 64.0484 1850.98 162.166 1808.22 258.35L1749.63 390.174C1716.34 465.054 1617.51 481.828 1561.39 422.122L1491.8 348.097C1437.92 290.777 1456.48 197.453 1528.2 165.116L1656.38 107.317ZM1804.57 256.725C1845.83 163.898 1750.63 69.205 1658.02 110.963L1529.84 168.763C1460.63 199.971 1442.71 290.037 1494.72 345.357L1564.3 419.382C1618.47 477.004 1713.85 460.816 1745.97 388.55L1804.57 256.725Z" fill="#08AAA2"/>
<path fill-rule="evenodd" clip-rule="evenodd" d="M1663.8 127.776C1750.8 93.7878 1833.76 185.208 1791.51 268.501L1733.73 382.4C1700.84 447.243 1612.5 457.622 1565.48 402.168L1507.3 333.57C1462.16 280.331 1482.84 198.477 1547.86 173.075L1663.8 127.776ZM1787.94 266.692C1828.53 186.674 1748.83 98.8504 1665.26 131.501L1549.31 176.801C1486.85 201.204 1466.98 279.838 1510.35 330.983L1568.53 399.581C1613.7 452.853 1698.57 442.883 1730.16 380.59L1787.94 266.692Z" fill="#08AAA2"/>
<path fill-rule="evenodd" clip-rule="evenodd" d="M1671.26 148.23C1749.29 123.551 1816.54 208.293 1774.77 278.676L1717.81 374.648C1685.3 429.441 1607.46 433.399 1569.55 382.187L1522.79 319.015C1486.4 269.849 1509.23 199.475 1567.55 181.03L1671.26 148.23ZM1672.47 152.044L1568.75 184.843C1513.05 202.461 1491.25 269.676 1526.01 316.635L1572.77 379.808C1608.97 428.72 1683.32 424.94 1714.37 372.607L1771.33 276.634C1811.22 209.411 1747 128.472 1672.47 152.044Z" fill="#08AAA2"/>
<path fill-rule="evenodd" clip-rule="evenodd" d="M1754.75 286.545C1793.92 232.085 1745.12 158.054 1679.63 172.587L1588.15 192.887C1539.2 203.748 1515.5 259.566 1541.67 302.329L1577.02 360.074C1604.28 404.617 1668.13 406.988 1698.62 364.591L1754.75 286.545ZM1678.76 168.683C1747.84 153.354 1799.31 231.438 1758 288.88L1701.87 366.926C1669.7 411.646 1602.37 409.144 1573.61 362.162L1538.26 304.418C1510.66 259.313 1535.66 200.438 1587.28 188.982L1678.76 168.683Z" fill="#08AAA2"/>
<path fill-rule="evenodd" clip-rule="evenodd" d="M1569.18 274.987C1559.3 237.985 1588.78 202.258 1626.99 204.937L1694 209.636C1745.11 213.221 1764.77 278.038 1724.25 309.411L1669.76 351.605C1638.22 376.027 1591.98 360.421 1581.7 321.88L1569.18 274.987ZM1626.71 208.927C1591.24 206.44 1563.87 239.606 1573.04 273.956L1585.56 320.848C1595.11 356.627 1638.03 371.114 1667.31 348.442L1721.8 306.249C1759.42 277.125 1741.17 216.955 1693.72 213.627L1626.71 208.927Z" fill="#08AAA2"/>
</g>
<rect width="2140" height="1222" fill="black" fill-opacity="0" transform="translate(-1444 -478)"/>
<path opacity="0.1" fill-rule="evenodd" clip-rule="evenodd" d="M-1039.37 211.13C-1258.67 -7.54142 -865.422 -302.468 -434.029 -242.862L159.179 -160.896C495.013 -114.491 600.308 124.4 359.727 294.114L60.4496 505.235C-170.523 668.173 -581.541 667.653 -745.441 504.217L-1039.37 211.13Z" fill="url(#paint0_linear)"/>
<path opacity="0.2" fill-rule="evenodd" clip-rule="evenodd" d="M-1036.58 197.704C-1244.93 -10.0431 -871.326 -290.236 -461.483 -233.608L102.09 -155.737C421.147 -111.65 521.181 115.307 292.619 276.543L8.29246 477.116C-211.141 631.915 -601.626 631.421 -757.339 476.15L-1036.58 197.704Z" fill="url(#paint1_linear)"/>
<path opacity="0.3" fill-rule="evenodd" clip-rule="evenodd" d="M-595.179 152.103C-729.471 18.1958 -488.658 -162.407 -224.488 -125.907L138.773 -75.7137C344.427 -47.2963 408.906 98.992 261.582 202.92L78.3144 332.203C-63.1253 431.981 -314.819 431.662 -415.186 331.58L-595.179 152.103Z" fill="url(#paint2_linear)"/>
<path opacity="0.3" fill-rule="evenodd" clip-rule="evenodd" d="M-613.602 148.76C-737.909 24.8094 -515.002 -142.365 -270.473 -108.578L65.7772 -62.1175C256.14 -35.8131 315.824 99.5981 179.455 195.798L9.81396 315.469C-121.109 407.828 -354.088 407.533 -446.993 314.892L-613.602 148.76Z" fill="url(#paint3_linear)"/>
<path opacity="0.3" fill-rule="evenodd" clip-rule="evenodd" d="M-600.794 152.79C-709.389 44.5054 -514.655 -101.54 -301.032 -72.0236L-7.28001 -31.435C159.023 -8.45515 211.164 109.842 92.0302 193.883L-56.1701 298.429C-170.546 379.114 -374.079 378.857 -455.242 297.925L-600.794 152.79Z" fill="url(#paint4_linear)"/>
<defs>
<linearGradient id="paint0_linear" x1="-15.3541" y1="-534.385" x2="-576.036" y2="420.984" gradientUnits="userSpaceOnUse">
<stop stop-color="#08AAA2"/>
<stop offset="1" stop-color="#08AAA2" stop-opacity="0"/>
</linearGradient>
<linearGradient id="paint1_linear" x1="-63.7243" y1="-510.567" x2="-596.396" y2="397.075" gradientUnits="userSpaceOnUse">
<stop stop-color="#08AAA2"/>
<stop offset="1" stop-color="#08AAA2" stop-opacity="0"/>
</linearGradient>
<linearGradient id="paint2_linear" x1="31.8947" y1="-304.425" x2="-311.448" y2="280.61" gradientUnits="userSpaceOnUse">
<stop stop-color="#08AAA2"/>
<stop offset="1" stop-color="#08AAA2" stop-opacity="0"/>
</linearGradient>
<linearGradient id="paint3_linear" x1="-33.1542" y1="-273.824" x2="-350.968" y2="267.712" gradientUnits="userSpaceOnUse">
<stop stop-color="#08AAA2"/>
<stop offset="1" stop-color="#08AAA2" stop-opacity="0"/>
</linearGradient>
<linearGradient id="paint4_linear" x1="-93.7076" y1="-216.384" x2="-371.353" y2="256.708" gradientUnits="userSpaceOnUse">
<stop stop-color="#08AAA2"/>
<stop offset="1" stop-color="#08AAA2" stop-opacity="0"/>
</linearGradient>
</defs>
</svg>
