<svg width="834" height="892" viewBox="0 0 834 892" fill="none" xmlns="http://www.w3.org/2000/svg">
<rect width="2742" height="1363" fill="black" fill-opacity="0" transform="translate(-1448 -469)"/>
<path d="M834 892H22L834 312V892Z" fill="#F8F8F8"/>
<rect width="2140" height="1222" fill="black" fill-opacity="0" transform="translate(-1448 -469)"/>
<path opacity="0.1" fill-rule="evenodd" clip-rule="evenodd" d="M-1043.37 220.129C-1262.67 1.45857 -869.422 -293.468 -438.029 -233.862L155.179 -151.896C491.013 -105.491 596.308 133.4 355.727 303.114L56.4496 514.235C-174.523 677.173 -585.541 676.653 -749.441 513.217L-1043.37 220.129Z" fill="url(#paint0_linear)"/>
<path opacity="0.2" fill-rule="evenodd" clip-rule="evenodd" d="M-1040.58 206.704C-1248.93 -1.04307 -875.326 -281.236 -465.483 -224.608L98.0897 -146.737C417.147 -102.65 517.181 124.307 288.619 285.543L4.29246 486.116C-215.141 640.915 -605.626 640.421 -761.339 485.15L-1040.58 206.704Z" fill="url(#paint1_linear)"/>
<path opacity="0.3" fill-rule="evenodd" clip-rule="evenodd" d="M-599.179 161.103C-733.471 27.1958 -492.658 -153.407 -228.488 -116.907L134.773 -66.7137C340.427 -38.2963 404.906 107.992 257.582 211.92L74.3143 341.203C-67.1253 440.981 -318.819 440.662 -419.186 340.58L-599.179 161.103Z" fill="url(#paint2_linear)"/>
<path opacity="0.3" fill-rule="evenodd" clip-rule="evenodd" d="M-617.602 157.76C-741.909 33.8094 -519.002 -133.365 -274.473 -99.5783L61.7772 -53.1175C252.14 -26.8131 311.824 108.598 175.455 204.798L5.81396 324.469C-125.109 416.828 -358.089 416.533 -450.993 323.892L-617.602 157.76Z" fill="url(#paint3_linear)"/>
<path opacity="0.3" fill-rule="evenodd" clip-rule="evenodd" d="M-604.794 161.79C-713.389 53.5054 -518.655 -92.5403 -305.032 -63.0236L-11.28 -22.435C155.023 0.544848 207.164 118.842 88.0302 202.883L-60.1701 307.429C-174.546 388.115 -378.079 387.857 -459.242 306.925L-604.794 161.79Z" fill="url(#paint4_linear)"/>
<g clip-path="url(#clip0)">
<rect width="628" height="607" fill="white" fill-opacity="0" transform="translate(666 287)"/>
<g opacity="0.300003">
<path fill-rule="evenodd" clip-rule="evenodd" d="M1035.37 229.051C1230.12 84.3121 1500.62 256.623 1451.76 494.297L1384.13 823.31C1346.1 1008.34 1131.81 1094.83 975.993 988.056L780.857 854.338C631.261 751.826 627.051 532.525 772.602 424.347L1035.37 229.051ZM1447.84 493.492C1495.96 259.416 1229.55 89.7138 1037.76 232.262L774.989 427.557C631.641 534.098 635.787 750.079 783.118 851.038L978.254 984.756C1131.72 1089.92 1342.75 1004.73 1380.21 822.505L1447.84 493.492Z" fill="#08AAA2"/>
<path fill-rule="evenodd" clip-rule="evenodd" d="M1042.71 249.541C1228.47 114.007 1483.37 279.555 1435.08 504.373L1368.27 815.46C1330.69 990.48 1126.9 1070.65 980.135 968.168L796.413 839.876C655.507 741.485 653.349 533.632 792.181 432.335L1042.71 249.541ZM1431.17 503.533C1478.68 282.307 1227.86 119.404 1045.07 252.772L794.539 435.566C657.925 535.245 660.049 739.777 798.703 836.596L982.425 964.889C1126.85 1065.74 1327.38 986.844 1364.36 814.621L1431.17 503.533Z" fill="#08AAA2"/>
<path fill-rule="evenodd" clip-rule="evenodd" d="M1050.06 270.027C1226.83 143.702 1466.12 302.487 1418.41 514.451L1352.42 807.612C1315.28 972.623 1121.99 1046.48 984.276 948.28L811.966 825.414C679.753 731.14 679.65 534.738 811.764 440.323L1050.06 270.027ZM1414.5 513.573C1461.41 305.193 1226.17 149.092 1052.39 273.281L814.089 443.577C684.209 536.396 684.311 729.477 814.288 822.158L986.599 945.023C1121.98 1041.56 1312 968.955 1348.52 806.733L1414.5 513.573Z" fill="#08AAA2"/>
<path fill-rule="evenodd" clip-rule="evenodd" d="M1057.41 290.514C1225.19 173.399 1448.87 325.424 1401.73 524.531L1336.56 799.766C1299.86 954.769 1117.07 1022.3 988.413 928.389L827.517 810.951C703.996 720.792 705.95 535.839 831.347 448.31L1057.41 290.514ZM1397.83 523.609C1444.13 328.077 1224.47 178.781 1059.7 293.794L833.637 451.59C710.49 537.548 708.572 719.18 829.875 807.72L990.772 925.158C1117.12 1017.38 1296.63 951.064 1332.67 798.844L1397.83 523.609Z" fill="#08AAA2"/>
<path fill-rule="evenodd" clip-rule="evenodd" d="M1064.76 310.996C1223.56 203.094 1431.62 348.363 1385.05 534.613L1320.7 791.921C1284.44 936.916 1112.16 998.12 992.551 908.496L843.068 796.484C728.242 710.439 732.253 536.938 850.933 456.293L1064.76 310.996ZM1381.17 533.643C1426.85 350.957 1222.77 208.467 1067.01 314.305L853.182 459.601C736.772 538.703 732.837 708.885 845.467 793.283L994.95 905.295C1112.27 993.204 1281.26 933.171 1316.82 790.951L1381.17 533.643Z" fill="#08AAA2"/>
<path fill-rule="evenodd" clip-rule="evenodd" d="M1072.12 331.479C1221.93 232.793 1414.38 371.308 1368.37 544.7L1304.84 784.082C1269.02 919.066 1107.23 973.941 996.684 888.601L858.616 782.016C752.484 700.086 758.559 538.033 870.524 464.277L1072.12 331.479ZM1364.5 543.674C1409.57 373.833 1221.06 238.155 1074.32 334.819L872.724 467.617C763.052 539.863 757.102 698.597 861.06 778.849L999.129 885.435C1107.41 969.027 1265.89 915.276 1300.98 783.056L1364.5 543.674Z" fill="#08AAA2"/>
<path fill-rule="evenodd" clip-rule="evenodd" d="M1079.47 351.959C1220.3 262.493 1397.14 394.258 1351.69 554.79L1288.98 776.247C1253.6 901.22 1102.3 949.761 1000.81 868.703L874.159 767.545C776.726 689.725 784.864 539.124 890.117 472.257L1079.47 351.959ZM1347.84 553.7C1392.29 396.703 1219.35 267.839 1081.62 355.336L892.262 475.634C789.327 541.028 781.368 688.313 876.656 764.419L1003.31 865.578C1102.56 944.851 1250.53 897.378 1285.13 775.157L1347.84 553.7Z" fill="#08AAA2"/>
<path fill-rule="evenodd" clip-rule="evenodd" d="M1086.84 372.438C1218.68 292.196 1379.9 417.216 1335 564.886L1273.12 768.415C1238.17 883.377 1097.37 925.581 1004.94 848.801L889.7 753.069C800.966 679.358 811.176 540.209 909.715 480.236L1086.84 372.438ZM1331.17 563.722C1375 419.567 1217.63 297.522 1088.92 375.855L911.795 483.652C815.6 542.198 805.634 678.035 892.256 749.992L1007.5 845.724C1097.72 920.676 1235.17 879.477 1269.29 767.252L1331.17 563.722Z" fill="#08AAA2"/>
<path fill-rule="evenodd" clip-rule="evenodd" d="M1094.21 392.913C1217.08 321.9 1362.66 440.181 1318.31 574.988L1257.25 760.592C1222.73 865.537 1092.42 901.398 1009.06 828.894L905.237 738.589C825.207 668.982 837.49 541.286 929.321 488.211L1094.21 392.913ZM1314.52 573.738C1357.72 442.421 1215.9 327.201 1096.21 396.377L931.323 491.674C841.869 543.376 829.904 667.766 907.862 735.571L1011.69 825.876C1092.89 896.503 1219.82 861.57 1253.45 759.341L1314.52 573.738Z" fill="#08AAA2"/>
<path fill-rule="evenodd" clip-rule="evenodd" d="M1101.59 413.385C1215.48 351.609 1345.43 463.158 1301.62 585.097L1241.39 752.774C1207.28 847.701 1087.47 877.211 1013.18 808.98L920.766 724.102C849.443 658.596 863.81 542.353 948.934 496.183L1101.59 413.385ZM1297.86 583.744C1340.42 465.263 1214.16 356.877 1103.49 416.901L950.841 499.699C868.13 544.56 854.171 657.507 923.472 721.156L1015.89 806.034C1088.07 872.331 1204.48 843.657 1237.62 751.421L1297.86 583.744Z" fill="#08AAA2"/>
<path fill-rule="evenodd" clip-rule="evenodd" d="M1108.97 433.853C1213.9 381.324 1328.2 486.151 1284.93 595.217L1225.51 744.968C1191.82 829.874 1082.5 853.022 1017.29 789.057L936.288 709.605C873.682 648.196 890.139 543.412 968.558 504.151L1108.97 433.853ZM1281.21 593.741C1323.13 488.091 1212.4 386.545 1110.77 437.43L970.349 507.728C894.385 545.759 878.443 647.263 939.089 706.749L1020.09 786.201C1083.26 848.164 1189.16 825.74 1221.79 743.493L1281.21 593.741Z" fill="#08AAA2"/>
<path fill-rule="evenodd" clip-rule="evenodd" d="M1116.38 454.317C1212.33 411.048 1310.98 509.166 1268.22 605.35L1209.63 737.174C1176.34 812.054 1077.51 828.828 1021.39 769.122L951.802 695.097C897.918 637.777 916.481 544.453 988.197 512.116L1116.38 454.317ZM1264.57 603.725C1305.83 510.898 1210.63 416.205 1118.02 457.963L989.841 515.763C920.629 546.971 902.713 637.037 954.716 692.357L1024.3 766.382C1078.47 824.004 1173.85 807.816 1205.97 735.55L1264.57 603.725Z" fill="#08AAA2"/>
<path fill-rule="evenodd" clip-rule="evenodd" d="M1123.8 474.776C1210.8 440.788 1293.76 532.208 1251.51 615.501L1193.73 729.4C1160.84 794.243 1072.5 804.622 1025.48 749.168L967.303 680.57C922.158 627.331 942.84 545.478 1007.86 520.075L1123.8 474.776ZM1247.94 613.692C1288.53 533.674 1208.83 445.85 1125.26 478.501L1009.31 523.801C946.853 548.204 926.984 626.838 970.354 677.983L1028.53 746.581C1073.7 799.853 1158.57 789.883 1190.16 727.59L1247.94 613.692Z" fill="#08AAA2"/>
<path fill-rule="evenodd" clip-rule="evenodd" d="M1131.26 495.23C1209.29 470.551 1276.54 555.293 1234.77 625.676L1177.81 721.648C1145.3 776.441 1067.46 780.399 1029.55 729.187L982.791 666.015C946.399 616.849 969.226 546.475 1027.55 528.03L1131.26 495.23ZM1132.47 499.044L1028.75 531.843C973.05 549.461 951.247 616.676 986.006 663.635L1032.77 726.808C1068.97 775.72 1143.32 771.94 1174.37 719.607L1231.33 623.634C1271.22 556.411 1207 475.472 1132.47 499.044Z" fill="#08AAA2"/>
<path fill-rule="evenodd" clip-rule="evenodd" d="M1214.75 633.545C1253.92 579.085 1205.12 505.054 1139.63 519.587L1048.15 539.887C999.204 550.748 975.501 606.566 1001.67 649.329L1037.02 707.074C1064.28 751.617 1128.13 753.988 1158.62 711.591L1214.75 633.545ZM1138.76 515.683C1207.84 500.354 1259.31 578.438 1218 635.88L1161.87 713.926C1129.7 758.646 1062.37 756.144 1033.61 709.162L998.263 651.418C970.656 606.313 995.657 547.438 1047.28 535.982L1138.76 515.683Z" fill="#08AAA2"/>
<path fill-rule="evenodd" clip-rule="evenodd" d="M1029.18 621.987C1019.3 584.985 1048.78 549.258 1086.99 551.937L1154 556.636C1205.11 560.221 1224.77 625.038 1184.25 656.411L1129.76 698.605C1098.22 723.027 1051.98 707.421 1041.7 668.88L1029.18 621.987ZM1086.71 555.927C1051.24 553.44 1023.87 586.606 1033.04 620.956L1045.56 667.848C1055.11 703.627 1098.03 718.114 1127.31 695.442L1181.8 653.249C1219.42 624.125 1201.17 563.955 1153.72 560.627L1086.71 555.927Z" fill="#08AAA2"/>
</g>
</g>
<defs>
<linearGradient id="paint0_linear" x1="-19.3541" y1="-525.385" x2="-580.036" y2="429.984" gradientUnits="userSpaceOnUse">
<stop stop-color="#08AAA2"/>
<stop offset="1" stop-color="#08AAA2" stop-opacity="0"/>
</linearGradient>
<linearGradient id="paint1_linear" x1="-67.7243" y1="-501.567" x2="-600.396" y2="406.075" gradientUnits="userSpaceOnUse">
<stop stop-color="#08AAA2"/>
<stop offset="1" stop-color="#08AAA2" stop-opacity="0"/>
</linearGradient>
<linearGradient id="paint2_linear" x1="27.8947" y1="-295.425" x2="-315.448" y2="289.61" gradientUnits="userSpaceOnUse">
<stop stop-color="#08AAA2"/>
<stop offset="1" stop-color="#08AAA2" stop-opacity="0"/>
</linearGradient>
<linearGradient id="paint3_linear" x1="-37.1542" y1="-264.824" x2="-354.968" y2="276.712" gradientUnits="userSpaceOnUse">
<stop stop-color="#08AAA2"/>
<stop offset="1" stop-color="#08AAA2" stop-opacity="0"/>
</linearGradient>
<linearGradient id="paint4_linear" x1="-97.7076" y1="-207.384" x2="-375.353" y2="265.708" gradientUnits="userSpaceOnUse">
<stop stop-color="#08AAA2"/>
<stop offset="1" stop-color="#08AAA2" stop-opacity="0"/>
</linearGradient>
<clipPath id="clip0">
<rect width="628" height="607" fill="white" transform="translate(666 287)"/>
</clipPath>
</defs>
</svg>
