<svg width="1440" height="600" viewBox="0 0 1440 600" fill="none" xmlns="http://www.w3.org/2000/svg">
<g clip-path="url(#clip0)">
<rect width="1440" height="602" fill="white" fill-opacity="0"/>
<g opacity="0.300003">
<path fill-rule="evenodd" clip-rule="evenodd" d="M1329.64 353.271C1562.63 285.514 1756.08 541.325 1627.42 747.051L1449.32 1031.84C1349.16 1191.99 1118.17 1198.35 1009.36 1043.94L873.088 850.581C768.621 702.344 841.136 495.337 1015.27 444.695L1329.64 353.271ZM1624.03 744.93C1750.74 542.318 1560.22 290.381 1330.76 357.112L1016.39 448.536C844.89 498.411 773.472 702.284 876.358 848.277L1012.63 1041.64C1119.79 1193.71 1347.29 1187.45 1445.93 1029.72L1624.03 744.93Z" fill="#C4C4C4"/>
<path fill-rule="evenodd" clip-rule="evenodd" d="M1329.38 375.035C1550.74 312.772 1731.92 556.803 1608.28 750.68L1437.2 1018.95C1340.95 1169.88 1122 1173.98 1020.17 1026.75L892.71 842.451C794.952 701.106 865.399 505.543 1030.84 459.008L1329.38 375.035ZM1604.91 748.529C1726.57 557.75 1548.28 317.618 1330.47 378.886L1031.92 462.858C869.125 508.65 799.803 701.088 896 840.176L1023.46 1024.47C1123.66 1169.35 1339.11 1165.32 1433.83 1016.8L1604.91 748.529Z" fill="#C4C4C4"/>
<path fill-rule="evenodd" clip-rule="evenodd" d="M1329.13 396.797C1538.84 340.031 1707.76 572.283 1589.14 754.311L1425.08 1006.07C1332.73 1147.77 1125.82 1149.6 1030.99 1009.55L912.329 834.319C821.283 699.863 889.663 515.75 1046.41 473.322L1329.13 396.797ZM1585.78 752.127C1702.4 573.177 1536.34 344.852 1330.17 400.658L1047.45 477.183C893.359 518.893 826.134 699.894 915.641 832.077L1034.3 1007.31C1127.53 1144.99 1330.94 1143.19 1421.72 1003.88L1585.78 752.127Z" fill="#C4C4C4"/>
<path fill-rule="evenodd" clip-rule="evenodd" d="M1328.87 418.561C1526.95 367.293 1683.59 587.767 1569.99 757.943L1412.95 993.186C1324.51 1125.67 1129.65 1125.23 1041.8 992.352L931.948 826.186C847.613 698.617 913.929 525.952 1061.98 487.636L1328.87 418.561ZM1566.66 755.722C1678.23 588.601 1524.4 372.086 1329.87 422.433L1062.98 491.508C917.589 529.136 852.464 698.702 935.284 823.98L1045.14 990.146C1131.41 1120.64 1322.77 1121.07 1409.62 990.965L1566.66 755.722Z" fill="#C4C4C4"/>
<path fill-rule="evenodd" clip-rule="evenodd" d="M1328.62 440.321C1515.07 394.555 1659.43 603.254 1550.84 761.577L1400.82 980.305C1316.28 1103.56 1133.47 1100.85 1052.62 975.15L951.567 818.049C873.946 697.368 938.199 536.152 1077.55 501.947L1328.62 440.321ZM1547.54 759.315C1654.06 604.021 1512.46 399.316 1329.57 444.206L1078.5 505.832C941.819 539.382 878.796 697.513 954.931 815.885L1055.98 972.986C1135.28 1096.28 1314.6 1098.94 1397.52 978.042L1547.54 759.315Z" fill="#C4C4C4"/>
<path fill-rule="evenodd" clip-rule="evenodd" d="M1328.37 462.083C1503.19 421.823 1635.27 618.747 1531.69 765.215L1388.69 967.428C1308.05 1081.45 1137.28 1076.47 1063.43 957.945L971.183 809.909C900.277 696.116 962.472 546.35 1093.13 516.26L1328.37 462.083ZM1528.43 762.905C1629.88 619.436 1500.51 426.545 1329.27 465.981L1094.02 520.158C966.045 549.632 905.124 696.331 974.578 807.794L1066.82 955.83C1139.16 1071.93 1306.44 1076.81 1385.42 965.118L1528.43 762.905Z" fill="#C4C4C4"/>
<path fill-rule="evenodd" clip-rule="evenodd" d="M1328.13 483.843C1491.31 449.092 1611.11 634.244 1512.54 768.856L1376.56 954.554C1299.82 1059.35 1141.09 1052.09 1074.23 940.736L990.797 801.766C926.61 694.858 986.747 556.544 1108.71 530.571L1328.13 483.843ZM1509.31 766.492C1605.71 634.845 1488.55 453.769 1328.96 487.756L1109.54 534.484C990.265 559.885 931.453 695.153 994.226 799.707L1077.66 938.677C1143.05 1047.58 1298.28 1054.68 1373.33 952.191L1509.31 766.492Z" fill="#C4C4C4"/>
<path fill-rule="evenodd" clip-rule="evenodd" d="M1327.89 505.605C1479.44 476.367 1586.95 649.751 1493.38 772.501L1364.42 941.683C1291.58 1037.24 1144.9 1027.71 1085.04 923.521L1010.41 793.616C952.944 693.593 1011.03 566.735 1124.29 544.882L1327.89 505.605ZM1490.2 770.076C1581.54 650.248 1476.59 480.991 1328.65 509.532L1125.05 548.81C1014.48 570.142 957.78 693.981 1013.88 791.624L1088.51 921.529C1146.94 1023.24 1290.13 1032.54 1361.24 939.258L1490.2 770.076Z" fill="#C4C4C4"/>
<path fill-rule="evenodd" clip-rule="evenodd" d="M1327.66 527.365C1467.57 503.647 1562.79 665.266 1474.22 776.151L1352.28 928.819C1283.33 1015.14 1148.7 1003.32 1095.84 906.301L1030.02 785.462C979.281 692.32 1035.32 576.92 1139.89 559.193L1327.66 527.365ZM1471.09 773.655C1557.37 665.64 1464.62 508.205 1328.32 531.309L1140.56 563.137C1038.69 580.405 984.107 692.818 1033.53 783.549L1099.36 904.387C1150.84 998.894 1281.99 1010.41 1349.15 926.322L1471.09 773.655Z" fill="#C4C4C4"/>
<path fill-rule="evenodd" clip-rule="evenodd" d="M1327.43 549.124C1455.72 530.935 1538.62 680.793 1455.05 779.806L1340.13 915.959C1275.07 993.039 1152.49 978.923 1106.65 889.072L1049.63 777.299C1005.62 691.035 1059.61 587.096 1155.49 573.503L1327.43 549.124ZM1451.99 777.226C1533.2 681.02 1452.64 535.411 1328 553.084L1156.05 577.463C1062.89 590.671 1010.43 691.663 1053.19 775.481L1110.21 887.254C1154.75 974.558 1273.86 988.273 1337.07 913.379L1451.99 777.226Z" fill="#C4C4C4"/>
<path fill-rule="evenodd" clip-rule="evenodd" d="M1327.22 570.884C1443.88 558.233 1514.46 696.336 1435.87 783.47L1327.97 903.107C1266.79 970.939 1156.26 954.519 1117.44 871.831L1069.23 769.124C1031.96 689.74 1083.92 597.269 1171.11 587.814L1327.22 570.884ZM1432.9 780.791C1509.03 696.385 1440.66 562.606 1327.65 574.861L1171.54 591.79C1087.08 600.949 1036.75 690.525 1072.85 767.424L1121.06 870.131C1158.67 950.231 1265.74 966.137 1325 900.429L1432.9 780.791Z" fill="#C4C4C4"/>
<path fill-rule="evenodd" clip-rule="evenodd" d="M1327.03 592.645C1432.05 585.548 1490.29 711.9 1416.68 787.143L1315.8 890.265C1258.5 948.841 1160.02 930.104 1128.24 854.576L1088.83 760.934C1058.31 688.424 1108.25 607.429 1186.74 602.126L1327.03 592.645ZM1413.82 784.346C1484.86 711.729 1428.65 589.786 1327.3 596.636L1187.01 606.117C1111.26 611.235 1063.06 689.403 1092.51 759.383L1131.92 853.025C1162.6 925.917 1257.64 944 1312.94 887.468L1413.82 784.346Z" fill="#C4C4C4"/>
<path fill-rule="evenodd" clip-rule="evenodd" d="M1326.85 614.409C1420.24 612.885 1466.12 727.493 1397.48 790.828L1303.61 877.436C1250.18 926.742 1163.77 905.67 1139.03 837.3L1108.42 752.724C1084.67 687.086 1132.59 617.579 1202.39 616.44L1326.85 614.409ZM1394.76 787.889C1460.7 727.044 1416.63 616.945 1326.92 618.409L1202.45 620.44C1135.4 621.534 1089.37 688.306 1112.18 751.363L1142.79 835.939C1166.55 901.62 1249.57 921.863 1300.9 874.496L1394.76 787.889Z" fill="#C4C4C4"/>
<path fill-rule="evenodd" clip-rule="evenodd" d="M1326.71 636.18C1408.45 640.256 1441.93 743.125 1378.24 794.529L1291.4 864.622C1241.82 904.638 1167.48 881.208 1149.81 819.994L1128.01 744.482C1111.04 685.713 1156.98 627.714 1218.07 630.761L1326.71 636.18ZM1326.51 640.175L1217.87 634.756C1159.52 631.845 1115.65 687.242 1131.85 743.373L1153.65 818.884C1170.53 877.351 1241.53 899.73 1288.89 861.509L1375.73 791.416C1436.56 742.32 1404.58 644.068 1326.51 640.175Z" fill="#C4C4C4"/>
<path fill-rule="evenodd" clip-rule="evenodd" d="M1356.74 794.925C1412.44 757.539 1392.51 671.139 1326.06 661.926L1233.24 649.057C1183.58 642.171 1141.91 686.222 1151.53 735.428L1164.52 801.873C1174.54 853.126 1233.55 877.608 1276.92 848.503L1356.74 794.925ZM1326.61 657.963C1396.7 667.681 1417.71 758.812 1358.97 798.246L1279.14 851.824C1233.41 882.523 1171.17 856.7 1160.6 802.64L1147.6 736.195C1137.45 684.295 1181.41 637.832 1233.79 645.095L1326.61 657.963Z" fill="#C4C4C4"/>
<path fill-rule="evenodd" clip-rule="evenodd" d="M1186.84 719.391C1190.48 681.266 1230.57 658.061 1265.44 673.893L1326.61 701.659C1373.27 722.842 1369.09 790.445 1320.18 805.724L1254.4 826.271C1216.32 838.163 1178.43 807.416 1182.22 767.705L1186.84 719.391ZM1263.79 677.535C1231.42 662.838 1194.2 684.38 1190.82 719.771L1186.2 768.086C1182.68 804.949 1217.86 833.493 1253.21 822.453L1318.99 801.906C1364.39 787.722 1368.27 724.966 1324.95 705.302L1263.79 677.535Z" fill="#C4C4C4"/>
<path d="M1329.64 353.271L1329.08 351.35L1329.08 351.35L1329.64 353.271ZM1627.42 747.051L1625.73 745.99L1625.73 745.99L1627.42 747.051ZM1449.32 1031.84L1447.63 1030.78L1447.63 1030.78L1449.32 1031.84ZM1009.36 1043.94L1010.99 1042.79L1010.99 1042.79L1009.36 1043.94ZM873.088 850.581L871.453 851.733L871.453 851.733L873.088 850.581ZM1015.27 444.695L1014.71 442.774L1014.71 442.774L1015.27 444.695ZM1624.03 744.93L1622.34 743.869L1622.34 743.869L1624.03 744.93ZM1330.76 357.112L1330.2 355.191L1330.2 355.191L1330.76 357.112ZM1016.39 448.536L1015.83 446.615L1015.83 446.615L1016.39 448.536ZM876.358 848.277L874.723 849.429L874.723 849.429L876.358 848.277ZM1012.63 1041.64L1014.26 1040.49L1014.26 1040.49L1012.63 1041.64ZM1445.93 1029.72L1444.24 1028.66L1444.24 1028.66L1445.93 1029.72ZM1329.38 375.035L1329.92 376.96L1329.92 376.96L1329.38 375.035ZM1608.28 750.68L1609.97 751.755L1609.97 751.755L1608.28 750.68ZM1437.2 1018.95L1438.89 1020.03L1438.89 1020.03L1437.2 1018.95ZM1020.17 1026.75L1018.53 1027.89L1018.53 1027.89L1020.17 1026.75ZM892.71 842.451L894.355 841.313L894.355 841.313L892.71 842.451ZM1030.84 459.008L1030.3 457.083L1030.3 457.083L1030.84 459.008ZM1029.45 461.475L1029.99 463.4L1033.85 462.317L1033.3 460.392L1029.45 461.475ZM1604.91 748.529L1606.59 749.605L1606.59 749.605L1604.91 748.529ZM1330.47 378.886L1331.01 380.811L1331.01 380.811L1330.47 378.886ZM1031.92 462.858L1031.38 460.933L1031.38 460.933L1031.92 462.858ZM896 840.176L897.645 839.038L897.645 839.038L896 840.176ZM1023.46 1024.47L1021.82 1025.61L1021.82 1025.61L1023.46 1024.47ZM1433.83 1016.8L1435.51 1017.88L1435.51 1017.88L1433.83 1016.8ZM1329.13 396.797L1329.65 398.728L1329.65 398.728L1329.13 396.797ZM1589.14 754.311L1590.81 755.403L1590.81 755.403L1589.14 754.311ZM1425.08 1006.07L1426.75 1007.16L1426.75 1007.16L1425.08 1006.07ZM1030.99 1009.55L1032.64 1008.43L1032.64 1008.43L1030.99 1009.55ZM912.329 834.319L910.673 835.441L910.673 835.441L912.329 834.319ZM1046.41 473.322L1045.88 471.392L1045.88 471.392L1046.41 473.322ZM1585.78 752.127L1587.46 753.219L1587.46 753.219L1585.78 752.127ZM1330.17 400.658L1330.69 402.589L1330.69 402.589L1330.17 400.658ZM1047.45 477.183L1046.93 475.253L1046.93 475.253L1047.45 477.183ZM915.641 832.077L913.985 833.198L913.985 833.198L915.641 832.077ZM1034.3 1007.31L1035.96 1006.19L1035.96 1006.19L1034.3 1007.31ZM1421.72 1003.88L1423.4 1004.98L1423.4 1004.98L1421.72 1003.88ZM1328.87 418.561L1329.37 420.497L1329.37 420.497L1328.87 418.561ZM1569.99 757.943L1571.65 759.054L1571.65 759.054L1569.99 757.943ZM1412.95 993.186L1411.28 992.075L1411.28 992.075L1412.95 993.186ZM1041.8 992.352L1043.47 991.249L1043.47 991.249L1041.8 992.352ZM931.948 826.186L930.279 827.289L930.279 827.289L931.948 826.186ZM1061.98 487.636L1062.48 489.572L1062.48 489.572L1061.98 487.636ZM1566.66 755.722L1568.32 756.833L1568.32 756.833L1566.66 755.722ZM1329.87 422.433L1330.37 424.369L1330.37 424.369L1329.87 422.433ZM1062.98 491.508L1063.48 493.445L1063.48 493.445L1062.98 491.508ZM935.284 823.98L933.616 825.083L933.616 825.083L935.284 823.98ZM1045.14 990.146L1046.81 989.043L1046.81 989.043L1045.14 990.146ZM1409.62 990.965L1407.96 989.854L1407.96 989.854L1409.62 990.965ZM1328.62 440.321L1329.1 442.264L1329.1 442.264L1328.62 440.321ZM1550.84 761.577L1552.49 762.709L1552.49 762.709L1550.84 761.577ZM1400.82 980.305L1402.47 981.436L1402.47 981.436L1400.82 980.305ZM1052.62 975.15L1054.3 974.068L1054.3 974.068L1052.62 975.15ZM951.567 818.049L949.885 819.131L949.885 819.131L951.567 818.049ZM1077.55 501.947L1077.07 500.005L1077.07 500.005L1077.55 501.947ZM1547.54 759.315L1549.19 760.446L1549.19 760.446L1547.54 759.315ZM1329.57 444.206L1330.05 446.148L1330.05 446.148L1329.57 444.206ZM1078.5 505.832L1078.03 503.89L1078.03 503.89L1078.5 505.832ZM954.931 815.885L953.249 816.967L953.249 816.967L954.931 815.885ZM1055.98 972.986L1057.66 971.905L1057.66 971.905L1055.98 972.986ZM1397.52 978.042L1399.17 979.173L1399.17 979.173L1397.52 978.042ZM1328.37 462.083L1327.92 460.134L1327.92 460.134L1328.37 462.083ZM1531.69 765.215L1533.32 766.37L1533.32 766.37L1531.69 765.215ZM1388.69 967.428L1390.32 968.582L1390.32 968.582L1388.69 967.428ZM1063.43 957.945L1061.73 959.003L1061.73 959.003L1063.43 957.945ZM971.183 809.909L972.881 808.851L972.881 808.851L971.183 809.909ZM1093.13 516.26L1093.58 518.209L1093.58 518.209L1093.13 516.26ZM1528.43 762.905L1530.06 764.06L1530.06 764.06L1528.43 762.905ZM1329.27 465.981L1328.82 464.032L1328.82 464.032L1329.27 465.981ZM1094.02 520.158L1094.47 522.107L1094.47 522.107L1094.02 520.158ZM974.578 807.794L976.276 806.736L976.276 806.736L974.578 807.794ZM971.823 807.154L970.126 808.212L972.241 811.606L973.939 810.549L971.823 807.154ZM1066.82 955.83L1065.12 956.887L1065.12 956.887L1066.82 955.83ZM1385.42 965.118L1387.06 966.273L1387.06 966.273L1385.42 965.118ZM1328.13 483.843L1327.71 481.887L1327.71 481.887L1328.13 483.843ZM1512.54 768.856L1514.15 770.037L1514.15 770.037L1512.54 768.856ZM1376.56 954.554L1374.94 953.372L1374.94 953.372L1376.56 954.554ZM1074.23 940.736L1072.52 941.765L1072.52 941.765L1074.23 940.736ZM990.797 801.766L992.512 800.736L992.512 800.736L990.797 801.766ZM1108.71 530.571L1109.12 532.528L1109.12 532.528L1108.71 530.571ZM1326.59 486.216L1327 488.172L1330.91 487.339L1330.5 485.383L1326.59 486.216ZM1509.31 766.492L1510.92 767.674L1510.92 767.674L1509.31 766.492ZM1328.96 487.756L1328.54 485.8L1328.54 485.8L1328.96 487.756ZM1109.54 534.484L1109.96 536.44L1109.96 536.44L1109.54 534.484ZM994.226 799.707L995.941 798.677L995.941 798.677L994.226 799.707ZM1077.66 938.677L1075.95 939.706L1075.95 939.706L1077.66 938.677ZM1373.33 952.191L1371.71 951.009L1371.71 951.009L1373.33 952.191ZM1327.89 505.605L1328.27 507.569L1328.27 507.569L1327.89 505.605ZM1493.38 772.501L1494.97 773.713L1494.97 773.713L1493.38 772.501ZM1364.42 941.683L1362.83 940.471L1362.83 940.471L1364.42 941.683ZM1085.04 923.521L1086.78 922.525L1086.78 922.525L1085.04 923.521ZM1010.41 793.616L1012.14 792.62L1012.14 792.62L1010.41 793.616ZM1124.29 544.882L1123.92 542.918L1123.92 542.918L1124.29 544.882ZM1490.2 770.076L1491.79 771.289L1491.79 771.289L1490.2 770.076ZM1328.65 509.532L1329.02 511.496L1329.02 511.496L1328.65 509.532ZM1125.05 548.81L1124.67 546.846L1124.67 546.846L1125.05 548.81ZM1013.88 791.624L1015.61 790.627L1015.61 790.627L1013.88 791.624ZM1088.51 921.529L1090.24 920.532L1090.24 920.532L1088.51 921.529ZM1361.24 939.258L1359.65 938.046L1359.65 938.046L1361.24 939.258ZM1327.66 527.365L1327.99 529.337L1327.99 529.337L1327.66 527.365ZM1474.22 776.151L1475.78 777.399L1475.78 777.399L1474.22 776.151ZM1352.28 928.819L1350.71 927.571L1350.71 927.571L1352.28 928.819ZM1095.84 906.301L1094.09 907.258L1094.09 907.258L1095.84 906.301ZM1030.02 785.462L1031.78 784.506L1031.78 784.506L1030.02 785.462ZM1139.89 559.193L1139.56 557.221L1139.56 557.221L1139.89 559.193ZM1138.25 561.499L1138.59 563.471L1142.53 562.802L1142.2 560.831L1138.25 561.499ZM1471.09 773.655L1472.66 774.903L1472.66 774.903L1471.09 773.655ZM1328.32 531.309L1328.66 533.281L1328.66 533.281L1328.32 531.309ZM1329.96 529.003L1329.63 527.031L1325.68 527.699L1326.02 529.671L1329.96 529.003ZM1140.56 563.137L1140.22 561.165L1140.22 561.165L1140.56 563.137ZM1033.53 783.549L1035.29 782.592L1035.29 782.592L1033.53 783.549ZM1099.36 904.387L1097.6 905.344L1097.6 905.344L1099.36 904.387ZM1349.15 926.322L1347.59 925.074L1347.59 925.074L1349.15 926.322ZM1327.43 549.124L1327.71 551.104L1327.71 551.104L1327.43 549.124ZM1455.05 779.806L1456.58 781.096L1456.58 781.096L1455.05 779.806ZM1340.13 915.959L1341.66 917.249L1341.66 917.249L1340.13 915.959ZM1106.65 889.072L1104.87 889.981L1104.87 889.981L1106.65 889.072ZM1049.63 777.299L1051.41 776.39L1051.41 776.39L1049.63 777.299ZM1155.49 573.503L1155.77 575.483L1155.77 575.483L1155.49 573.503ZM1451.99 777.226L1453.52 778.516L1453.52 778.516L1451.99 777.226ZM1328 553.084L1328.28 555.064L1328.28 555.064L1328 553.084ZM1156.05 577.463L1156.33 579.443L1156.33 579.443L1156.05 577.463ZM1053.19 775.481L1054.97 774.572L1054.97 774.572L1053.19 775.481ZM1050.5 774.608L1048.72 775.517L1050.54 779.08L1052.32 778.171L1050.5 774.608ZM1110.21 887.254L1108.43 888.163L1108.43 888.163L1110.21 887.254ZM1337.07 913.379L1338.6 914.669L1338.6 914.669L1337.07 913.379ZM1327.22 570.884L1327.44 572.872L1327.44 572.872L1327.22 570.884ZM1435.87 783.47L1437.36 784.809L1437.36 784.809L1435.87 783.47ZM1327.97 903.107L1329.46 904.447L1329.46 904.447L1327.97 903.107ZM1117.44 871.831L1115.63 872.681L1115.63 872.681L1117.44 871.831ZM1069.23 769.124L1071.04 768.274L1071.04 768.274L1069.23 769.124ZM1171.11 587.814L1170.89 585.825L1170.89 585.825L1171.11 587.814ZM1169.33 590.018L1169.55 592.006L1173.53 591.575L1173.31 589.586L1169.33 590.018ZM1432.9 780.791L1434.39 782.13L1434.39 782.13L1432.9 780.791ZM1327.65 574.861L1327.87 576.849L1327.87 576.849L1327.65 574.861ZM1171.54 591.79L1171.32 589.802L1171.32 589.802L1171.54 591.79ZM1072.85 767.424L1074.66 766.574L1074.66 766.574L1072.85 767.424ZM1070.19 766.463L1068.38 767.313L1070.08 770.934L1071.89 770.084L1070.19 766.463ZM1121.06 870.131L1119.25 870.981L1119.25 870.981L1121.06 870.131ZM1325 900.429L1326.49 901.768L1326.49 901.768L1325 900.429ZM1327.03 592.645L1327.16 594.641L1327.16 594.641L1327.03 592.645ZM1416.68 787.143L1418.11 788.541L1418.11 788.541L1416.68 787.143ZM1315.8 890.265L1317.23 891.664L1317.23 891.664L1315.8 890.265ZM1128.24 854.576L1126.39 855.352L1126.39 855.352L1128.24 854.576ZM1088.83 760.934L1090.67 760.159L1090.67 760.159L1088.83 760.934ZM1186.74 602.126L1186.87 604.121L1186.87 604.121L1186.74 602.126ZM1413.82 784.346L1415.25 785.744L1415.25 785.744L1413.82 784.346ZM1327.3 596.636L1327.43 598.632L1327.43 598.632L1327.3 596.636ZM1187.01 606.117L1187.14 608.112L1187.14 608.112L1187.01 606.117ZM1188.87 603.986L1188.73 601.991L1184.74 602.261L1184.88 604.256L1188.87 603.986ZM1092.51 759.383L1094.36 758.607L1094.36 758.607L1092.51 759.383ZM1089.89 758.315L1088.05 759.091L1089.6 762.778L1091.45 762.002L1089.89 758.315ZM1131.92 853.025L1130.08 853.8L1130.08 853.8L1131.92 853.025ZM1312.94 887.468L1314.37 888.867L1314.37 888.867L1312.94 887.468ZM1326.85 614.409L1326.89 616.409L1326.89 616.409L1326.85 614.409ZM1397.48 790.828L1396.12 789.358L1396.12 789.358L1397.48 790.828ZM1303.61 877.436L1304.97 878.906L1304.97 878.906L1303.61 877.436ZM1139.03 837.3L1140.91 836.62L1140.91 836.62L1139.03 837.3ZM1108.42 752.724L1106.54 753.404L1106.54 753.404L1108.42 752.724ZM1110.98 753.924L1112.86 753.244L1111.5 749.482L1109.62 750.163L1110.98 753.924ZM1202.39 616.44L1202.36 614.441L1202.36 614.441L1202.39 616.44ZM1394.76 787.889L1393.41 786.419L1393.41 786.419L1394.76 787.889ZM1326.92 618.409L1326.95 620.409L1326.95 620.409L1326.92 618.409ZM1328.89 616.376L1328.85 614.377L1324.85 614.442L1324.89 616.442L1328.89 616.376ZM1202.45 620.44L1202.42 618.44L1202.42 618.44L1202.45 620.44ZM1112.18 751.363L1110.3 752.043L1110.3 752.043L1112.18 751.363ZM1142.79 835.939L1144.67 835.259L1144.67 835.259L1142.79 835.939ZM1300.9 874.496L1302.26 875.966L1302.26 875.966L1300.9 874.496ZM1326.71 636.18L1326.61 638.177L1326.61 638.177L1326.71 636.18ZM1378.24 794.529L1379.5 796.085L1379.5 796.085L1378.24 794.529ZM1291.4 864.622L1292.66 866.178L1292.66 866.178L1291.4 864.622ZM1149.81 819.994L1147.89 820.548L1147.89 820.548L1149.81 819.994ZM1128.01 744.482L1129.93 743.927L1129.93 743.927L1128.01 744.482ZM1218.07 630.761L1218.17 628.763L1218.17 628.763L1218.07 630.761ZM1215.97 632.659L1215.87 634.656L1219.87 634.855L1219.97 632.858L1215.97 632.659ZM1326.51 640.175L1326.41 642.172L1326.41 642.172L1326.51 640.175ZM1328.61 638.277L1328.71 636.279L1324.71 636.08L1324.61 638.078L1328.61 638.277ZM1217.87 634.756L1217.97 632.758L1217.97 632.758L1217.87 634.756ZM1131.85 743.373L1133.78 742.818L1133.78 742.818L1131.85 743.373ZM1129.38 742.006L1127.46 742.561L1128.57 746.404L1130.49 745.849L1129.38 742.006ZM1153.65 818.884L1151.73 819.439L1151.73 819.439L1153.65 818.884ZM1288.89 861.509L1290.14 863.065L1290.14 863.065L1288.89 861.509ZM1375.73 791.416L1376.99 792.972L1376.99 792.972L1375.73 791.416ZM1356.74 794.925L1357.85 796.586L1357.85 796.586L1356.74 794.925ZM1326.06 661.926L1325.78 663.907L1325.78 663.907L1326.06 661.926ZM1233.24 649.057L1233.52 647.076L1233.52 647.076L1233.24 649.057ZM1151.53 735.428L1149.56 735.812L1149.56 735.812L1151.53 735.428ZM1164.52 801.873L1166.48 801.489L1166.48 801.489L1164.52 801.873ZM1162.18 800.294L1160.21 800.678L1160.98 804.603L1162.94 804.219L1162.18 800.294ZM1276.92 848.503L1278.03 850.163L1278.03 850.163L1276.92 848.503ZM1326.61 657.963L1326.33 659.945L1326.33 659.945L1326.61 657.963ZM1358.97 798.246L1360.08 799.907L1360.08 799.907L1358.97 798.246ZM1279.14 851.824L1280.26 853.484L1280.26 853.484L1279.14 851.824ZM1160.6 802.64L1162.56 802.257L1162.56 802.257L1160.6 802.64ZM1147.6 736.195L1145.64 736.579L1145.64 736.579L1147.6 736.195ZM1149.95 737.774L1151.91 737.391L1151.14 733.465L1149.18 733.849L1149.95 737.774ZM1233.79 645.095L1234.07 643.114L1234.07 643.114L1233.79 645.095ZM1231.54 646.801L1231.26 648.782L1235.23 649.331L1235.5 647.35L1231.54 646.801ZM1186.84 719.391L1184.85 719.2L1184.85 719.2L1186.84 719.391ZM1265.44 673.893L1264.62 675.714L1264.62 675.714L1265.44 673.893ZM1326.61 701.659L1327.44 699.838L1327.43 699.838L1326.61 701.659ZM1320.18 805.724L1320.78 807.633L1320.78 807.633L1320.18 805.724ZM1254.4 826.271L1254.99 828.18L1254.99 828.18L1254.4 826.271ZM1182.22 767.705L1180.23 767.515L1180.23 767.515L1182.22 767.705ZM1263.79 677.535L1262.96 679.356L1262.96 679.356L1263.79 677.535ZM1190.82 719.771L1188.83 719.581L1188.83 719.581L1190.82 719.771ZM1186.2 768.086L1184.21 767.895L1184.21 767.895L1186.2 768.086ZM1253.21 822.453L1253.8 824.362L1253.8 824.362L1253.21 822.453ZM1318.99 801.906L1319.58 803.815L1319.58 803.815L1318.99 801.906ZM1324.95 705.302L1325.78 703.481L1325.78 703.481L1324.95 705.302ZM1330.2 355.191C1561.43 287.947 1753.41 541.821 1625.73 745.99L1629.12 748.111C1758.75 540.828 1563.84 283.08 1329.08 351.35L1330.2 355.191ZM1625.73 745.99L1447.63 1030.78L1451.02 1032.9L1629.12 748.111L1625.73 745.99ZM1447.63 1030.78C1348.23 1189.72 1118.98 1196.03 1010.99 1042.79L1007.72 1045.1C1117.36 1200.67 1350.1 1194.27 1451.02 1032.9L1447.63 1030.78ZM1010.99 1042.79L874.723 849.429L871.453 851.733L1007.72 1045.1L1010.99 1042.79ZM874.723 849.429C771.046 702.314 843.013 496.874 1015.83 446.615L1014.71 442.774C839.26 493.8 766.195 702.374 871.453 851.733L874.723 849.429ZM1015.83 446.615L1330.2 355.191L1329.08 351.35L1014.71 442.774L1015.83 446.615ZM1625.73 745.99C1753.41 541.821 1561.43 287.947 1330.2 355.191L1331.32 359.032C1559.02 292.814 1748.07 542.815 1622.34 743.869L1625.73 745.99ZM1330.2 355.191L1015.83 446.615L1016.95 450.456L1331.32 359.032L1330.2 355.191ZM1015.83 446.615C843.013 496.874 771.046 702.314 874.723 849.429L877.992 847.125C775.898 702.255 846.767 499.948 1016.95 450.456L1015.83 446.615ZM874.723 849.429L1010.99 1042.79L1014.26 1040.49L877.992 847.125L874.723 849.429ZM1010.99 1042.79C1118.98 1196.03 1348.23 1189.72 1447.63 1030.78L1444.24 1028.66C1346.35 1185.18 1120.6 1191.39 1014.26 1040.49L1010.99 1042.79ZM1447.63 1030.78L1625.73 745.99L1622.34 743.869L1444.24 1028.66L1447.63 1030.78ZM1329.92 376.96C1549.51 315.195 1729.24 557.277 1606.59 749.605L1609.97 751.755C1734.59 556.33 1551.96 310.35 1328.84 373.11L1329.92 376.96ZM1606.59 749.605L1435.51 1017.88L1438.89 1020.03L1609.97 751.755L1606.59 749.605ZM1435.51 1017.88C1340.03 1167.6 1122.83 1171.66 1021.82 1025.61L1018.53 1027.89C1121.17 1176.29 1341.86 1172.16 1438.89 1020.03L1435.51 1017.88ZM1021.82 1025.61L894.355 841.313L891.065 843.589L1018.53 1027.89L1021.82 1025.61ZM894.355 841.313C797.377 701.097 867.262 507.097 1031.38 460.933L1030.3 457.083C863.536 503.989 792.526 701.114 891.065 843.589L894.355 841.313ZM1028.91 459.549L1029.45 461.475L1033.3 460.392L1032.76 458.466L1028.91 459.549ZM1031.38 460.933L1329.92 376.96L1328.84 373.11L1030.3 457.083L1031.38 460.933ZM1606.59 749.605C1729.24 557.277 1549.51 315.195 1329.92 376.96L1331.01 380.811C1547.06 320.04 1723.9 558.223 1603.22 747.454L1606.59 749.605ZM1329.92 376.96L1031.38 460.933L1032.46 464.784L1331.01 380.811L1329.92 376.96ZM1031.38 460.933C867.262 507.097 797.377 701.097 894.355 841.313L897.645 839.038C802.229 701.08 870.988 510.204 1032.46 464.784L1031.38 460.933ZM894.355 841.313L1021.82 1025.61L1025.11 1023.34L897.645 839.038L894.355 841.313ZM1021.82 1025.61C1122.83 1171.66 1340.03 1167.6 1435.51 1017.88L1432.14 1015.73C1338.19 1163.04 1124.49 1167.04 1025.11 1023.34L1021.82 1025.61ZM1435.51 1017.88L1606.59 749.605L1603.22 747.454L1432.14 1015.73L1435.51 1017.88ZM1329.65 398.728C1537.59 342.441 1705.08 572.73 1587.46 753.219L1590.81 755.403C1710.43 571.836 1540.1 337.62 1328.6 394.867L1329.65 398.728ZM1587.46 753.219L1423.4 1004.98L1426.75 1007.16L1590.81 755.403L1587.46 753.219ZM1423.4 1004.98C1331.83 1145.48 1126.68 1147.3 1032.64 1008.43L1029.33 1010.67C1124.97 1151.91 1333.62 1150.06 1426.75 1007.16L1423.4 1004.98ZM1032.64 1008.43L913.985 833.198L910.673 835.441L1029.33 1010.67L1032.64 1008.43ZM913.985 833.198C823.709 699.879 891.511 517.322 1046.93 475.253L1045.88 471.392C887.816 514.178 818.857 699.848 910.673 835.441L913.985 833.198ZM1046.93 475.253L1329.65 398.728L1328.6 394.867L1045.88 471.392L1046.93 475.253ZM1587.46 753.219C1705.08 572.73 1537.59 342.441 1329.65 398.728L1330.69 402.589C1535.09 347.262 1699.72 573.624 1584.11 751.035L1587.46 753.219ZM1329.65 398.728L1046.93 475.253L1047.97 479.114L1330.69 402.589L1329.65 398.728ZM1046.93 475.253C891.511 517.322 823.709 699.879 913.985 833.198L917.297 830.955C828.56 699.909 895.206 520.465 1047.97 479.114L1046.93 475.253ZM913.985 833.198L1032.64 1008.43L1035.96 1006.19L917.297 830.955L913.985 833.198ZM1032.64 1008.43C1126.68 1147.3 1331.83 1145.48 1423.4 1004.98L1420.05 1002.79C1330.04 1140.9 1128.39 1142.69 1035.96 1006.19L1032.64 1008.43ZM1423.4 1004.98L1587.46 753.219L1584.11 751.035L1420.05 1002.79L1423.4 1004.98ZM1329.37 420.497C1525.68 369.689 1680.91 588.184 1568.32 756.833L1571.65 759.054C1686.28 587.349 1528.23 364.897 1328.37 416.624L1329.37 420.497ZM1568.32 756.833L1411.28 992.075L1414.61 994.296L1571.65 759.054L1568.32 756.833ZM1411.28 992.075C1323.64 1123.37 1130.53 1122.93 1043.47 991.249L1040.13 993.455C1128.77 1127.53 1325.38 1127.97 1414.61 994.296L1411.28 992.075ZM1043.47 991.249L933.616 825.083L930.279 827.289L1040.13 993.455L1043.47 991.249ZM933.616 825.083C850.038 698.66 915.759 527.544 1062.48 489.572L1061.47 485.7C912.099 524.36 845.187 698.575 930.279 827.289L933.616 825.083ZM1062.48 489.572L1329.37 420.497L1328.37 416.624L1061.47 485.7L1062.48 489.572ZM1568.32 756.833C1680.91 588.184 1525.68 369.689 1329.37 420.497L1330.37 424.369C1523.12 374.482 1675.54 589.018 1565 754.612L1568.32 756.833ZM1329.37 420.497L1062.48 489.572L1063.48 493.445L1330.37 424.369L1329.37 420.497ZM1062.48 489.572C915.759 527.544 850.038 698.66 933.616 825.083L936.953 822.877C854.889 698.744 919.419 530.729 1063.48 493.445L1062.48 489.572ZM933.616 825.083L1043.47 991.249L1046.81 989.043L936.953 822.877L933.616 825.083ZM1043.47 991.249C1130.53 1122.93 1323.64 1123.37 1411.28 992.075L1407.96 989.854C1321.9 1118.77 1132.29 1118.34 1046.81 989.043L1043.47 991.249ZM1411.28 992.075L1568.32 756.833L1565 754.612L1407.96 989.854L1411.28 992.075ZM1329.1 442.264C1513.76 396.935 1656.74 603.637 1549.19 760.446L1552.49 762.709C1662.12 602.871 1516.38 392.175 1328.14 438.379L1329.1 442.264ZM1549.19 760.446L1399.17 979.173L1402.47 981.436L1552.49 762.709L1549.19 760.446ZM1399.17 979.173C1315.44 1101.25 1134.37 1098.57 1054.3 974.068L1050.93 976.232C1132.56 1103.14 1317.12 1105.87 1402.47 981.436L1399.17 979.173ZM1054.3 974.068L953.249 816.967L949.885 819.131L1050.93 976.232L1054.3 974.068ZM953.249 816.967C876.371 697.441 940.009 537.767 1078.03 503.89L1077.07 500.005C936.389 534.537 871.521 697.295 949.885 819.131L953.249 816.967ZM1078.03 503.89L1329.1 442.264L1328.14 438.379L1077.07 500.005L1078.03 503.89ZM1549.19 760.446C1656.74 603.637 1513.76 396.935 1329.1 442.264L1330.05 446.148C1511.15 401.696 1651.37 604.404 1545.89 758.184L1549.19 760.446ZM1329.1 442.264L1078.03 503.89L1078.98 507.774L1330.05 446.148L1329.1 442.264ZM1078.03 503.89C940.009 537.767 876.371 697.441 953.249 816.967L956.613 814.803C881.22 697.586 943.629 540.997 1078.98 507.774L1078.03 503.89ZM953.249 816.967L1054.3 974.068L1057.66 971.905L956.613 814.803L953.249 816.967ZM1054.3 974.068C1134.37 1098.57 1315.44 1101.25 1399.17 979.173L1395.87 976.911C1313.76 1096.63 1136.19 1094 1057.66 971.905L1054.3 974.068ZM1399.17 979.173L1549.19 760.446L1545.89 758.184L1395.87 976.911L1399.17 979.173ZM1328.82 464.032C1501.85 424.184 1632.58 619.092 1530.06 764.06L1533.32 766.37C1637.96 618.402 1504.53 419.462 1327.92 460.134L1328.82 464.032ZM1530.06 764.06L1387.06 966.273L1390.32 968.582L1533.32 766.37L1530.06 764.06ZM1387.06 966.273C1307.25 1079.13 1138.22 1074.2 1065.12 956.887L1061.73 959.003C1136.34 1078.74 1308.86 1083.77 1390.32 968.582L1387.06 966.273ZM1065.12 956.887L972.881 808.851L969.486 810.967L1061.73 959.003L1065.12 956.887ZM972.881 808.851C902.7 696.224 964.258 547.991 1093.58 518.209L1092.68 514.311C960.685 544.709 897.853 696.009 969.486 810.967L972.881 808.851ZM1093.58 518.209L1328.82 464.032L1327.92 460.134L1092.68 514.311L1093.58 518.209ZM1530.06 764.06C1632.58 619.092 1501.85 424.184 1328.82 464.032L1329.72 467.93C1499.16 428.906 1627.19 619.781 1526.79 761.751L1530.06 764.06ZM1328.82 464.032L1093.58 518.209L1094.47 522.107L1329.72 467.93L1328.82 464.032ZM1093.58 518.209C964.258 547.991 902.7 696.224 972.881 808.851L976.276 806.736C907.547 696.439 967.831 551.273 1094.47 522.107L1093.58 518.209ZM973.521 806.096L971.823 807.154L973.939 810.549L975.636 809.491L973.521 806.096ZM972.881 808.851L1065.12 956.887L1068.52 954.772L976.276 806.736L972.881 808.851ZM1065.12 956.887C1138.22 1074.2 1307.25 1079.13 1387.06 966.273L1383.79 963.963C1305.63 1074.49 1140.11 1069.66 1068.52 954.772L1065.12 956.887ZM1387.06 966.273L1530.06 764.06L1526.79 761.751L1383.79 963.963L1387.06 966.273ZM1328.54 485.8C1489.93 451.431 1608.41 634.545 1510.92 767.674L1514.15 770.037C1613.81 633.944 1492.69 446.753 1327.71 481.887L1328.54 485.8ZM1510.92 767.674L1374.94 953.372L1378.17 955.735L1514.15 770.037L1510.92 767.674ZM1374.94 953.372C1299.05 1057.01 1142.07 1049.84 1075.95 939.706L1072.52 941.765C1140.11 1054.35 1300.59 1061.68 1378.17 955.735L1374.94 953.372ZM1075.95 939.706L992.512 800.736L989.082 802.795L1072.52 941.765L1075.95 939.706ZM992.512 800.736C929.032 695.005 988.506 558.215 1109.12 532.528L1108.29 528.615C984.987 554.874 924.189 694.71 989.082 802.795L992.512 800.736ZM1109.12 532.528L1328.54 485.8L1327.71 481.887L1108.29 528.615L1109.12 532.528ZM1326.17 484.26L1326.59 486.216L1330.5 485.383L1330.08 483.427L1326.17 484.26ZM1510.92 767.674C1608.41 634.545 1489.93 451.431 1328.54 485.8L1329.38 489.712C1487.17 456.108 1603.01 635.145 1507.7 765.311L1510.92 767.674ZM1328.54 485.8L1109.12 532.528L1109.96 536.44L1329.38 489.712L1328.54 485.8ZM1109.12 532.528C988.506 558.215 929.032 695.005 992.512 800.736L995.941 798.677C933.874 695.3 992.024 561.555 1109.96 536.44L1109.12 532.528ZM992.512 800.736L1075.95 939.706L1079.38 937.647L995.941 798.677L992.512 800.736ZM1075.95 939.706C1142.07 1049.84 1299.05 1057.01 1374.94 953.372L1371.71 951.009C1297.51 1052.34 1144.03 1045.33 1079.38 937.647L1075.95 939.706ZM1374.94 953.372L1510.92 767.674L1507.7 765.311L1371.71 951.009L1374.94 953.372ZM1328.27 507.569C1478.01 478.679 1584.24 650 1491.79 771.289L1494.97 773.713C1589.65 649.503 1480.86 474.055 1327.51 503.641L1328.27 507.569ZM1491.79 771.289L1362.83 940.471L1366.01 942.896L1494.97 773.713L1491.79 771.289ZM1362.83 940.471C1290.85 1034.89 1145.92 1025.47 1086.78 922.525L1083.31 924.518C1143.88 1029.94 1292.3 1039.59 1366.01 942.896L1362.83 940.471ZM1086.78 922.525L1012.14 792.62L1008.67 794.613L1083.31 924.518L1086.78 922.525ZM1012.14 792.62C955.362 693.787 1012.76 568.439 1124.67 546.846L1123.92 542.918C1009.3 565.031 950.526 693.398 1008.67 794.613L1012.14 792.62ZM1124.67 546.846L1328.27 507.569L1327.51 503.641L1123.92 542.918L1124.67 546.846ZM1491.79 771.289C1584.24 650 1478.01 478.679 1328.27 507.569L1329.02 511.496C1475.16 483.302 1578.83 650.496 1488.61 768.864L1491.79 771.289ZM1328.27 507.569L1124.67 546.846L1125.43 550.773L1329.02 511.496L1328.27 507.569ZM1124.67 546.846C1012.76 568.439 955.362 693.787 1012.14 792.62L1015.61 790.627C960.198 694.175 1016.21 571.846 1125.43 550.773L1124.67 546.846ZM1012.14 792.62L1086.78 922.525L1090.24 920.532L1015.61 790.627L1012.14 792.62ZM1086.78 922.525C1145.92 1025.47 1290.85 1034.89 1362.83 940.471L1359.65 938.046C1289.41 1030.19 1147.96 1021 1090.24 920.532L1086.78 922.525ZM1362.83 940.471L1491.79 771.289L1488.61 768.864L1359.65 938.046L1362.83 940.471ZM1327.99 529.337C1466.1 505.926 1560.08 665.453 1472.66 774.903L1475.78 777.399C1565.49 665.079 1469.05 501.368 1327.32 525.393L1327.99 529.337ZM1472.66 774.903L1350.71 927.571L1353.84 930.067L1475.78 777.399L1472.66 774.903ZM1350.71 927.571C1282.66 1012.78 1149.77 1001.11 1097.6 905.344L1094.09 907.258C1147.62 1005.53 1284 1017.51 1353.84 930.067L1350.71 927.571ZM1097.6 905.344L1031.78 784.506L1028.26 786.419L1094.09 907.258L1097.6 905.344ZM1031.78 784.506C981.694 692.569 1037 578.662 1140.22 561.165L1139.56 557.221C1033.63 575.178 976.868 692.071 1028.26 786.419L1031.78 784.506ZM1137.92 559.527L1138.25 561.499L1142.2 560.831L1141.86 558.859L1137.92 559.527ZM1140.22 561.165L1327.99 529.337L1327.32 525.393L1139.56 557.221L1140.22 561.165ZM1472.66 774.903C1560.08 665.453 1466.1 505.926 1327.99 529.337L1328.66 533.281C1463.14 510.484 1554.66 665.827 1469.53 772.406L1472.66 774.903ZM1330.3 530.974L1329.96 529.003L1326.02 529.671L1326.35 531.643L1330.3 530.974ZM1327.99 529.337L1140.22 561.165L1140.89 565.109L1328.66 533.281L1327.99 529.337ZM1140.22 561.165C1037 578.662 981.694 692.569 1031.78 784.506L1035.29 782.592C986.52 693.066 1040.38 582.147 1140.89 565.109L1140.22 561.165ZM1031.78 784.506L1097.6 905.344L1101.11 903.431L1035.29 782.592L1031.78 784.506ZM1097.6 905.344C1149.77 1001.11 1282.66 1012.78 1350.71 927.571L1347.59 925.074C1281.32 1008.04 1151.91 996.682 1101.11 903.431L1097.6 905.344ZM1350.71 927.571L1472.66 774.903L1469.53 772.406L1347.59 925.074L1350.71 927.571ZM1327.71 551.104C1454.18 533.173 1535.91 680.906 1453.52 778.516L1456.58 781.096C1541.34 680.679 1457.26 528.696 1327.15 547.144L1327.71 551.104ZM1453.52 778.516L1338.6 914.669L1341.66 917.249L1456.58 781.096L1453.52 778.516ZM1338.6 914.669C1274.46 990.656 1153.62 976.741 1108.43 888.163L1104.87 889.981C1151.35 981.106 1275.67 995.421 1341.66 917.249L1338.6 914.669ZM1108.43 888.163L1051.41 776.39L1047.84 778.208L1104.87 889.981L1108.43 888.163ZM1051.41 776.39C1008.02 691.349 1061.25 588.884 1155.77 575.483L1155.21 571.523C1057.97 585.309 1003.21 690.722 1047.84 778.208L1051.41 776.39ZM1155.77 575.483L1327.71 551.104L1327.15 547.144L1155.21 571.523L1155.77 575.483ZM1453.52 778.516C1535.91 680.906 1454.18 533.173 1327.71 551.104L1328.28 555.064C1451.11 537.649 1530.48 681.133 1450.47 775.936L1453.52 778.516ZM1327.71 551.104L1155.77 575.483L1156.33 579.443L1328.28 555.064L1327.71 551.104ZM1155.77 575.483C1061.25 588.884 1008.02 691.349 1051.41 776.39L1054.97 774.572C1012.83 691.977 1064.53 592.459 1156.33 579.443L1155.77 575.483ZM1052.28 773.699L1050.5 774.608L1052.32 778.171L1054.1 777.262L1052.28 773.699ZM1051.41 776.39L1108.43 888.163L1111.99 886.345L1054.97 774.572L1051.41 776.39ZM1108.43 888.163C1153.62 976.741 1274.46 990.656 1338.6 914.669L1335.54 912.089C1273.25 985.891 1155.88 972.375 1111.99 886.345L1108.43 888.163ZM1338.6 914.669L1453.52 778.516L1450.47 775.936L1335.54 912.089L1338.6 914.669ZM1327.44 572.872C1442.27 560.42 1511.74 696.361 1434.39 782.13L1437.36 784.809C1517.17 696.312 1445.49 556.047 1327.01 568.896L1327.44 572.872ZM1434.39 782.13L1326.49 901.768L1329.46 904.447L1437.36 784.809L1434.39 782.13ZM1326.49 901.768C1266.27 968.538 1157.46 952.375 1119.25 870.981L1115.63 872.681C1155.06 956.663 1267.32 973.341 1329.46 904.447L1326.49 901.768ZM1119.25 870.981L1071.04 768.274L1067.42 769.973L1115.63 872.681L1119.25 870.981ZM1071.04 768.274C1034.36 690.133 1085.5 599.109 1171.32 589.802L1170.89 585.825C1082.34 595.428 1029.57 689.347 1067.42 769.974L1071.04 768.274ZM1169.12 588.029L1169.33 590.018L1173.31 589.586L1173.1 587.598L1169.12 588.029ZM1171.32 589.802L1327.44 572.872L1327.01 568.896L1170.89 585.825L1171.32 589.802ZM1434.39 782.13C1511.74 696.361 1442.27 560.42 1327.44 572.872L1327.87 576.849C1439.04 564.792 1506.31 696.41 1431.42 779.451L1434.39 782.13ZM1327.44 572.872L1171.32 589.802L1171.75 593.779L1327.87 576.849L1327.44 572.872ZM1171.32 589.802C1085.5 599.109 1034.36 690.133 1071.04 768.274L1074.66 766.574C1039.14 690.918 1088.66 602.79 1171.75 593.779L1171.32 589.802ZM1072 765.613L1070.19 766.463L1071.89 770.084L1073.7 769.234L1072 765.613ZM1071.04 768.274L1119.25 870.981L1122.87 869.281L1074.66 766.574L1071.04 768.274ZM1119.25 870.981C1157.46 952.375 1266.27 968.538 1326.49 901.768L1323.52 899.089C1265.21 963.735 1159.87 948.086 1122.87 869.281L1119.25 870.981ZM1326.49 901.768L1434.39 782.13L1431.42 779.451L1323.52 899.089L1326.49 901.768ZM1327.16 594.641C1430.35 587.667 1487.57 711.815 1415.25 785.744L1418.11 788.541C1493 711.986 1433.74 583.428 1326.89 590.65L1327.16 594.641ZM1415.25 785.744L1314.37 888.867L1317.23 891.664L1418.11 788.541L1415.25 785.744ZM1314.37 888.867C1258.07 946.42 1161.31 928.01 1130.08 853.8L1126.39 855.352C1158.73 932.198 1258.93 951.262 1317.23 891.664L1314.37 888.867ZM1130.08 853.8L1090.67 760.159L1086.98 761.71L1126.39 855.352L1130.08 853.8ZM1090.67 760.159C1060.69 688.914 1109.75 609.332 1186.87 604.121L1186.6 600.13C1106.74 605.526 1055.93 687.935 1086.98 761.71L1090.67 760.159ZM1186.87 604.121L1327.16 594.641L1326.89 590.65L1186.6 600.13L1186.87 604.121ZM1415.25 785.744C1487.58 711.815 1430.35 587.667 1327.16 594.641L1327.43 598.632C1426.95 591.906 1482.15 711.643 1412.39 782.947L1415.25 785.744ZM1327.16 594.641L1186.87 604.121L1187.14 608.112L1327.43 598.632L1327.16 594.641ZM1189 605.982L1188.87 603.986L1184.88 604.256L1185.01 606.251L1189 605.982ZM1186.87 604.121C1109.75 609.332 1060.69 688.914 1090.67 760.159L1094.36 758.607C1065.44 689.893 1112.76 613.138 1187.14 608.112L1186.87 604.121ZM1091.74 757.539L1089.89 758.315L1091.45 762.002L1093.29 761.226L1091.74 757.539ZM1090.67 760.159L1130.08 853.8L1133.77 852.249L1094.36 758.607L1090.67 760.159ZM1130.08 853.8C1161.31 928.01 1258.07 946.42 1314.37 888.867L1311.51 886.069C1257.21 941.579 1163.89 923.823 1133.77 852.249L1130.08 853.8ZM1314.37 888.867L1415.25 785.744L1412.39 782.947L1311.51 886.069L1314.37 888.867ZM1326.89 616.409C1418.43 614.915 1463.41 727.269 1396.12 789.358L1398.83 792.298C1468.82 727.717 1422.04 610.855 1326.82 612.41L1326.89 616.409ZM1396.12 789.358L1302.26 875.966L1304.97 878.906L1398.83 792.298L1396.12 789.358ZM1302.26 875.966C1249.87 924.303 1165.16 903.645 1140.91 836.62L1137.15 837.981C1162.37 907.695 1250.48 929.182 1304.97 878.906L1302.26 875.966ZM1140.91 836.62L1110.3 752.043L1106.54 753.404L1137.15 837.981L1140.91 836.62ZM1109.1 754.605L1110.98 753.924L1109.62 750.163L1107.74 750.843L1109.1 754.605ZM1110.3 752.043C1087.02 687.696 1134 619.557 1202.42 618.44L1202.36 614.441C1131.19 615.602 1082.32 686.475 1106.54 753.404L1110.3 752.043ZM1202.42 618.44L1326.89 616.409L1326.82 612.41L1202.36 614.441L1202.42 618.44ZM1396.12 789.358C1463.41 727.269 1418.43 614.915 1326.89 616.409L1326.95 620.409C1414.83 618.974 1458 726.82 1393.41 786.419L1396.12 789.358ZM1328.92 618.376L1328.89 616.376L1324.89 616.442L1324.92 618.442L1328.92 618.376ZM1326.89 616.409L1202.42 618.44L1202.49 622.439L1326.95 620.409L1326.89 616.409ZM1202.42 618.44C1134 619.557 1087.02 687.696 1110.3 752.043L1114.06 750.682C1091.71 688.917 1136.81 623.511 1202.49 622.439L1202.42 618.44ZM1110.3 752.043L1140.91 836.62L1144.67 835.259L1114.06 750.682L1110.3 752.043ZM1140.91 836.62C1165.16 903.645 1249.87 924.303 1302.26 875.966L1299.55 873.027C1249.26 919.424 1167.95 899.595 1144.67 835.259L1140.91 836.62ZM1302.26 875.966L1396.12 789.358L1393.41 786.419L1299.55 873.027L1302.26 875.966ZM1326.61 638.177C1406.52 642.162 1439.24 742.722 1376.99 792.972L1379.5 796.085C1444.61 743.528 1410.39 638.35 1326.81 634.182L1326.61 638.177ZM1376.99 792.972L1290.14 863.065L1292.66 866.178L1379.5 796.085L1376.99 792.972ZM1290.14 863.065C1241.68 902.184 1169.01 879.279 1151.73 819.439L1147.89 820.548C1165.96 883.136 1241.96 907.093 1292.66 866.178L1290.14 863.065ZM1151.73 819.439L1129.93 743.927L1126.09 745.037L1147.89 820.548L1151.73 819.439ZM1129.93 743.927C1113.35 686.478 1158.25 629.779 1217.97 632.758L1218.17 628.763C1155.7 625.648 1108.74 684.949 1126.09 745.037L1129.93 743.927ZM1216.07 630.661L1215.97 632.659L1219.97 632.858L1220.07 630.86L1216.07 630.661ZM1217.97 632.758L1326.61 638.177L1326.81 634.182L1218.17 628.763L1217.97 632.758ZM1328.51 640.274L1328.61 638.277L1324.61 638.078L1324.51 640.075L1328.51 640.274ZM1326.61 638.177L1217.97 632.758L1217.77 636.753L1326.41 642.172L1326.61 638.177ZM1217.97 632.758C1158.25 629.779 1113.35 686.478 1129.93 743.927L1133.78 742.818C1117.95 688.006 1160.79 633.911 1217.77 636.753L1217.97 632.758ZM1131.3 741.451L1129.38 742.006L1130.49 745.849L1132.41 745.294L1131.3 741.451ZM1129.93 743.927L1151.73 819.439L1155.58 818.329L1133.78 742.818L1129.93 743.927ZM1151.73 819.439C1169.01 879.279 1241.68 902.184 1290.14 863.065L1287.63 859.953C1241.39 897.275 1172.06 875.422 1155.58 818.329L1151.73 819.439ZM1290.14 863.065L1376.99 792.972L1374.47 789.86L1287.63 859.953L1290.14 863.065ZM1376.99 792.972C1439.24 742.722 1406.52 642.162 1326.61 638.177L1326.41 642.172C1402.65 645.974 1433.87 741.917 1374.47 789.86L1376.99 792.972ZM1357.85 796.586C1415.08 758.176 1394.6 669.41 1326.33 659.945L1325.78 663.907C1390.41 672.867 1409.8 756.902 1355.62 793.264L1357.85 796.586ZM1326.33 659.945L1233.52 647.076L1232.97 651.038L1325.78 663.907L1326.33 659.945ZM1233.52 647.076C1182.5 640.002 1139.68 685.259 1149.56 735.812L1153.49 735.044C1144.13 687.186 1184.67 644.341 1232.97 651.038L1233.52 647.076ZM1149.56 735.812L1162.56 802.257L1166.48 801.489L1153.49 735.044L1149.56 735.812ZM1164.14 799.91L1162.18 800.294L1162.94 804.219L1164.91 803.836L1164.14 799.91ZM1162.56 802.257C1172.86 854.913 1233.48 880.065 1278.03 850.163L1275.8 846.842C1233.63 875.15 1176.23 851.339 1166.48 801.489L1162.56 802.257ZM1278.03 850.163L1357.85 796.586L1355.62 793.264L1275.8 846.842L1278.03 850.163ZM1326.33 659.945C1394.6 669.41 1415.08 758.176 1357.85 796.586L1360.08 799.907C1420.35 759.449 1398.79 665.952 1326.88 655.982L1326.33 659.945ZM1357.85 796.586L1278.03 850.163L1280.26 853.484L1360.08 799.907L1357.85 796.586ZM1278.03 850.163C1233.48 880.065 1172.86 854.913 1162.56 802.257L1158.63 803.024C1169.48 858.487 1233.34 884.981 1280.26 853.484L1278.03 850.163ZM1162.56 802.257L1149.56 735.812L1145.64 736.579L1158.63 803.024L1162.56 802.257ZM1147.99 738.158L1149.95 737.774L1149.18 733.849L1147.22 734.233L1147.99 738.158ZM1149.56 735.812C1139.68 685.259 1182.5 640.002 1233.52 647.076L1234.07 643.114C1180.33 635.663 1135.23 683.332 1145.64 736.579L1149.56 735.812ZM1231.81 644.82L1231.54 646.801L1235.5 647.35L1235.78 645.369L1231.81 644.82ZM1233.52 647.076L1326.33 659.945L1326.88 655.982L1234.07 643.114L1233.52 647.076ZM1188.83 719.581C1192.34 682.823 1230.99 660.449 1264.62 675.714L1266.27 672.072C1230.15 655.672 1188.62 679.71 1184.85 719.2L1188.83 719.581ZM1264.62 675.714L1325.78 703.481L1327.43 699.838L1266.27 672.072L1264.62 675.714ZM1325.78 703.481C1370.77 723.904 1366.74 789.084 1319.58 803.815L1320.78 807.633C1371.44 791.806 1375.77 721.78 1327.44 699.838L1325.78 703.481ZM1319.58 803.815L1253.8 824.362L1254.99 828.18L1320.78 807.633L1319.58 803.815ZM1253.8 824.362C1217.09 835.828 1180.55 806.182 1184.21 767.895L1180.23 767.515C1176.3 808.649 1215.55 840.499 1254.99 828.18L1253.8 824.362ZM1184.21 767.895L1188.83 719.581L1184.85 719.2L1180.23 767.515L1184.21 767.895ZM1264.62 675.714C1230.99 660.449 1192.34 682.823 1188.83 719.581L1192.81 719.962C1196.06 685.937 1231.84 665.227 1262.96 679.356L1264.62 675.714ZM1188.83 719.581L1184.21 767.895L1188.19 768.276L1192.81 719.962L1188.83 719.581ZM1184.21 767.895C1180.55 806.182 1217.09 835.828 1253.8 824.362L1252.61 820.544C1218.63 831.157 1184.81 803.716 1188.19 768.276L1184.21 767.895ZM1253.8 824.362L1319.58 803.815L1318.39 799.996L1252.61 820.544L1253.8 824.362ZM1319.58 803.815C1366.74 789.084 1370.77 723.904 1325.78 703.481L1324.13 707.123C1365.77 726.028 1362.04 786.361 1318.39 799.996L1319.58 803.815ZM1325.78 703.481L1264.62 675.714L1262.96 679.356L1324.13 707.123L1325.78 703.481Z" fill="#08AAA2"/>
</g>
</g>
<defs>
<clipPath id="clip0">
<rect width="1440" height="602" fill="white"/>
</clipPath>
</defs>
</svg>
