<svg width="320" height="602" viewBox="0 0 320 602" fill="none" xmlns="http://www.w3.org/2000/svg">
<g clip-path="url(#clip0)">
<rect width="320" height="602" fill="white" fill-opacity="0"/>
<g opacity="0.300003">
<path fill-rule="evenodd" clip-rule="evenodd" d="M264.96 472.149C372.912 440.76 462.543 559.267 402.932 654.572L320.412 786.502C274.005 860.696 166.978 863.641 116.561 792.111L53.4228 702.533C5.0197 633.861 38.6187 537.963 119.302 514.502L264.96 472.149ZM401.361 653.589C460.07 559.727 371.795 443.014 265.478 473.928L119.819 516.281C40.3577 539.387 7.26747 633.833 54.9378 701.466L118.076 791.043C167.729 861.49 273.136 858.59 318.84 785.52L401.361 653.589Z" fill="#C4C4C4"/>
<path fill-rule="evenodd" clip-rule="evenodd" d="M264.84 482.232C367.401 453.388 451.348 566.438 394.062 656.253L314.795 780.533C270.198 850.453 168.752 852.35 121.572 784.145L62.5143 698.767C17.2196 633.287 49.8603 542.691 126.513 521.133L264.84 482.232ZM392.5 655.257C448.87 566.876 366.264 455.632 265.341 484.015L127.015 522.917C51.5867 544.13 19.4675 633.279 64.0386 697.713L123.096 783.091C169.522 850.206 269.348 848.34 313.232 779.537L392.5 655.257Z" fill="#C4C4C4"/>
<path fill-rule="evenodd" clip-rule="evenodd" d="M264.72 492.313C361.891 466.015 440.153 573.609 385.192 657.935L309.177 774.564C266.391 840.211 170.524 841.059 126.584 776.179L71.6047 695C29.4198 632.712 61.1028 547.419 133.727 527.764L264.72 492.313ZM383.639 656.923C437.671 574.023 360.732 468.249 265.205 494.102L134.211 529.553C62.815 548.875 31.6677 632.726 73.1393 693.961L128.118 775.14C171.316 838.923 265.561 838.09 307.624 773.552L383.639 656.923Z" fill="#C4C4C4"/>
<path fill-rule="evenodd" clip-rule="evenodd" d="M264.602 502.395C356.381 478.645 428.957 580.782 376.32 659.618L303.558 768.596C262.581 829.969 172.295 829.767 131.594 768.21L80.6945 691.232C41.6193 632.134 72.3458 552.145 140.941 534.395L264.602 502.395ZM374.779 658.589C426.471 581.168 355.198 480.865 265.066 504.189L141.405 536.189C74.0417 553.621 43.8669 632.174 82.2405 690.21L133.14 767.188C173.11 827.64 261.775 827.839 302.016 767.567L374.779 658.589Z" fill="#C4C4C4"/>
<path fill-rule="evenodd" clip-rule="evenodd" d="M264.486 512.476C350.875 491.274 417.763 587.956 367.449 661.301L297.939 762.629C258.77 819.727 174.065 818.474 136.604 760.241L89.7848 687.462C53.8205 631.556 83.591 556.871 148.157 541.025L264.486 512.476ZM365.921 660.253C415.272 588.312 349.664 493.48 264.928 514.276L148.599 542.825C85.2682 558.367 56.0674 631.623 91.3435 686.46L138.163 759.239C174.907 816.357 257.991 817.587 296.411 761.581L365.921 660.253Z" fill="#C4C4C4"/>
<path fill-rule="evenodd" clip-rule="evenodd" d="M264.371 522.557C345.369 503.906 406.568 595.133 358.576 662.986L292.319 756.663C254.957 809.487 175.833 807.18 141.613 752.271L98.8738 683.691C66.0204 630.976 94.8374 561.595 155.374 547.656L264.371 522.557ZM357.063 661.917C404.072 595.453 344.127 506.094 264.787 524.363L155.79 549.461C96.493 563.115 68.2662 631.075 100.447 682.711L143.186 751.291C176.705 805.076 254.209 807.335 290.806 755.594L357.063 661.917Z" fill="#C4C4C4"/>
<path fill-rule="evenodd" clip-rule="evenodd" d="M264.257 532.638C339.866 516.539 395.373 602.313 349.701 664.673L286.697 750.7C251.142 799.246 177.598 795.885 146.62 744.298L107.961 679.919C78.2216 630.393 106.085 566.318 162.594 554.285L264.257 532.638ZM348.206 663.578C392.872 602.591 338.588 518.706 264.643 534.451L162.98 556.098C107.715 567.865 80.4654 630.529 109.55 678.965L148.209 743.344C178.505 793.795 250.429 797.083 285.201 749.605L348.206 663.578Z" fill="#C4C4C4"/>
<path fill-rule="evenodd" clip-rule="evenodd" d="M264.147 542.719C334.365 529.175 384.178 609.497 340.825 666.362L281.073 744.737C247.323 789.007 179.361 784.589 151.628 736.323L117.048 676.144C90.4228 629.807 117.335 571.038 169.816 560.915L264.147 542.719ZM339.351 665.238C381.672 609.727 333.045 531.317 264.498 544.539L170.167 562.734C118.935 572.617 92.6635 629.986 118.655 675.221L153.235 735.4C180.308 782.517 246.652 786.83 279.599 743.614L339.351 665.238Z" fill="#C4C4C4"/>
<path fill-rule="evenodd" clip-rule="evenodd" d="M264.04 552.8C328.869 541.812 372.983 616.684 331.947 668.053L275.447 738.778C243.501 778.767 181.121 773.291 156.634 728.346L126.135 672.366C102.626 629.217 128.589 575.757 177.041 567.545L264.04 552.8ZM330.499 666.896C370.473 616.858 327.5 543.924 264.35 554.627L177.351 569.372C130.152 577.371 104.862 629.448 127.762 671.48L158.261 727.46C182.115 771.241 242.88 776.576 273.999 737.621L330.499 666.896Z" fill="#C4C4C4"/>
<path fill-rule="evenodd" clip-rule="evenodd" d="M263.937 562.88C323.375 554.454 361.787 623.877 323.066 669.746L269.819 732.82C239.674 768.528 182.877 761.989 161.639 720.364L135.219 668.584C114.829 628.622 139.846 580.471 184.27 574.174L263.937 562.88ZM321.649 668.551C359.273 623.982 321.95 556.527 264.197 564.715L184.53 576.008C141.366 582.127 117.058 628.913 136.87 667.742L163.29 719.522C183.926 759.967 239.113 766.32 268.403 731.625L321.649 668.551Z" fill="#C4C4C4"/>
<path fill-rule="evenodd" clip-rule="evenodd" d="M263.839 572.961C317.888 567.1 350.591 631.078 314.18 671.443L264.186 726.867C235.84 758.29 184.626 750.684 166.641 712.377L144.301 664.797C127.034 628.022 151.109 585.184 191.505 580.803L263.839 572.961ZM312.804 670.202C348.075 631.1 316.396 569.126 264.039 574.803L191.705 582.646C152.573 586.889 129.253 628.386 145.979 664.01L168.319 711.59C185.741 748.697 235.351 756.066 262.81 725.626L312.804 670.202Z" fill="#C4C4C4"/>
<path fill-rule="evenodd" clip-rule="evenodd" d="M263.748 583.042C312.407 579.754 339.393 638.288 305.289 673.145L258.547 720.917C231.997 748.053 186.37 739.373 171.642 704.384L153.382 661.003C139.242 627.412 162.38 589.891 198.747 587.434L263.748 583.042ZM303.964 671.849C336.878 638.209 310.834 581.717 263.873 584.891L198.872 589.282C163.774 591.654 141.444 627.866 155.09 660.285L173.35 703.665C187.564 737.433 231.599 745.81 257.223 719.621L303.964 671.849Z" fill="#C4C4C4"/>
<path fill-rule="evenodd" clip-rule="evenodd" d="M263.668 593.124C306.936 592.418 328.193 645.511 296.389 674.852L252.901 714.974C228.142 737.816 188.104 728.054 176.641 696.381L162.46 657.2C151.456 626.792 173.661 594.593 205.999 594.065L263.668 593.124ZM295.133 673.49C325.685 645.303 305.264 594.299 263.698 594.977L206.029 595.918C174.963 596.425 153.632 627.358 164.203 656.569L178.384 695.75C189.396 726.178 227.859 735.555 251.644 713.612L295.133 673.49Z" fill="#C4C4C4"/>
<path fill-rule="evenodd" clip-rule="evenodd" d="M263.601 603.21C301.475 605.098 316.985 652.753 287.478 676.566L247.241 709.038C224.269 727.576 189.826 716.721 181.638 688.363L171.538 653.382C163.676 626.156 184.958 599.287 213.265 600.699L263.601 603.21ZM263.509 605.06L213.172 602.55C186.136 601.202 165.81 626.865 173.318 652.868L183.418 687.849C191.239 714.934 224.136 725.302 246.077 707.596L286.314 675.124C314.497 652.38 299.682 606.864 263.509 605.06Z" fill="#C4C4C4"/>
<path fill-rule="evenodd" clip-rule="evenodd" d="M277.514 676.75C303.321 659.43 294.087 619.405 263.299 615.137L220.296 609.175C197.286 605.985 177.975 626.392 182.433 649.187L188.454 679.968C193.098 703.712 220.439 715.054 240.53 701.57L277.514 676.75ZM263.554 613.301C296.028 617.803 305.767 660.02 278.547 678.289L241.563 703.109C220.371 717.331 191.533 705.368 186.635 680.324L180.615 649.543C175.912 625.5 196.28 603.975 220.55 607.339L263.554 613.301Z" fill="#C4C4C4"/>
<path fill-rule="evenodd" clip-rule="evenodd" d="M198.794 641.758C200.482 624.096 219.057 613.346 235.215 620.681L263.554 633.544C285.173 643.357 283.239 674.674 260.576 681.752L230.097 691.271C212.454 696.781 194.896 682.536 196.654 664.14L198.794 641.758ZM234.449 622.368C219.449 615.559 202.206 625.539 200.639 641.934L198.499 664.316C196.867 681.394 213.166 694.617 229.544 689.502L260.023 679.984C281.061 673.413 282.857 644.341 262.788 635.231L234.449 622.368Z" fill="#C4C4C4"/>
<path d="M264.96 472.149L264.402 470.229L264.402 470.229L264.96 472.149ZM402.932 654.572L401.236 653.511L401.236 653.511L402.932 654.572ZM320.412 786.502L318.716 785.442L318.716 785.442L320.412 786.502ZM116.561 792.111L118.196 790.959L118.196 790.959L116.561 792.111ZM53.4228 702.533L51.7881 703.685L51.7881 703.685L53.4228 702.533ZM119.302 514.502L118.743 512.582L118.743 512.582L119.302 514.502ZM401.361 653.589L399.665 652.528L399.665 652.528L401.361 653.589ZM265.478 473.928L264.919 472.008L264.919 472.008L265.478 473.928ZM119.819 516.281L119.261 514.361L119.261 514.361L119.819 516.281ZM54.9378 701.466L53.3031 702.618L53.3031 702.618L54.9378 701.466ZM118.076 791.043L119.711 789.891L119.711 789.891L118.076 791.043ZM318.84 785.52L317.145 784.459L317.145 784.459L318.84 785.52ZM264.84 482.232L265.381 484.157L265.381 484.157L264.84 482.232ZM394.062 656.253L395.749 657.328L395.749 657.328L394.062 656.253ZM314.795 780.533L316.481 781.609L316.481 781.609L314.795 780.533ZM121.572 784.145L119.927 785.283L119.927 785.283L121.572 784.145ZM62.5143 698.767L64.1592 697.629L64.1592 697.629L62.5143 698.767ZM126.513 521.133L125.972 519.208L125.972 519.208L126.513 521.133ZM124.839 522.566L125.381 524.492L129.231 523.408L128.69 521.483L124.839 522.566ZM392.5 655.257L394.186 656.332L394.186 656.332L392.5 655.257ZM265.341 484.015L265.883 485.941L265.883 485.941L265.341 484.015ZM127.015 522.917L126.474 520.991L126.474 520.991L127.015 522.917ZM64.0386 697.713L65.6835 696.575L65.6834 696.575L64.0386 697.713ZM123.096 783.091L121.452 784.229L121.452 784.229L123.096 783.091ZM313.232 779.537L314.918 780.612L314.918 780.612L313.232 779.537ZM264.72 492.313L265.243 494.244L265.243 494.244L264.72 492.313ZM385.192 657.935L386.868 659.027L386.868 659.027L385.192 657.935ZM309.177 774.564L310.853 775.656L310.853 775.656L309.177 774.564ZM126.584 776.179L128.24 775.057L128.24 775.057L126.584 776.179ZM71.6047 695L69.9487 696.121L69.9487 696.121L71.6047 695ZM133.727 527.764L133.204 525.834L133.204 525.834L133.727 527.764ZM383.639 656.923L385.315 658.015L385.315 658.015L383.639 656.923ZM265.205 494.102L265.727 496.032L265.727 496.032L265.205 494.102ZM134.211 529.553L133.689 527.622L133.689 527.622L134.211 529.553ZM73.1393 693.961L71.4833 695.082L71.4833 695.082L73.1393 693.961ZM128.118 775.14L129.774 774.018L129.774 774.018L128.118 775.14ZM307.624 773.552L309.3 774.645L309.3 774.645L307.624 773.552ZM264.602 502.395L265.103 504.331L265.103 504.331L264.602 502.395ZM376.32 659.618L377.984 660.728L377.984 660.728L376.32 659.618ZM303.558 768.596L301.895 767.486L301.895 767.486L303.558 768.596ZM131.594 768.21L133.262 767.107L133.262 767.107L131.594 768.21ZM80.6945 691.232L79.0262 692.335L79.0262 692.335L80.6945 691.232ZM140.941 534.395L141.442 536.331L141.442 536.331L140.941 534.395ZM374.779 658.589L376.442 659.699L376.442 659.699L374.779 658.589ZM265.066 504.189L265.567 506.125L265.567 506.125L265.066 504.189ZM141.405 536.189L141.906 538.125L141.906 538.125L141.405 536.189ZM82.2405 690.21L80.5722 691.313L80.5723 691.313L82.2405 690.21ZM133.14 767.188L134.808 766.085L134.808 766.085L133.14 767.188ZM302.016 767.567L300.353 766.457L300.353 766.457L302.016 767.567ZM264.486 512.476L264.963 514.418L264.963 514.418L264.486 512.476ZM367.449 661.301L369.098 662.433L369.098 662.433L367.449 661.301ZM297.939 762.629L299.589 763.76L299.589 763.76L297.939 762.629ZM136.604 760.241L138.286 759.159L138.286 759.159L136.604 760.241ZM89.7848 687.462L88.1028 688.544L88.1028 688.544L89.7848 687.462ZM148.157 541.025L147.68 539.083L147.68 539.083L148.157 541.025ZM365.921 660.253L367.57 661.385L367.57 661.385L365.921 660.253ZM264.928 514.276L265.405 516.218L265.405 516.218L264.928 514.276ZM148.599 542.825L148.122 540.882L148.122 540.882L148.599 542.825ZM91.3435 686.46L89.6615 687.542L89.6615 687.542L91.3435 686.46ZM138.163 759.239L139.845 758.157L139.845 758.157L138.163 759.239ZM296.411 761.581L298.06 762.712L298.06 762.712L296.411 761.581ZM264.371 522.557L263.922 520.608L263.922 520.608L264.371 522.557ZM358.576 662.986L360.209 664.141L360.209 664.141L358.576 662.986ZM292.319 756.663L293.952 757.818L293.952 757.818L292.319 756.663ZM141.613 752.271L139.915 753.328L139.915 753.328L141.613 752.271ZM98.8738 683.691L100.571 682.634L100.571 682.634L98.8738 683.691ZM155.374 547.656L155.823 549.605L155.823 549.605L155.374 547.656ZM357.063 661.917L358.696 663.071L358.696 663.071L357.063 661.917ZM264.787 524.363L264.338 522.414L264.338 522.414L264.787 524.363ZM155.79 549.461L156.239 551.41L156.239 551.41L155.79 549.461ZM100.447 682.711L102.144 681.654L102.144 681.654L100.447 682.711ZM98.6027 681.504L96.9052 682.561L99.0204 685.956L100.718 684.899L98.6027 681.504ZM143.186 751.291L141.488 752.348L141.488 752.348L143.186 751.291ZM290.806 755.594L292.438 756.748L292.438 756.748L290.806 755.594ZM264.257 532.638L263.841 530.682L263.841 530.682L264.257 532.638ZM349.701 664.673L351.315 665.855L351.315 665.855L349.701 664.673ZM286.697 750.7L285.083 749.518L285.083 749.518L286.697 750.7ZM146.62 744.298L144.906 745.328L144.906 745.328L146.62 744.298ZM107.961 679.919L109.676 678.889L109.676 678.889L107.961 679.919ZM162.594 554.285L163.01 556.242L163.01 556.242L162.594 554.285ZM262.494 533.961L262.911 535.917L266.823 535.084L266.406 533.128L262.494 533.961ZM348.206 663.578L349.819 664.76L349.819 664.76L348.206 663.578ZM264.643 534.451L264.227 532.494L264.227 532.494L264.643 534.451ZM162.98 556.098L163.396 558.054L163.396 558.054L162.98 556.098ZM109.55 678.965L111.265 677.935L111.265 677.935L109.55 678.965ZM148.209 743.344L146.495 744.374L146.495 744.374L148.209 743.344ZM285.201 749.605L283.588 748.423L283.588 748.423L285.201 749.605ZM264.147 542.719L264.526 544.683L264.526 544.683L264.147 542.719ZM340.825 666.362L342.416 667.574L342.416 667.574L340.825 666.362ZM281.073 744.737L279.483 743.525L279.483 743.525L281.073 744.737ZM151.628 736.323L153.362 735.327L153.362 735.327L151.628 736.323ZM117.048 676.144L118.782 675.147L118.782 675.147L117.048 676.144ZM169.816 560.915L169.437 558.951L169.437 558.951L169.816 560.915ZM339.351 665.238L340.942 666.451L340.942 666.451L339.351 665.238ZM264.498 544.539L264.877 546.503L264.877 546.503L264.498 544.539ZM170.167 562.734L169.788 560.771L169.788 560.771L170.167 562.734ZM118.655 675.221L120.39 674.224L120.39 674.224L118.655 675.221ZM153.235 735.4L154.969 734.404L154.969 734.404L153.235 735.4ZM279.599 743.614L278.009 742.401L278.009 742.401L279.599 743.614ZM264.04 552.8L264.374 554.772L264.374 554.772L264.04 552.8ZM331.947 668.053L333.509 669.301L333.509 669.301L331.947 668.053ZM275.447 738.778L273.885 737.529L273.885 737.529L275.447 738.778ZM156.634 728.346L154.877 729.303L154.877 729.303L156.634 728.346ZM126.135 672.366L127.891 671.409L127.891 671.409L126.135 672.366ZM177.041 567.545L176.707 565.573L176.707 565.573L177.041 567.545ZM175.224 568.792L175.558 570.764L179.502 570.096L179.168 568.124L175.224 568.792ZM330.499 666.896L332.061 668.144L332.061 668.144L330.499 666.896ZM264.35 554.627L264.684 556.599L264.684 556.599L264.35 554.627ZM266.167 553.379L265.832 551.407L261.889 552.076L262.223 554.048L266.167 553.379ZM177.351 569.372L177.017 567.4L177.017 567.4L177.351 569.372ZM127.762 671.48L129.518 670.523L129.518 670.523L127.762 671.48ZM158.261 727.46L156.505 728.416L156.505 728.416L158.261 727.46ZM273.999 737.621L272.436 736.373L272.436 736.373L273.999 737.621ZM263.937 562.88L264.218 564.86L264.218 564.86L263.937 562.88ZM323.066 669.746L324.594 671.036L324.594 671.036L323.066 669.746ZM269.819 732.82L271.348 734.11L271.348 734.11L269.819 732.82ZM161.639 720.364L159.857 721.273L159.857 721.273L161.639 720.364ZM135.219 668.584L137.001 667.675L137.001 667.675L135.219 668.584ZM184.27 574.174L184.551 576.154L184.551 576.154L184.27 574.174ZM321.649 668.551L323.178 669.841L323.178 669.841L321.649 668.551ZM264.197 564.715L264.478 566.695L264.478 566.695L264.197 564.715ZM184.53 576.008L184.811 577.989L184.811 577.989L184.53 576.008ZM136.87 667.742L138.651 666.833L138.651 666.833L136.87 667.742ZM135.136 666.382L133.354 667.29L135.172 670.854L136.953 669.945L135.136 666.382ZM163.29 719.522L161.508 720.431L161.508 720.431L163.29 719.522ZM268.403 731.625L269.931 732.915L269.931 732.915L268.403 731.625ZM263.839 572.961L264.054 574.949L264.054 574.949L263.839 572.961ZM314.18 671.443L315.665 672.783L315.665 672.783L314.18 671.443ZM264.186 726.867L265.671 728.206L265.671 728.206L264.186 726.867ZM166.641 712.377L164.831 713.227L164.831 713.227L166.641 712.377ZM144.301 664.797L146.112 663.947L146.112 663.947L144.301 664.797ZM191.505 580.803L191.29 578.815L191.29 578.815L191.505 580.803ZM189.617 581.94L189.832 583.929L193.809 583.497L193.593 581.509L189.617 581.94ZM312.804 670.202L314.289 671.542L314.289 671.542L312.804 670.202ZM264.039 574.803L264.254 576.791L264.254 576.791L264.039 574.803ZM191.705 582.646L191.489 580.657L191.489 580.657L191.705 582.646ZM145.979 664.01L147.789 663.16L147.789 663.16L145.979 664.01ZM144.29 662.593L142.48 663.443L144.179 667.064L145.99 666.214L144.29 662.593ZM168.319 711.59L166.508 712.44L166.508 712.44L168.319 711.59ZM262.81 725.626L264.295 726.965L264.295 726.965L262.81 725.626ZM263.748 583.042L263.883 585.037L263.883 585.037L263.748 583.042ZM305.289 673.145L306.718 674.543L306.718 674.543L305.289 673.145ZM258.547 720.917L259.977 722.316L259.977 722.316L258.547 720.917ZM171.642 704.384L169.798 705.16L169.798 705.16L171.642 704.384ZM153.382 661.003L155.225 660.228L155.225 660.228L153.382 661.003ZM198.747 587.434L198.882 589.429L198.882 589.429L198.747 587.434ZM303.964 671.849L305.394 673.248L305.394 673.248L303.964 671.849ZM263.873 584.891L264.008 586.886L264.008 586.886L263.873 584.891ZM198.872 589.282L199.007 591.278L199.007 591.278L198.872 589.282ZM200.805 588.223L200.67 586.228L196.679 586.497L196.814 588.493L200.805 588.223ZM155.09 660.285L156.934 659.509L156.934 659.509L155.09 660.285ZM153.46 658.801L151.617 659.576L153.168 663.263L155.012 662.487L153.46 658.801ZM173.35 703.665L171.507 704.441L171.507 704.441L173.35 703.665ZM257.223 719.621L258.652 721.02L258.652 721.02L257.223 719.621ZM263.668 593.124L263.7 595.124L263.7 595.124L263.668 593.124ZM296.389 674.852L295.033 673.382L295.033 673.382L296.389 674.852ZM252.901 714.974L254.257 716.444L254.257 716.444L252.901 714.974ZM176.641 696.381L178.521 695.7L178.521 695.7L176.641 696.381ZM162.46 657.2L160.58 657.88L160.58 657.88L162.46 657.2ZM164.012 658.765L165.893 658.085L164.532 654.323L162.651 655.004L164.012 658.765ZM205.999 594.065L205.966 592.065L205.966 592.065L205.999 594.065ZM295.133 673.49L293.776 672.02L293.776 672.02L295.133 673.49ZM263.698 594.977L263.731 596.977L263.731 596.977L263.698 594.977ZM265.683 594.018L265.65 592.018L261.65 592.084L261.683 594.083L265.683 594.018ZM206.029 595.918L205.997 593.918L205.997 593.918L206.029 595.918ZM164.203 656.569L162.322 657.25L162.322 657.25L164.203 656.569ZM178.384 695.75L180.264 695.07L180.264 695.07L178.384 695.75ZM251.644 713.612L253 715.082L253 715.082L251.644 713.612ZM263.601 603.21L263.501 605.207L263.501 605.207L263.601 603.21ZM287.478 676.566L288.734 678.123L288.734 678.123L287.478 676.566ZM247.241 709.038L248.497 710.594L248.497 710.594L247.241 709.038ZM181.638 688.363L179.716 688.918L179.716 688.918L181.638 688.363ZM171.538 653.382L173.459 652.827L173.459 652.827L171.538 653.382ZM213.265 600.699L213.364 598.702L213.364 598.702L213.265 600.699ZM211.221 601.525L211.121 603.522L215.116 603.722L215.216 601.724L211.221 601.525ZM263.509 605.06L263.409 607.058L263.409 607.058L263.509 605.06ZM265.552 604.235L265.652 602.237L261.657 602.038L261.557 604.035L265.552 604.235ZM213.172 602.55L213.272 600.552L213.272 600.552L213.172 602.55ZM173.318 652.868L175.24 652.313L175.24 652.313L173.318 652.868ZM171.873 651.203L169.952 651.758L171.061 655.601L172.983 655.046L171.873 651.203ZM183.418 687.849L181.497 688.404L181.497 688.404L183.418 687.849ZM246.077 707.596L247.333 709.152L247.333 709.152L246.077 707.596ZM286.314 675.124L287.57 676.681L287.57 676.681L286.314 675.124ZM277.514 676.75L278.628 678.411L278.628 678.411L277.514 676.75ZM263.299 615.137L263.025 617.118L263.025 617.118L263.299 615.137ZM220.296 609.175L220.57 607.194L220.57 607.194L220.296 609.175ZM182.433 649.187L180.471 649.571L180.471 649.571L182.433 649.187ZM188.454 679.968L190.417 679.585L190.417 679.585L188.454 679.968ZM187.161 678.183L185.198 678.567L185.966 682.493L187.928 682.109L187.161 678.183ZM240.53 701.57L241.644 703.231L241.644 703.231L240.53 701.57ZM263.554 613.301L263.279 615.282L263.279 615.282L263.554 613.301ZM278.547 678.289L279.661 679.949L279.661 679.949L278.547 678.289ZM241.563 703.109L242.677 704.77L242.677 704.77L241.563 703.109ZM186.635 680.324L188.598 679.94L188.598 679.94L186.635 680.324ZM180.615 649.543L178.652 649.927L178.652 649.927L180.615 649.543ZM181.908 651.328L183.871 650.944L183.103 647.018L181.14 647.402L181.908 651.328ZM220.55 607.339L220.825 605.358L220.825 605.358L220.55 607.339ZM218.442 607.983L218.167 609.964L222.129 610.513L222.404 608.532L218.442 607.983ZM198.794 641.758L196.803 641.568L196.803 641.568L198.794 641.758ZM235.215 620.681L234.388 622.502L234.388 622.502L235.215 620.681ZM263.554 633.544L264.381 631.723L264.381 631.723L263.554 633.544ZM260.576 681.752L261.172 683.662L261.172 683.662L260.576 681.752ZM230.097 691.271L230.693 693.18L230.693 693.18L230.097 691.271ZM196.654 664.14L194.663 663.95L194.663 663.95L196.654 664.14ZM234.449 622.368L233.622 624.189L233.622 624.189L234.449 622.368ZM200.639 641.934L198.648 641.744L198.648 641.744L200.639 641.934ZM198.499 664.316L196.508 664.126L196.508 664.126L198.499 664.316ZM229.544 689.502L230.141 691.411L230.141 691.411L229.544 689.502ZM260.023 679.984L260.62 681.893L260.62 681.893L260.023 679.984ZM262.788 635.231L263.615 633.41L263.615 633.41L262.788 635.231ZM265.518 474.07C371.708 443.193 459.873 559.764 401.236 653.511L404.628 655.632C465.214 558.769 374.117 438.327 264.402 470.229L265.518 474.07ZM401.236 653.511L318.716 785.442L322.107 787.563L404.628 655.632L401.236 653.511ZM318.716 785.442C273.068 858.423 167.789 861.32 118.196 790.959L114.926 793.263C166.167 865.962 274.942 862.969 322.107 787.563L318.716 785.442ZM118.196 790.959L55.0576 701.381L51.7881 703.685L114.926 793.263L118.196 790.959ZM55.0576 701.381C7.44556 633.831 40.4951 539.5 119.86 516.423L118.743 512.582C36.7422 536.425 2.59383 633.891 51.7881 703.685L55.0576 701.381ZM119.86 516.423L265.518 474.07L264.402 470.229L118.743 512.582L119.86 516.423ZM403.056 654.65C462.74 559.23 373 440.581 264.919 472.008L266.036 475.849C370.591 445.448 457.399 560.225 399.665 652.528L403.056 654.65ZM264.919 472.008L119.261 514.361L120.378 518.202L266.036 475.849L264.919 472.008ZM119.261 514.361C38.4813 537.849 4.8416 633.863 53.3031 702.618L56.5725 700.314C9.69333 633.803 42.2342 540.924 120.378 518.202L119.261 514.361ZM53.3031 702.618L116.441 792.196L119.711 789.891L56.5725 700.314L53.3031 702.618ZM116.441 792.196C166.918 863.811 274.074 860.863 320.536 786.58L317.145 784.459C272.199 856.318 168.541 859.169 119.711 789.891L116.441 792.196ZM320.536 786.58L403.056 654.65L399.665 652.528L317.145 784.459L320.536 786.58ZM265.381 484.157C366.175 455.81 448.673 566.912 392.376 655.177L395.749 657.328C454.022 565.964 368.627 450.965 264.298 480.306L265.381 484.157ZM392.376 655.177L313.109 779.458L316.481 781.609L395.749 657.328L392.376 655.177ZM313.109 779.458C269.28 848.172 169.583 850.036 123.217 783.007L119.927 785.283C167.92 854.663 271.115 852.734 316.481 781.609L313.109 779.458ZM123.217 783.007L64.1592 697.629L60.8695 699.905L119.927 785.283L123.217 783.007ZM64.1592 697.629C19.6457 633.279 51.7231 544.244 127.055 523.058L125.972 519.208C47.9975 541.137 14.7936 633.296 60.8695 699.905L64.1592 697.629ZM124.588 521.674L124.839 522.566L128.69 521.483L128.439 520.591L124.588 521.674ZM127.055 523.058L265.381 484.157L264.298 480.306L125.972 519.208L127.055 523.058ZM394.186 656.332C451.544 566.402 367.49 453.21 264.8 482.09L265.883 485.941C365.039 458.055 446.195 567.35 390.814 654.181L394.186 656.332ZM264.8 482.09L126.474 520.991L127.557 524.842L265.883 485.941L264.8 482.09ZM126.474 520.991C49.7239 542.576 17.0415 633.288 62.3938 698.851L65.6834 696.575C21.8936 633.271 53.4495 545.684 127.557 524.842L126.474 520.991ZM62.3938 698.851L121.452 784.229L124.741 781.953L65.6835 696.575L62.3938 698.851ZM121.452 784.229C168.691 852.52 270.265 850.621 314.918 780.612L311.546 778.461C268.43 846.059 170.354 847.892 124.741 781.953L121.452 784.229ZM314.918 780.612L394.186 656.332L390.814 654.181L311.546 778.461L314.918 780.612ZM265.243 494.244C360.641 468.426 437.474 574.056 383.516 656.843L386.868 659.027C442.832 573.161 363.14 463.605 264.198 490.383L265.243 494.244ZM383.517 656.843L307.502 773.472L310.853 775.656L386.868 659.027L383.517 656.843ZM307.502 773.472C265.496 837.921 171.378 838.754 128.24 775.057L124.928 777.3C169.67 843.364 267.285 842.501 310.853 775.656L307.502 773.472ZM128.24 775.057L73.2606 693.878L69.9487 696.121L124.928 777.3L128.24 775.057ZM73.2606 693.878C31.8458 632.727 62.9502 548.991 134.249 529.695L133.204 525.834C59.2554 545.847 26.9938 632.696 69.9487 696.121L73.2606 693.878ZM134.249 529.695L265.243 494.244L264.198 490.383L133.204 525.834L134.249 529.695ZM385.315 658.015C440.35 573.575 361.981 465.839 264.682 492.171L265.727 496.032C359.482 470.659 434.992 574.47 381.964 655.831L385.315 658.015ZM264.682 492.171L133.689 527.622L134.734 531.483L265.727 496.032L264.682 492.171ZM133.689 527.622C60.9676 547.303 29.2416 632.71 71.4833 695.082L74.7952 692.839C34.0937 632.741 64.6624 550.447 134.734 531.483L133.689 527.622ZM71.4833 695.082L126.462 776.261L129.774 774.018L74.7952 692.839L71.4833 695.082ZM126.462 776.261C170.462 841.228 266.456 840.379 309.3 774.645L305.949 772.46C264.666 835.8 172.17 836.618 129.774 774.018L126.462 776.261ZM309.3 774.645L385.315 658.015L381.964 655.831L305.949 772.46L309.3 774.645ZM265.103 504.331C355.105 481.041 426.273 581.2 374.657 658.507L377.984 660.728C431.641 580.364 357.658 476.249 264.101 500.459L265.103 504.331ZM374.657 658.507L301.895 767.486L305.221 769.707L377.984 660.728L374.657 658.507ZM301.895 767.486C261.712 827.67 173.175 827.471 133.262 767.107L129.925 769.313C171.415 832.063 263.45 832.269 305.221 769.707L301.895 767.486ZM133.262 767.107L82.3628 690.129L79.0262 692.335L129.925 769.313L133.262 767.107ZM82.3628 690.129C44.045 632.177 74.1757 553.738 141.442 536.331L140.44 532.459C70.516 550.553 39.1936 632.092 79.0262 692.335L82.3628 690.129ZM141.442 536.331L265.103 504.331L264.101 500.459L140.44 532.459L141.442 536.331ZM376.442 659.699C429.154 580.75 356.474 478.469 264.565 502.253L265.567 506.125C353.922 483.261 423.787 581.586 373.116 657.478L376.442 659.699ZM264.565 502.253L140.904 534.253L141.906 538.125L265.567 506.125L264.565 502.253ZM140.904 534.253C72.2119 552.028 41.4412 632.131 80.5722 691.313L83.9088 689.107C46.2925 632.216 75.8716 555.213 141.906 538.125L140.904 534.253ZM80.5723 691.313L131.471 768.291L134.808 766.085L83.9088 689.107L80.5723 691.313ZM131.471 768.291C172.231 829.936 262.645 830.138 303.68 768.678L300.353 766.457C260.906 825.539 173.99 825.344 134.808 766.085L131.471 768.291ZM303.68 768.678L376.442 659.699L373.116 657.478L300.353 766.457L303.68 768.678ZM264.963 514.418C349.569 493.654 415.074 588.34 365.8 660.17L369.098 662.433C420.452 587.572 352.181 488.895 264.009 510.534L264.963 514.418ZM365.8 660.17L296.29 761.498L299.589 763.76L369.098 662.433L365.8 660.17ZM296.29 761.498C257.93 817.417 174.973 816.189 138.286 759.159L134.922 761.323C173.156 820.758 259.61 822.038 299.589 763.76L296.29 761.498ZM138.286 759.159L91.4668 686.38L88.1028 688.544L134.922 761.323L138.286 759.159ZM91.4668 686.38C56.2454 631.628 85.4007 558.486 148.634 542.967L147.68 539.083C81.7812 555.255 51.3955 631.483 88.1028 688.544L91.4668 686.38ZM148.634 542.967L264.963 514.418L264.009 510.534L147.68 539.083L148.634 542.967ZM367.57 661.385C417.961 587.928 350.97 491.1 264.451 512.333L265.405 516.218C348.357 495.86 412.583 588.696 364.271 659.122L367.57 661.385ZM264.451 512.333L148.122 540.882L149.075 544.767L265.405 516.218L264.451 512.333ZM148.122 540.882C83.4585 556.752 53.6424 631.55 89.6615 687.542L93.0256 685.378C58.4923 631.696 87.078 559.982 149.075 544.767L148.122 540.882ZM89.6615 687.542L136.481 760.321L139.845 758.157L93.0256 685.378L89.6615 687.542ZM136.481 760.321C173.998 818.642 258.831 819.897 298.06 762.712L294.762 760.449C257.151 815.276 175.815 814.072 139.845 758.157L136.481 760.321ZM298.06 762.712L367.57 661.385L364.271 659.122L294.762 760.449L298.06 762.712ZM264.82 524.506C344.029 506.267 403.874 595.479 356.943 661.832L360.209 664.141C409.262 594.788 346.71 501.545 263.922 520.608L264.82 524.506ZM356.943 661.832L290.686 755.509L293.952 757.818L360.209 664.141L356.943 661.832ZM290.686 755.509C254.15 807.164 176.774 804.909 143.31 751.213L139.915 753.328C174.892 809.451 255.764 811.809 293.952 757.818L290.686 755.509ZM143.31 751.213L100.571 682.634L97.1765 684.749L139.915 753.328L143.31 751.213ZM100.571 682.634C68.4441 631.083 96.6237 563.236 155.823 549.605L154.926 545.707C93.051 559.954 63.5967 630.868 97.1765 684.749L100.571 682.634ZM155.823 549.605L264.82 524.506L263.922 520.608L154.926 545.707L155.823 549.605ZM358.696 663.071C406.766 595.107 345.467 503.733 264.338 522.414L265.236 526.312C342.786 508.455 401.378 595.799 355.43 660.762L358.696 663.071ZM264.338 522.414L155.342 547.512L156.239 551.41L265.236 526.312L264.338 522.414ZM155.342 547.512C94.7066 561.474 65.8425 630.968 98.7494 683.769L102.144 681.654C70.6898 631.183 98.2793 564.756 156.239 551.41L155.342 547.512ZM99.3892 681.014L98.6027 681.504L100.718 684.899L101.504 684.409L99.3892 681.014ZM98.7494 683.769L141.488 752.348L144.883 750.233L102.144 681.654L98.7494 683.769ZM141.488 752.348C175.764 807.347 255.016 809.657 292.438 756.748L289.173 754.439C253.402 805.013 177.646 802.804 144.883 750.233L141.488 752.348ZM292.438 756.748L358.696 663.071L355.43 660.762L289.173 754.439L292.438 756.748ZM264.674 534.594C338.487 518.878 392.673 602.614 348.088 663.491L351.315 665.855C398.072 602.012 341.245 514.201 263.841 530.682L264.674 534.594ZM348.088 663.491L285.083 749.518L288.31 751.881L351.315 665.855L348.088 663.491ZM285.083 749.518C250.373 796.911 178.577 793.63 148.335 743.269L144.906 745.328C176.62 798.14 251.911 801.582 288.31 751.881L285.083 749.518ZM148.335 743.269L109.676 678.889L106.247 680.948L144.906 745.328L148.335 743.269ZM109.676 678.889C80.6432 630.541 107.844 567.988 163.01 556.242L162.177 552.329C104.326 564.647 75.8 630.245 106.247 680.948L109.676 678.889ZM163.01 556.242L264.674 534.594L263.841 530.682L162.177 552.329L163.01 556.242ZM262.301 533.055L262.494 533.961L266.406 533.128L266.213 532.222L262.301 533.055ZM349.819 664.76C395.571 602.29 339.967 516.368 264.227 532.494L265.06 536.407C337.208 521.044 390.172 602.892 346.592 662.396L349.819 664.76ZM264.227 532.494L162.563 554.142L163.396 558.054L265.06 536.407L264.227 532.494ZM162.563 554.142C105.956 566.195 78.0438 630.382 107.836 679.995L111.265 677.935C82.8869 630.677 109.474 569.535 163.396 558.054L162.563 554.142ZM107.836 679.995L146.495 744.374L149.924 742.315L111.265 677.935L107.836 679.995ZM146.495 744.374C177.527 796.051 251.198 799.418 286.815 750.787L283.588 748.423C249.661 794.747 179.484 791.54 149.924 742.315L146.495 744.374ZM286.815 750.787L349.819 664.76L346.592 662.396L283.588 748.423L286.815 750.787ZM264.526 544.683C332.942 531.486 381.473 609.746 339.235 665.149L342.416 667.574C386.882 609.248 335.789 526.863 263.769 540.756L264.526 544.683ZM339.235 665.149L279.483 743.525L282.664 745.95L342.416 667.574L339.235 665.149ZM279.483 743.525C246.599 786.657 180.383 782.353 153.362 735.327L149.894 737.32C178.339 786.825 248.047 791.356 282.664 745.95L279.483 743.525ZM153.362 735.327L118.782 675.147L115.314 677.14L149.894 737.32L153.362 735.327ZM118.782 675.147C92.8411 630.001 119.062 572.742 170.194 562.879L169.437 558.951C115.609 569.335 88.0045 629.612 115.314 677.14L118.782 675.147ZM170.194 562.879L264.526 544.683L263.769 540.756L169.437 558.951L170.194 562.879ZM340.942 666.451C384.376 609.478 334.469 529.005 264.12 542.575L264.877 546.503C331.621 533.628 378.967 609.976 337.761 664.026L340.942 666.451ZM264.12 542.575L169.788 560.771L170.545 564.698L264.877 546.503L264.12 542.575ZM169.788 560.771C117.209 570.913 90.2452 629.792 116.921 676.217L120.39 674.224C95.0818 630.181 120.662 574.321 170.545 564.698L169.788 560.771ZM116.921 676.217L151.501 736.397L154.969 734.404L120.39 674.224L116.921 676.217ZM151.501 736.397C179.286 784.753 247.376 789.179 281.19 744.826L278.009 742.401C245.929 784.48 181.33 780.281 154.969 734.404L151.501 736.397ZM281.19 744.826L340.942 666.451L337.761 664.026L278.009 742.401L281.19 744.826ZM264.374 554.772C327.393 544.091 370.273 616.872 330.384 666.804L333.509 669.301C375.693 616.497 330.345 539.534 263.706 550.828L264.374 554.772ZM330.384 666.804L273.885 737.529L277.01 740.026L333.509 669.301L330.384 666.804ZM273.885 737.529C242.831 776.402 182.193 771.078 158.39 727.389L154.877 729.303C180.049 775.503 244.171 781.133 277.01 740.026L273.885 737.529ZM158.39 727.389L127.891 671.409L124.378 673.323L154.877 729.303L158.39 727.389ZM127.891 671.409C105.039 629.466 130.276 577.499 177.375 569.516L176.707 565.573C126.901 574.014 100.212 628.968 124.378 673.323L127.891 671.409ZM175.069 567.879L175.224 568.792L179.168 568.124L179.013 567.21L175.069 567.879ZM177.375 569.516L264.374 554.772L263.706 550.828L176.707 565.573L177.375 569.516ZM332.061 668.144C373.182 616.67 328.976 541.645 264.015 552.655L264.684 556.599C326.024 546.202 367.763 617.045 328.936 665.648L332.061 668.144ZM266.321 554.293L266.167 553.379L262.223 554.048L262.378 554.961L266.321 554.293ZM264.015 552.655L177.017 567.4L177.685 571.343L264.684 556.599L264.015 552.655ZM177.017 567.4C128.465 575.629 102.449 629.199 126.006 672.437L129.518 670.523C107.275 629.697 131.84 579.114 177.685 571.343L177.017 567.4ZM126.006 672.437L156.505 728.416L160.017 726.503L129.518 670.523L126.006 672.437ZM156.505 728.416C181.043 773.453 243.55 778.941 275.562 738.869L272.436 736.373C242.21 774.21 183.187 769.028 160.017 726.503L156.505 728.416ZM275.562 738.869L332.061 668.144L328.936 665.648L272.436 736.373L275.562 738.869ZM264.218 564.86C321.838 556.691 359.074 623.991 321.537 668.456L324.594 671.036C364.501 623.763 324.913 552.216 263.656 560.9L264.218 564.86ZM321.537 668.456L268.291 731.53L271.348 734.11L324.594 671.036L321.537 668.456ZM268.291 731.53C239.068 766.146 184.009 759.806 163.42 719.455L159.857 721.273C181.745 764.172 240.28 770.911 271.348 734.11L268.291 731.53ZM163.42 719.455L137.001 667.675L133.438 669.493L159.857 721.273L163.42 719.455ZM137.001 667.675C117.234 628.936 141.485 582.259 184.551 576.154L183.99 572.194C138.206 578.684 112.423 628.308 133.438 669.493L137.001 667.675ZM184.551 576.154L264.218 564.86L263.656 560.9L183.99 572.194L184.551 576.154ZM323.178 669.841C361.987 623.868 323.487 554.289 263.916 562.734L264.478 566.695C320.413 558.765 356.56 624.096 320.121 667.26L323.178 669.841ZM263.916 562.734L184.25 574.028L184.811 577.989L264.478 566.695L263.916 562.734ZM184.25 574.028C139.726 580.34 114.652 628.599 135.088 668.651L138.651 666.833C119.463 629.227 143.005 583.915 184.811 577.989L184.25 574.028ZM135.961 665.961L135.136 666.382L136.953 669.945L137.779 669.524L135.961 665.961ZM135.088 668.651L161.508 720.431L165.071 718.613L138.651 666.833L135.088 668.651ZM161.508 720.431C182.794 762.149 239.719 768.703 269.931 732.915L266.875 730.335C238.507 763.938 185.057 757.784 165.071 718.613L161.508 720.431ZM269.931 732.915L323.178 669.841L320.121 667.26L266.875 730.335L269.931 732.915ZM264.054 574.949C316.279 569.286 347.875 631.103 312.695 670.104L315.665 672.783C353.307 631.053 319.498 564.914 263.623 570.972L264.054 574.949ZM312.695 670.104L262.701 725.527L265.671 728.206L315.665 672.783L312.695 670.104ZM262.701 725.527C235.312 755.889 185.829 748.539 168.451 711.527L164.831 713.227C183.424 752.828 236.367 760.692 265.671 728.206L262.701 725.527ZM168.451 711.527L146.112 663.947L142.491 665.647L164.831 713.227L168.451 711.527ZM146.112 663.947C129.428 628.415 152.689 587.024 191.721 582.792L191.29 578.815C149.529 583.343 124.64 627.629 142.491 665.647L146.112 663.947ZM189.517 581.019L189.617 581.94L193.593 581.509L193.494 580.588L189.517 581.019ZM191.721 582.792L264.054 574.949L263.623 570.972L191.29 578.815L191.721 582.792ZM314.289 671.542C350.791 631.075 318.006 566.94 263.823 572.815L264.254 576.791C314.786 571.312 345.359 631.125 311.319 668.862L314.289 671.542ZM263.823 572.815L191.489 580.657L191.921 584.634L264.254 576.791L263.823 572.815ZM191.489 580.657C150.993 585.048 126.859 627.993 144.169 664.86L147.789 663.16C131.647 628.779 154.153 588.729 191.921 584.634L191.489 580.657ZM145.129 662.199L144.29 662.593L145.99 666.214L146.829 665.82L145.129 662.199ZM144.169 664.86L166.508 712.44L170.129 710.74L147.789 663.16L144.169 664.86ZM166.508 712.44C184.538 750.841 235.879 758.467 264.295 726.965L261.325 724.286C234.824 753.664 186.944 746.552 170.129 710.74L166.508 712.44ZM264.295 726.965L314.289 671.542L311.319 668.862L261.325 724.286L264.295 726.965ZM263.883 585.037C310.71 581.873 336.678 638.203 303.859 671.746L306.718 674.543C342.108 638.373 314.105 577.634 263.614 581.046L263.883 585.037ZM303.859 671.746L257.118 719.519L259.977 722.316L306.718 674.543L303.859 671.746ZM257.118 719.519C231.567 745.633 187.658 737.279 173.485 703.608L169.798 705.16C185.081 741.467 232.427 750.474 259.977 722.316L257.118 719.519ZM173.485 703.608L155.225 660.228L151.539 661.779L169.798 705.16L173.485 703.608ZM155.225 660.228C141.619 627.902 163.884 591.793 198.882 589.429L198.612 585.438C160.875 587.988 136.866 626.923 151.539 661.779L155.225 660.228ZM198.882 589.429L263.883 585.037L263.614 581.046L198.612 585.438L198.882 589.429ZM305.394 673.248C339.593 638.294 312.531 579.598 263.739 582.895L264.008 586.886C309.137 583.837 334.163 638.123 302.534 670.45L305.394 673.248ZM263.739 582.895L198.737 587.287L199.007 591.278L264.008 586.886L263.739 582.895ZM200.867 589.148L200.805 588.223L196.814 588.493L196.876 589.417L200.867 589.148ZM198.737 587.287C162.27 589.751 139.068 627.376 153.247 661.061L156.934 659.509C143.82 628.356 165.278 593.557 199.007 591.278L198.737 587.287ZM154.315 658.441L153.46 658.801L155.012 662.487L155.866 662.128L154.315 658.441ZM153.247 661.061L171.507 704.441L175.193 702.889L156.934 659.509L153.247 661.061ZM171.507 704.441C186.275 739.527 232.029 748.231 258.652 721.02L255.793 718.223C231.169 743.39 188.852 735.339 175.193 702.889L171.507 704.441ZM258.652 721.02L305.394 673.248L302.534 670.45L255.793 718.223L258.652 721.02ZM263.7 595.124C305.132 594.448 325.486 645.287 295.033 673.382L297.746 676.322C330.9 645.735 308.739 590.388 263.635 591.124L263.7 595.124ZM295.033 673.382L251.544 713.504L254.257 716.444L297.746 676.322L295.033 673.382ZM251.544 713.504C227.837 735.376 189.498 726.028 178.521 695.7L174.76 697.061C186.71 730.079 228.448 740.255 254.257 716.444L251.544 713.504ZM178.521 695.7L164.341 656.519L160.58 657.88L174.76 697.061L178.521 695.7ZM163.141 659.081L164.012 658.765L162.651 655.004L161.78 655.319L163.141 659.081ZM164.341 656.519C153.804 627.403 175.065 596.57 206.032 596.065L205.966 592.065C172.256 592.615 149.108 626.181 160.58 657.88L164.341 656.519ZM206.032 596.065L263.7 595.124L263.635 591.124L205.966 592.065L206.032 596.065ZM296.489 674.96C328.392 645.527 307.067 592.269 263.665 592.977L263.731 596.977C303.461 596.328 322.978 645.08 293.776 672.02L296.489 674.96ZM265.698 594.944L265.683 594.018L261.683 594.083L261.698 595.01L265.698 594.944ZM263.665 592.977L205.997 593.918L206.062 597.918L263.731 596.977L263.665 592.977ZM205.997 593.918C173.558 594.447 151.284 626.747 162.322 657.25L166.084 655.889C155.98 627.968 176.368 598.402 206.062 597.918L205.997 593.918ZM162.322 657.25L176.503 696.431L180.264 695.07L166.084 655.889L162.322 657.25ZM176.503 696.431C188.002 728.203 228.165 737.995 253 715.082L250.288 712.142C227.554 733.116 190.79 724.152 180.264 695.07L176.503 696.431ZM253 715.082L296.489 674.96L293.776 672.02L250.288 712.142L253 715.082ZM263.501 605.207C299.541 607.004 314.299 652.351 286.222 675.01L288.734 678.123C319.671 653.155 303.409 603.192 263.701 601.212L263.501 605.207ZM286.222 675.01L245.985 707.481L248.497 710.594L288.734 678.123L286.222 675.01ZM245.985 707.481C224.125 725.122 191.351 714.792 183.559 687.808L179.716 688.918C188.301 718.65 224.412 730.03 248.497 710.594L245.985 707.481ZM183.559 687.808L173.459 652.827L169.616 653.937L179.716 688.918L183.559 687.808ZM173.459 652.827C165.979 626.921 186.229 601.353 213.165 602.697L213.364 598.702C183.687 597.222 161.374 625.392 169.616 653.937L173.459 652.827ZM211.267 600.599L211.221 601.525L215.216 601.724L215.262 600.799L211.267 600.599ZM213.165 602.697L263.501 605.207L263.701 601.212L213.364 598.702L213.165 602.697ZM265.506 605.16L265.552 604.235L261.557 604.035L261.511 604.961L265.506 605.16ZM263.608 603.063L213.272 600.552L213.073 604.547L263.409 607.058L263.608 603.063ZM213.272 600.552C184.865 599.136 163.507 626.1 171.397 653.423L175.24 652.313C168.112 627.629 187.407 603.267 213.073 604.547L213.272 600.552ZM172.764 650.946L171.873 651.203L172.983 655.046L173.873 654.789L172.764 650.946ZM171.397 653.423L181.497 688.404L185.34 687.294L175.24 652.313L171.397 653.423ZM181.497 688.404C189.714 716.863 224.28 727.756 247.333 709.152L244.821 706.039C223.992 722.848 192.764 713.006 185.34 687.294L181.497 688.404ZM247.333 709.152L287.57 676.681L285.058 673.568L244.821 706.039L247.333 709.152ZM287.57 676.681C317.183 652.782 301.616 604.958 263.608 603.063L263.409 607.058C297.749 608.77 311.811 651.977 285.057 673.568L287.57 676.681ZM278.628 678.411C305.961 660.067 296.181 617.676 263.574 613.155L263.025 617.118C291.994 621.134 300.681 658.793 276.399 675.089L278.628 678.411ZM263.574 613.155L220.57 607.194L220.021 611.156L263.025 617.118L263.574 613.155ZM220.57 607.194C196.201 603.816 175.749 625.428 180.471 649.571L184.396 648.803C180.202 627.356 198.37 608.155 220.021 611.156L220.57 607.194ZM180.471 649.571L186.491 680.352L190.417 679.585L184.396 648.803L180.471 649.571ZM188.07 678.006L187.161 678.183L187.928 682.109L188.838 681.931L188.07 678.006ZM186.491 680.352C191.41 705.5 220.366 717.511 241.644 703.231L239.415 699.91C220.511 712.596 194.786 701.925 190.417 679.585L186.491 680.352ZM241.644 703.231L278.628 678.411L276.399 675.089L239.415 699.91L241.644 703.231ZM263.279 615.282C293.934 619.532 303.127 659.384 277.432 676.628L279.661 679.949C308.407 660.657 298.122 616.074 263.829 611.32L263.279 615.282ZM277.432 676.628L240.448 701.448L242.677 704.77L279.661 679.949L277.432 676.628ZM240.448 701.448C220.444 714.873 193.222 703.58 188.598 679.94L184.672 680.708C189.845 707.155 220.299 719.788 242.677 704.77L240.448 701.448ZM188.598 679.94L182.577 649.159L178.652 649.927L184.672 680.708L188.598 679.94ZM180.998 651.506L181.908 651.328L181.14 647.402L180.231 647.58L180.998 651.506ZM182.577 649.159C178.139 626.463 197.365 606.145 220.276 609.321L220.825 605.358C195.195 601.806 173.686 624.536 178.652 649.927L182.577 649.159ZM218.569 607.065L218.442 607.983L222.404 608.532L222.531 607.614L218.569 607.065ZM220.276 609.321L263.279 615.282L263.829 611.32L220.825 605.358L220.276 609.321ZM200.785 641.948C202.342 625.654 219.48 615.735 234.388 622.502L236.042 618.859C218.634 610.958 198.622 622.539 196.803 641.568L200.785 641.948ZM234.388 622.502L262.728 635.365L264.381 631.723L236.042 618.859L234.388 622.502ZM262.728 635.365C282.674 644.419 280.889 673.313 259.98 679.843L261.172 683.662C285.588 676.036 287.673 642.295 264.381 631.723L262.728 635.365ZM259.98 679.843L229.501 689.362L230.693 693.18L261.172 683.662L259.98 679.843ZM229.501 689.362C213.222 694.445 197.023 681.303 198.645 664.33L194.663 663.95C192.769 683.77 211.686 699.116 230.693 693.18L229.501 689.362ZM198.645 664.33L200.785 641.948L196.803 641.568L194.663 663.95L198.645 664.33ZM235.276 620.547C219.026 613.171 200.346 623.982 198.648 641.744L202.63 642.125C204.066 627.096 219.872 617.948 233.622 624.189L235.276 620.547ZM198.648 641.744L196.508 664.126L200.49 664.507L202.63 642.124L198.648 641.744ZM196.508 664.126C194.74 682.627 212.398 696.952 230.141 691.411L228.948 687.593C213.935 692.282 198.994 680.16 200.49 664.507L196.508 664.126ZM230.141 691.411L260.62 681.893L259.427 678.075L228.948 687.593L230.141 691.411ZM260.62 681.893C283.411 674.775 285.357 643.279 263.615 633.41L261.961 637.052C280.358 645.402 278.712 672.052 259.427 678.075L260.62 681.893ZM263.615 633.41L235.276 620.547L233.622 624.189L261.961 637.052L263.615 633.41Z" fill="#08AAA2"/>
</g>
</g>
<defs>
<clipPath id="clip0">
<rect width="320" height="602" fill="white"/>
</clipPath>
</defs>
</svg>
