<svg width="834" height="600" viewBox="0 0 834 600" fill="none" xmlns="http://www.w3.org/2000/svg">
<g clip-path="url(#clip0)">
<rect width="834" height="600" fill="white" fill-opacity="0"/>
<g opacity="0.300003">
<path fill-rule="evenodd" clip-rule="evenodd" d="M751.658 476.192C944.37 420.158 1104.38 631.71 997.96 801.843L850.648 1037.36C767.804 1169.81 576.743 1175.06 486.741 1047.37L374.028 887.461C287.621 764.871 347.601 593.678 491.633 551.798L751.658 476.192ZM995.155 800.089C1099.96 632.532 942.376 424.182 752.581 479.368L492.557 554.975C350.705 596.221 291.633 764.822 376.733 885.556L489.445 1045.46C578.085 1171.22 766.253 1166.05 847.843 1035.6L995.155 800.089Z" fill="#C4C4C4"/>
<path fill-rule="evenodd" clip-rule="evenodd" d="M751.442 494.191C934.532 442.7 1084.39 644.511 982.127 804.844L840.621 1026.7C761.008 1151.52 579.91 1154.91 495.686 1033.15L390.258 880.738C309.4 763.847 367.669 602.119 504.507 563.635L751.442 494.191ZM979.337 803.066C1079.97 645.293 932.503 446.707 752.338 497.375L505.403 566.819C370.751 604.689 313.413 763.833 392.979 878.856L498.408 1031.27C581.285 1151.08 759.49 1147.75 837.832 1024.92L979.337 803.066Z" fill="#C4C4C4"/>
<path fill-rule="evenodd" clip-rule="evenodd" d="M751.23 512.188C924.695 465.242 1064.41 657.312 966.292 807.847L830.593 1016.05C754.211 1133.24 583.074 1134.75 504.633 1018.93L406.486 874.013C331.179 762.819 387.739 610.56 517.384 575.473L751.23 512.188ZM963.52 806.041C1059.97 658.051 922.626 469.229 752.094 515.381L518.249 578.666C390.795 613.16 335.192 762.845 409.226 872.158L507.372 1017.07C584.487 1130.94 752.731 1129.45 827.821 1014.24L963.52 806.041Z" fill="#C4C4C4"/>
<path fill-rule="evenodd" clip-rule="evenodd" d="M751.018 530.186C914.86 487.788 1044.42 670.117 950.454 810.851L820.561 1005.39C747.41 1114.95 586.235 1114.59 513.576 1004.7L422.713 867.286C352.957 761.789 407.809 618.997 530.263 587.31L751.018 530.186ZM947.703 809.014C1039.98 670.807 912.747 491.752 751.847 533.388L531.092 590.513C410.837 621.63 356.969 761.859 425.473 865.462L516.336 1002.88C587.691 1110.79 745.972 1111.15 817.809 1003.56L947.703 809.014Z" fill="#C4C4C4"/>
<path fill-rule="evenodd" clip-rule="evenodd" d="M750.811 548.181C905.03 510.333 1024.44 682.925 934.618 813.856L810.531 994.741C740.607 1096.67 589.394 1094.43 522.521 990.478L438.941 860.558C374.738 760.756 427.884 627.432 543.145 599.145L750.811 548.181ZM931.889 811.985C1019.99 683.559 902.867 514.27 751.6 551.394L543.933 602.358C430.878 630.104 378.749 760.876 441.723 858.768L525.304 988.689C590.897 1090.65 739.217 1092.85 807.803 992.87L931.889 811.985Z" fill="#C4C4C4"/>
<path fill-rule="evenodd" clip-rule="evenodd" d="M750.606 566.178C895.202 532.883 1004.45 695.737 918.778 816.864L800.498 984.092C733.801 1078.39 592.551 1074.27 531.462 976.25L455.166 853.826C396.517 759.721 447.96 635.866 556.029 610.982L750.606 566.178ZM916.076 814.954C999.995 696.307 892.983 536.789 751.348 569.401L556.772 614.205C450.916 638.58 400.526 759.898 457.974 852.076L534.27 974.5C594.108 1070.51 732.465 1074.55 797.796 982.182L916.076 814.954Z" fill="#C4C4C4"/>
<path fill-rule="evenodd" clip-rule="evenodd" d="M750.403 584.174C885.378 555.435 984.466 708.553 902.934 819.875L790.461 973.445C726.99 1060.11 595.702 1054.11 540.401 962.018L471.389 847.091C418.298 758.68 468.039 644.296 568.917 622.817L750.403 584.174ZM900.265 817.921C980.001 709.05 883.095 559.303 751.092 587.409L569.606 626.053C470.949 647.059 422.304 758.924 474.225 845.388L543.238 960.315C597.321 1050.38 725.718 1056.25 787.791 971.491L900.265 817.921Z" fill="#C4C4C4"/>
<path fill-rule="evenodd" clip-rule="evenodd" d="M750.207 602.17C875.558 577.991 964.481 721.377 887.09 822.89L780.422 962.801C720.172 1041.83 598.849 1033.94 549.341 947.782L487.611 840.352C440.079 757.634 488.123 652.724 581.809 634.652L750.207 602.17ZM884.458 820.884C960.007 721.788 873.201 581.814 750.833 605.418L582.436 637.9C490.979 655.542 444.08 757.954 490.479 838.704L552.21 946.134C600.54 1030.24 718.975 1037.94 777.791 960.796L884.458 820.884Z" fill="#C4C4C4"/>
<path fill-rule="evenodd" clip-rule="evenodd" d="M750.015 620.165C865.745 600.551 944.497 734.208 871.24 825.908L770.379 952.163C713.35 1023.55 601.991 1013.77 558.277 933.541L503.831 833.609C461.864 756.581 508.212 661.147 594.708 646.487L750.015 620.165ZM868.655 823.844C940.015 734.518 863.303 604.32 750.568 623.427L595.26 649.748C511.004 664.029 465.856 756.993 506.736 832.026L561.182 931.958C603.765 1010.11 712.241 1019.64 767.794 950.098L868.655 823.844Z" fill="#C4C4C4"/>
<path fill-rule="evenodd" clip-rule="evenodd" d="M749.831 638.16C855.939 623.117 924.511 747.048 855.386 828.931L760.332 941.527C706.518 1005.27 605.126 993.598 567.212 919.292L520.048 826.857C483.648 755.519 528.308 669.562 607.613 658.321L749.831 638.16ZM852.858 826.797C920.022 747.236 853.395 626.819 750.295 641.435L608.077 661.596C531.021 672.519 487.627 756.038 522.996 825.354L570.159 917.789C606.998 989.988 705.516 1001.33 757.804 939.394L852.858 826.797Z" fill="#C4C4C4"/>
<path fill-rule="evenodd" clip-rule="evenodd" d="M749.656 656.155C846.143 645.693 904.523 759.902 839.524 831.961L750.276 930.9C699.673 986.996 608.249 973.416 576.142 905.034L536.262 820.097C505.437 754.447 548.414 677.975 620.528 670.156L749.656 656.155ZM837.067 829.745C900.031 759.943 843.479 649.309 750.013 659.444L620.885 673.444C551.028 681.019 509.397 755.097 539.257 818.691L579.136 903.629C610.238 969.87 698.801 983.024 747.819 928.684L837.067 829.745Z" fill="#C4C4C4"/>
<path fill-rule="evenodd" clip-rule="evenodd" d="M749.495 674.152C836.359 668.282 884.533 772.774 823.651 834.998L740.21 920.279C692.813 968.721 611.361 953.226 585.069 890.765L552.472 813.324C527.231 753.359 568.534 686.378 633.456 681.992L749.495 674.152ZM821.286 832.685C880.043 772.632 833.551 671.787 749.718 677.452L633.679 685.292C571.023 689.525 531.161 754.169 555.522 812.041L588.119 889.482C613.492 949.763 692.102 964.717 737.845 917.966L821.286 832.685Z" fill="#C4C4C4"/>
<path fill-rule="evenodd" clip-rule="evenodd" d="M749.351 692.15C826.591 690.89 864.539 785.669 807.764 838.046L730.129 909.67C685.932 950.445 614.457 933.019 593.993 876.478L568.679 806.534C549.034 752.252 588.673 694.772 646.402 693.83L749.351 692.15ZM805.521 835.615C860.062 785.298 823.607 694.247 749.405 695.458L646.456 697.137C590.998 698.042 552.918 753.262 571.79 805.409L597.104 875.353C616.763 929.67 685.426 946.41 727.886 907.239L805.521 835.615Z" fill="#C4C4C4"/>
<path fill-rule="evenodd" clip-rule="evenodd" d="M749.231 710.154C816.843 713.525 844.532 798.596 791.855 841.106L720.026 899.072C679.017 932.166 617.531 912.789 602.913 862.166L584.883 799.719C570.849 751.117 608.841 703.152 659.373 705.672L749.231 710.154ZM749.067 713.458L659.208 708.976C610.944 706.569 574.658 752.382 588.062 798.801L606.092 861.248C620.053 909.599 678.78 928.106 717.948 896.498L789.777 838.532C840.089 797.93 813.643 716.678 749.067 713.458Z" fill="#C4C4C4"/>
<path fill-rule="evenodd" clip-rule="evenodd" d="M774.068 841.434C820.138 810.516 803.655 739.064 748.693 731.445L671.924 720.803C630.848 715.109 596.375 751.538 604.334 792.231L615.082 847.18C623.372 889.565 672.18 909.812 708.046 885.742L774.068 841.434ZM749.148 728.169C807.119 736.205 824.505 811.57 775.912 844.181L709.89 888.489C672.06 913.877 620.579 892.521 611.835 847.815L601.087 792.866C592.692 749.945 629.053 711.52 672.379 717.526L749.148 728.169Z" fill="#C4C4C4"/>
<path fill-rule="evenodd" clip-rule="evenodd" d="M633.54 778.968C636.554 747.44 669.713 728.249 698.558 741.342L749.148 764.305C787.741 781.823 784.288 837.729 743.831 850.364L689.421 867.357C657.926 877.192 626.582 851.764 629.72 818.924L633.54 778.968ZM697.19 744.354C670.414 732.2 639.631 750.015 636.833 779.283L633.014 819.238C630.101 849.724 659.197 873.329 688.435 864.199L742.845 847.207C780.401 835.478 783.607 783.579 747.78 767.317L697.19 744.354Z" fill="#C4C4C4"/>
<path d="M751.658 476.192L751.099 474.271L751.099 474.271L751.658 476.192ZM997.96 801.843L996.265 800.782L996.265 800.782L997.96 801.843ZM850.648 1037.36L848.952 1036.3L848.952 1036.3L850.648 1037.36ZM486.741 1047.37L488.375 1046.22L488.375 1046.22L486.741 1047.37ZM374.028 887.461L372.394 888.613L372.394 888.613L374.028 887.461ZM491.633 551.798L491.075 549.878L491.075 549.878L491.633 551.798ZM995.155 800.089L993.46 799.028L993.46 799.028L995.155 800.089ZM752.581 479.368L752.023 477.448L752.023 477.448L752.581 479.368ZM492.557 554.975L491.999 553.054L491.999 553.054L492.557 554.975ZM376.733 885.556L375.098 886.708L375.098 886.708L376.733 885.556ZM489.445 1045.46L491.08 1044.31L491.08 1044.31L489.445 1045.46ZM847.843 1035.6L846.147 1034.54L846.147 1034.54L847.843 1035.6ZM751.442 494.191L751.984 496.116L751.984 496.116L751.442 494.191ZM982.127 804.844L983.813 805.92L983.813 805.92L982.127 804.844ZM840.621 1026.7L842.307 1027.78L842.307 1027.78L840.621 1026.7ZM495.686 1033.15L494.042 1034.29L494.042 1034.29L495.686 1033.15ZM390.258 880.738L391.903 879.6L391.903 879.6L390.258 880.738ZM504.507 563.635L503.966 561.71L503.966 561.71L504.507 563.635ZM503.03 565.769L503.572 567.694L507.422 566.611L506.881 564.686L503.03 565.769ZM979.337 803.066L981.024 804.141L981.024 804.141L979.337 803.066ZM752.338 497.375L752.88 499.3L752.88 499.3L752.338 497.375ZM505.403 566.819L504.862 564.894L504.862 564.894L505.403 566.819ZM392.979 878.856L394.624 877.718L394.624 877.718L392.979 878.856ZM498.408 1031.27L496.763 1032.41L496.763 1032.41L498.408 1031.27ZM837.832 1024.92L839.518 1026L839.518 1026L837.832 1024.92ZM751.23 512.188L751.752 514.118L751.752 514.118L751.23 512.188ZM966.292 807.847L967.967 808.939L967.967 808.939L966.292 807.847ZM830.593 1016.05L832.268 1017.14L832.268 1017.14L830.593 1016.05ZM504.633 1018.93L506.289 1017.81L506.289 1017.81L504.633 1018.93ZM406.486 874.013L404.83 875.134L404.83 875.134L406.486 874.013ZM517.384 575.473L516.862 573.542L516.862 573.542L517.384 575.473ZM963.52 806.041L965.195 807.133L965.195 807.133L963.52 806.041ZM752.094 515.381L752.617 517.311L752.617 517.311L752.094 515.381ZM518.249 578.666L517.726 576.735L517.726 576.735L518.249 578.666ZM409.226 872.158L407.57 873.28L407.57 873.28L409.226 872.158ZM507.372 1017.07L509.028 1015.95L509.028 1015.95L507.372 1017.07ZM827.821 1014.24L829.496 1015.33L829.496 1015.33L827.821 1014.24ZM751.018 530.186L751.519 532.122L751.519 532.122L751.018 530.186ZM950.454 810.851L952.118 811.961L952.118 811.961L950.454 810.851ZM820.561 1005.39L818.898 1004.28L818.898 1004.28L820.561 1005.39ZM513.576 1004.7L515.245 1003.6L515.245 1003.6L513.576 1004.7ZM422.713 867.286L421.045 868.389L421.045 868.389L422.713 867.286ZM530.263 587.31L530.764 589.246L530.764 589.246L530.263 587.31ZM947.703 809.014L949.366 810.125L949.366 810.125L947.703 809.014ZM751.847 533.388L752.348 535.324L752.348 535.324L751.847 533.388ZM531.092 590.513L531.593 592.449L531.593 592.449L531.092 590.513ZM425.473 865.462L423.805 866.565L423.805 866.565L425.473 865.462ZM516.336 1002.88L518.004 1001.78L518.004 1001.78L516.336 1002.88ZM817.809 1003.56L816.146 1002.45L816.146 1002.45L817.809 1003.56ZM750.811 548.181L751.288 550.124L751.288 550.124L750.811 548.181ZM934.618 813.856L936.267 814.988L936.267 814.988L934.618 813.856ZM810.531 994.741L812.18 995.872L812.18 995.872L810.531 994.741ZM522.521 990.478L524.203 989.396L524.203 989.396L522.521 990.478ZM438.941 860.558L437.259 861.64L437.259 861.64L438.941 860.558ZM543.145 599.145L542.668 597.203L542.668 597.203L543.145 599.145ZM931.889 811.985L933.538 813.117L933.538 813.117L931.889 811.985ZM751.6 551.394L752.077 553.336L752.077 553.336L751.6 551.394ZM543.933 602.358L543.457 600.416L543.456 600.416L543.933 602.358ZM441.723 858.768L440.041 859.85L440.041 859.85L441.723 858.768ZM525.304 988.689L526.986 987.607L526.986 987.607L525.304 988.689ZM807.803 992.87L809.452 994.001L809.452 994.001L807.803 992.87ZM750.606 566.178L750.157 564.229L750.157 564.229L750.606 566.178ZM918.778 816.864L920.41 818.019L920.41 818.019L918.778 816.864ZM800.498 984.092L802.13 985.247L802.13 985.247L800.498 984.092ZM531.462 976.25L529.765 977.308L529.765 977.308L531.462 976.25ZM455.166 853.826L456.863 852.768L456.863 852.768L455.166 853.826ZM556.029 610.982L556.478 612.931L556.478 612.931L556.029 610.982ZM916.076 814.954L917.709 816.109L917.709 816.109L916.076 814.954ZM751.348 569.401L750.899 567.452L750.899 567.452L751.348 569.401ZM556.772 614.205L557.22 616.154L557.22 616.154L556.772 614.205ZM457.974 852.076L459.671 851.019L459.671 851.018L457.974 852.076ZM455.512 851.254L453.815 852.311L455.93 855.706L457.628 854.649L455.512 851.254ZM534.27 974.5L532.573 975.558L532.573 975.558L534.27 974.5ZM797.796 982.182L799.429 983.337L799.429 983.337L797.796 982.182ZM750.403 584.174L749.986 582.218L749.986 582.218L750.403 584.174ZM902.934 819.875L904.548 821.057L904.548 821.057L902.934 819.875ZM790.461 973.445L788.847 972.263L788.847 972.263L790.461 973.445ZM540.401 962.018L538.687 963.047L538.687 963.047L540.401 962.018ZM471.389 847.091L473.103 846.062L473.103 846.062L471.389 847.091ZM568.917 622.817L569.333 624.773L569.333 624.773L568.917 622.817ZM748.791 586.208L749.208 588.164L753.12 587.331L752.704 585.375L748.791 586.208ZM900.265 817.921L901.879 819.103L901.879 819.103L900.265 817.921ZM751.092 587.409L750.676 585.453L750.676 585.453L751.092 587.409ZM569.606 626.053L570.022 628.009L570.022 628.009L569.606 626.053ZM474.225 845.388L475.94 844.359L475.94 844.359L474.225 845.388ZM543.238 960.315L541.523 961.345L541.523 961.345L543.238 960.315ZM787.791 971.491L786.178 970.309L786.178 970.309L787.791 971.491ZM750.207 602.17L750.586 604.134L750.586 604.134L750.207 602.17ZM887.09 822.89L888.68 824.102L888.68 824.102L887.09 822.89ZM780.422 962.801L778.831 961.589L778.831 961.589L780.422 962.801ZM549.341 947.782L551.075 946.785L551.075 946.785L549.341 947.782ZM487.611 840.352L489.345 839.356L489.345 839.356L487.611 840.352ZM581.809 634.652L581.43 632.688L581.43 632.688L581.809 634.652ZM884.458 820.884L886.049 822.097L886.049 822.097L884.458 820.884ZM750.833 605.418L751.212 607.382L751.212 607.382L750.833 605.418ZM582.436 637.9L582.057 635.936L582.057 635.936L582.436 637.9ZM490.479 838.704L492.214 837.708L492.214 837.708L490.479 838.704ZM552.21 946.134L553.944 945.137L553.944 945.137L552.21 946.134ZM777.791 960.796L776.2 959.583L776.2 959.583L777.791 960.796ZM750.015 620.165L750.349 622.137L750.349 622.137L750.015 620.165ZM871.24 825.908L872.803 827.157L872.803 827.157L871.24 825.908ZM770.379 952.163L768.816 950.914L768.816 950.914L770.379 952.163ZM558.277 933.541L556.52 934.498L556.52 934.498L558.277 933.541ZM503.831 833.609L505.587 832.652L505.587 832.652L503.831 833.609ZM594.708 646.487L594.373 644.515L594.373 644.515L594.708 646.487ZM593.012 648.452L593.346 650.424L597.29 649.755L596.956 647.783L593.012 648.452ZM868.655 823.844L870.218 825.092L870.218 825.092L868.655 823.844ZM750.568 623.427L750.902 625.399L750.902 625.399L750.568 623.427ZM752.263 621.462L751.929 619.49L747.985 620.159L748.32 622.13L752.263 621.462ZM595.26 649.748L594.926 647.776L594.926 647.776L595.26 649.748ZM506.736 832.026L508.493 831.07L508.493 831.07L506.736 832.026ZM561.182 931.958L559.426 932.915L559.426 932.915L561.182 931.958ZM767.794 950.098L766.231 948.85L766.231 948.85L767.794 950.098ZM749.831 638.16L750.112 640.14L750.112 640.14L749.831 638.16ZM855.386 828.931L856.914 830.221L856.914 830.221L855.386 828.931ZM760.332 941.527L761.86 942.818L761.86 942.818L760.332 941.527ZM567.212 919.292L565.43 920.201L565.43 920.201L567.212 919.292ZM520.048 826.857L521.83 825.948L521.83 825.948L520.048 826.857ZM607.613 658.321L607.894 660.301L607.894 660.301L607.613 658.321ZM852.858 826.797L854.386 828.087L854.386 828.087L852.858 826.797ZM750.295 641.435L750.576 643.415L750.576 643.415L750.295 641.435ZM608.077 661.596L608.358 663.576L608.358 663.576L608.077 661.596ZM522.996 825.354L524.777 824.445L524.777 824.445L522.996 825.354ZM520.613 824.324L518.832 825.233L520.649 828.796L522.431 827.887L520.613 824.324ZM570.159 917.789L568.378 918.698L568.378 918.698L570.159 917.789ZM757.804 939.394L759.332 940.684L759.332 940.684L757.804 939.394ZM749.656 656.155L749.872 658.144L749.872 658.144L749.656 656.155ZM839.524 831.961L841.009 833.3L841.009 833.3L839.524 831.961ZM750.276 930.9L751.761 932.239L751.761 932.239L750.276 930.9ZM576.142 905.034L574.331 905.884L574.331 905.884L576.142 905.034ZM536.262 820.097L538.072 819.247L538.072 819.247L536.262 820.097ZM620.528 670.156L620.313 668.167L620.313 668.167L620.528 670.156ZM618.718 672.016L618.934 674.004L622.911 673.573L622.695 671.584L618.718 672.016ZM837.067 829.745L838.552 831.085L838.552 831.085L837.067 829.745ZM750.013 659.444L750.228 661.432L750.228 661.432L750.013 659.444ZM620.885 673.444L620.67 671.456L620.67 671.456L620.885 673.444ZM539.257 818.691L541.067 817.841L541.067 817.841L539.257 818.691ZM536.909 817.583L535.099 818.433L536.798 822.054L538.609 821.204L536.909 817.583ZM579.136 903.629L577.326 904.479L577.326 904.479L579.136 903.629ZM747.819 928.684L749.304 930.024L749.304 930.024L747.819 928.684ZM749.495 674.152L749.63 676.147L749.63 676.147L749.495 674.152ZM823.651 834.998L825.081 836.397L825.081 836.397L823.651 834.998ZM740.21 920.279L741.64 921.678L741.64 921.678L740.21 920.279ZM585.069 890.765L583.226 891.541L583.226 891.541L585.069 890.765ZM552.472 813.324L554.316 812.549L554.316 812.549L552.472 813.324ZM633.456 681.992L633.591 683.987L633.591 683.987L633.456 681.992ZM821.286 832.685L822.716 834.084L822.716 834.084L821.286 832.685ZM749.718 677.452L749.853 679.447L749.853 679.447L749.718 677.452ZM633.679 685.292L633.814 687.287L633.814 687.287L633.679 685.292ZM635.563 683.507L635.428 681.511L631.437 681.781L631.572 683.777L635.563 683.507ZM555.522 812.041L557.365 811.265L557.365 811.265L555.522 812.041ZM553.221 810.839L551.378 811.615L552.929 815.302L554.773 814.526L553.221 810.839ZM588.119 889.482L586.275 890.258L586.275 890.258L588.119 889.482ZM737.845 917.966L739.275 919.365L739.275 919.365L737.845 917.966ZM749.351 692.15L749.383 694.15L749.383 694.15L749.351 692.15ZM807.764 838.046L806.408 836.576L806.408 836.576L807.764 838.046ZM730.129 909.67L731.486 911.14L731.486 911.14L730.129 909.67ZM593.993 876.478L595.874 875.798L595.874 875.797L593.993 876.478ZM568.679 806.534L566.798 807.215L566.798 807.215L568.679 806.534ZM570.915 807.852L572.795 807.172L571.434 803.411L569.554 804.091L570.915 807.852ZM646.402 693.83L646.37 691.83L646.37 691.83L646.402 693.83ZM805.521 835.615L804.165 834.145L804.165 834.145L805.521 835.615ZM749.405 695.458L749.437 697.457L749.437 697.457L749.405 695.458ZM751.377 693.771L751.345 691.771L747.345 691.837L747.378 693.837L751.377 693.771ZM646.456 697.137L646.424 695.137L646.424 695.137L646.456 697.137ZM571.79 805.409L569.909 806.089L569.909 806.09L571.79 805.409ZM597.104 875.353L598.985 874.672L598.985 874.672L597.104 875.353ZM727.886 907.239L729.242 908.709L729.242 908.709L727.886 907.239ZM749.231 710.154L749.132 712.151L749.132 712.151L749.231 710.154ZM791.855 841.106L793.111 842.663L793.111 842.663L791.855 841.106ZM720.026 899.072L721.282 900.629L721.282 900.629L720.026 899.072ZM602.913 862.166L600.992 862.72L600.992 862.72L602.913 862.166ZM584.883 799.719L586.804 799.164L586.804 799.164L584.883 799.719ZM659.373 705.672L659.472 703.675L659.472 703.675L659.373 705.672ZM657.293 707.225L657.193 709.222L661.188 709.421L661.288 707.424L657.293 707.225ZM749.067 713.458L748.967 715.455L748.967 715.455L749.067 713.458ZM751.146 711.905L751.246 709.908L747.251 709.709L747.151 711.706L751.146 711.905ZM659.208 708.976L659.308 706.979L659.308 706.979L659.208 708.976ZM588.062 798.801L589.983 798.246L589.983 798.246L588.062 798.801ZM585.918 797.338L583.996 797.893L585.105 801.736L587.027 801.181L585.918 797.338ZM606.092 861.248L604.171 861.803L604.171 861.803L606.092 861.248ZM717.948 896.498L719.204 898.055L719.204 898.055L717.948 896.498ZM789.777 838.532L791.033 840.089L791.033 840.089L789.777 838.532ZM774.068 841.434L775.182 843.095L775.182 843.095L774.068 841.434ZM748.693 731.445L748.419 733.426L748.419 733.426L748.693 731.445ZM671.924 720.803L672.199 718.822L672.199 718.822L671.924 720.803ZM604.334 792.231L602.371 792.615L602.371 792.615L604.334 792.231ZM615.082 847.18L617.045 846.796L617.044 846.796L615.082 847.18ZM613.074 845.534L611.112 845.918L611.879 849.844L613.842 849.46L613.074 845.534ZM708.046 885.742L709.16 887.403L709.16 887.403L708.046 885.742ZM749.148 728.169L748.873 730.15L748.873 730.15L749.148 728.169ZM775.912 844.181L777.026 845.842L777.026 845.842L775.912 844.181ZM709.89 888.489L711.004 890.149L711.004 890.149L709.89 888.489ZM611.835 847.815L613.797 847.431L613.797 847.431L611.835 847.815ZM601.087 792.866L599.124 793.249L599.124 793.25L601.087 792.866ZM603.094 794.511L605.057 794.127L604.289 790.202L602.326 790.585L603.094 794.511ZM672.379 717.526L672.653 715.545L672.653 715.545L672.379 717.526ZM670.171 718.89L669.896 720.871L673.858 721.42L674.133 719.439L670.171 718.89ZM633.54 778.968L631.549 778.778L631.549 778.778L633.54 778.968ZM698.558 741.342L697.731 743.163L697.731 743.163L698.558 741.342ZM749.148 764.305L749.975 762.484L749.975 762.484L749.148 764.305ZM743.831 850.364L744.427 852.274L744.427 852.274L743.831 850.364ZM689.421 867.357L690.017 869.266L690.017 869.266L689.421 867.357ZM629.72 818.924L627.729 818.733L627.729 818.733L629.72 818.924ZM697.19 744.354L696.364 746.175L696.364 746.175L697.19 744.354ZM636.833 779.283L634.842 779.093L634.842 779.093L636.833 779.283ZM633.014 819.238L631.023 819.048L631.023 819.048L633.014 819.238ZM688.435 864.199L689.031 866.108L689.031 866.108L688.435 864.199ZM742.845 847.207L743.441 849.116L743.441 849.116L742.845 847.207ZM747.78 767.317L748.607 765.496L748.607 765.496L747.78 767.317ZM752.216 478.112C943.166 422.591 1101.71 632.207 996.265 800.782L999.656 802.903C1107.05 631.212 945.574 417.725 751.099 474.271L752.216 478.112ZM996.265 800.782L848.952 1036.3L852.344 1038.42L999.656 802.903L996.265 800.782ZM848.952 1036.3C766.867 1167.53 577.554 1172.74 488.375 1046.22L485.106 1048.52C575.932 1177.38 768.742 1172.08 852.344 1038.42L848.952 1036.3ZM488.375 1046.22L375.663 886.309L372.394 888.613L485.106 1048.52L488.375 1046.22ZM375.663 886.309C290.047 764.841 349.477 595.216 492.191 553.719L491.075 549.878C345.724 592.141 285.195 764.901 372.394 888.613L375.663 886.309ZM492.191 553.719L752.216 478.112L751.099 474.271L491.075 549.878L492.191 553.719ZM996.851 801.149C1102.63 632.034 943.58 421.749 752.023 477.448L753.14 481.289C941.172 426.615 1097.29 633.029 993.46 799.028L996.851 801.149ZM752.023 477.448L491.999 553.054L493.115 556.895L753.14 481.289L752.023 477.448ZM491.999 553.054C348.829 594.683 289.208 764.851 375.098 886.708L378.368 884.403C294.059 764.792 352.582 597.758 493.115 556.895L491.999 553.054ZM375.098 886.708L487.81 1046.62L491.08 1044.31L378.368 884.403L375.098 886.708ZM487.81 1046.62C577.274 1173.54 767.191 1168.32 849.539 1036.66L846.147 1034.54C765.316 1163.77 578.896 1168.9 491.08 1044.31L487.81 1046.62ZM849.539 1036.66L996.851 801.149L993.46 799.028L846.147 1034.54L849.539 1036.66ZM751.984 496.116C933.306 445.122 1081.72 644.985 980.441 803.769L983.813 805.92C1087.07 644.037 935.758 440.278 750.901 492.265L751.984 496.116ZM980.441 803.769L838.935 1025.63L842.307 1027.78L983.813 805.92L980.441 803.769ZM838.935 1025.63C760.09 1149.24 580.741 1152.59 497.331 1032.01L494.042 1034.29C579.078 1157.22 761.925 1153.8 842.307 1027.78L838.935 1025.63ZM497.331 1032.01L391.903 879.6L388.613 881.875L494.042 1034.29L497.331 1032.01ZM391.903 879.6C311.826 763.838 369.532 603.673 505.049 565.56L503.966 561.71C365.806 600.565 306.974 763.855 388.614 881.875L391.903 879.6ZM502.582 564.177L503.03 565.769L506.881 564.686L506.433 563.093L502.582 564.177ZM505.049 565.56L751.984 496.116L750.901 492.265L503.966 561.71L505.049 565.56ZM981.024 804.141C1082.64 644.819 933.728 444.285 751.797 495.45L752.88 499.3C931.277 449.129 1077.29 645.767 977.651 801.99L981.024 804.141ZM751.797 495.45L504.862 564.894L505.945 568.745L752.88 499.3L751.797 495.45ZM504.862 564.894C368.888 603.135 310.987 763.841 391.335 879.994L394.624 877.718C315.839 763.824 372.614 606.242 505.945 568.745L504.862 564.894ZM391.335 879.994L496.763 1032.41L500.052 1030.13L394.624 877.718L391.335 879.994ZM496.763 1032.41C580.454 1153.39 760.407 1150.03 839.518 1026L836.145 1023.85C758.573 1145.47 582.117 1148.77 500.052 1030.13L496.763 1032.41ZM839.518 1026L981.024 804.141L977.651 801.99L836.145 1023.85L839.518 1026ZM751.752 514.118C923.445 467.653 1061.73 657.76 964.616 806.755L967.967 808.939C1067.08 656.864 925.944 462.832 750.707 510.257L751.752 514.118ZM964.616 806.755L828.917 1014.95L832.268 1017.14L967.967 808.939L964.616 806.755ZM828.917 1014.95C753.316 1130.95 583.928 1132.44 506.289 1017.81L502.977 1020.05C582.219 1137.06 755.106 1135.53 832.268 1017.14L828.917 1014.95ZM506.289 1017.81L408.142 872.891L404.83 875.134L502.977 1020.05L506.289 1017.81ZM408.142 872.891C333.605 762.835 389.586 612.132 517.907 577.403L516.862 573.542C385.891 608.988 328.753 762.804 404.83 875.134L408.142 872.891ZM517.907 577.403L751.752 514.118L750.707 510.257L516.862 573.542L517.907 577.403ZM965.195 807.133C1062.65 657.604 923.876 466.819 751.572 513.45L752.617 517.311C921.376 471.639 1057.3 658.499 961.844 804.949L965.195 807.133ZM751.572 513.45L517.726 576.735L518.771 580.596L752.617 517.311L751.572 513.45ZM517.726 576.735C388.948 611.588 332.766 762.829 407.57 873.28L410.882 871.037C337.618 762.86 392.642 614.732 518.771 580.596L517.726 576.735ZM407.57 873.28L505.716 1018.2L509.028 1015.95L410.882 871.037L407.57 873.28ZM505.716 1018.2C583.633 1133.24 753.626 1131.74 829.496 1015.33L826.145 1013.15C751.836 1127.16 585.341 1128.63 509.028 1015.95L505.716 1018.2ZM829.496 1015.33L965.195 807.133L961.844 804.949L826.145 1013.15L829.496 1015.33ZM751.519 532.122C913.584 490.184 1041.74 670.535 948.791 809.74L952.118 811.961C1047.1 669.699 916.136 485.392 750.517 528.249L751.519 532.122ZM948.791 809.74L818.898 1004.28L822.224 1006.5L952.118 811.961L948.791 809.74ZM818.898 1004.28C746.541 1112.65 587.115 1112.3 515.245 1003.6L511.908 1005.81C585.356 1116.89 748.28 1117.25 822.224 1006.5L818.898 1004.28ZM515.245 1003.6L424.381 866.183L421.045 868.389L511.908 1005.81L515.245 1003.6ZM424.381 866.183C355.383 761.831 409.639 620.589 530.764 589.246L529.762 585.374C405.979 617.404 350.531 761.747 421.045 868.389L424.381 866.183ZM530.764 589.246L751.519 532.122L750.517 528.249L529.762 585.374L530.764 589.246ZM949.366 810.125C1042.66 670.389 914.023 489.356 751.346 531.452L752.348 535.324C911.471 494.148 1037.3 671.225 946.039 807.903L949.366 810.125ZM751.346 531.452L530.591 588.576L531.593 592.449L752.348 535.324L751.346 531.452ZM530.591 588.576C409.007 620.038 354.544 761.816 423.805 866.565L427.141 864.359C359.395 761.901 412.667 623.223 531.593 592.449L530.591 588.576ZM423.805 866.565L514.668 1003.98L518.004 1001.78L427.141 864.359L423.805 866.565ZM514.668 1003.98C586.811 1113.09 746.841 1113.45 819.473 1004.67L816.146 1002.45C745.103 1108.85 588.57 1108.5 518.004 1001.78L514.668 1003.98ZM819.473 1004.67L949.366 810.125L946.039 807.903L816.146 1002.45L819.473 1004.67ZM751.288 550.124C903.724 512.713 1021.75 683.309 932.968 812.725L936.267 814.988C1027.12 682.541 906.336 507.954 750.335 546.239L751.288 550.124ZM932.968 812.725L808.882 993.609L812.18 995.872L936.267 814.988L932.968 812.725ZM808.882 993.609C739.767 1094.36 590.303 1092.15 524.203 989.396L520.839 991.56C588.486 1096.72 741.448 1098.98 812.18 995.872L808.882 993.609ZM524.203 989.396L440.623 859.476L437.259 861.64L520.839 991.56L524.203 989.396ZM440.623 859.476C377.163 760.829 429.693 629.048 543.621 601.088L542.668 597.203C426.074 625.817 372.313 760.683 437.259 861.64L440.623 859.476ZM543.621 601.088L751.288 550.124L750.335 546.239L542.668 597.203L543.621 601.088ZM933.538 813.117C1022.68 683.175 904.174 511.89 751.123 549.452L752.077 553.336C901.561 516.65 1017.3 683.943 930.24 810.854L933.538 813.117ZM751.123 549.452L543.457 600.416L544.41 604.3L752.077 553.336L751.123 549.452ZM543.456 600.416C429.068 628.488 376.324 760.803 440.041 859.85L443.405 857.686C381.174 760.949 432.688 631.719 544.41 604.3L543.456 600.416ZM440.041 859.85L523.622 989.771L526.986 987.607L443.405 857.686L440.041 859.85ZM523.622 989.771C589.989 1092.94 740.057 1095.16 809.452 994.001L806.153 991.738C738.376 1090.54 591.806 1088.37 526.986 987.607L523.622 989.771ZM809.452 994.001L933.538 813.117L930.24 810.854L806.153 991.738L809.452 994.001ZM751.054 568.127C893.862 535.244 1001.76 696.082 917.145 815.71L920.41 818.019C1007.15 695.391 896.542 530.522 750.157 564.229L751.054 568.127ZM917.145 815.71L798.865 982.937L802.13 985.247L920.41 818.019L917.145 815.71ZM798.865 982.937C732.993 1076.07 593.492 1072 533.16 975.192L529.765 977.308C591.61 1076.54 734.608 1080.71 802.13 985.247L798.865 982.937ZM533.16 975.192L456.863 852.768L453.469 854.884L529.765 977.308L533.16 975.192ZM456.863 852.768C398.941 759.828 449.747 637.507 556.478 612.931L555.58 609.033C446.174 634.225 394.094 759.613 453.469 854.884L456.863 852.768ZM556.478 612.931L751.055 568.127L750.157 564.229L555.58 609.033L556.478 612.931ZM917.709 816.109C1002.69 695.962 894.323 534.428 750.899 567.452L751.797 571.35C891.643 539.15 997.301 696.653 914.443 813.8L917.709 816.109ZM750.899 567.452L556.323 612.256L557.22 616.154L751.797 571.35L750.899 567.452ZM556.323 612.256C449.13 636.939 398.103 759.791 456.277 853.134L459.671 851.018C402.95 760.006 452.702 640.221 557.22 616.154L556.323 612.256ZM456.916 850.379L455.512 851.254L457.628 854.649L459.032 853.774L456.916 850.379ZM456.277 853.134L532.573 975.558L535.968 973.442L459.671 851.019L456.277 853.134ZM532.573 975.558C593.167 1072.79 733.272 1076.87 799.429 983.337L796.163 981.027C731.658 1072.23 595.049 1068.24 535.968 973.442L532.573 975.558ZM799.429 983.337L917.709 816.109L914.443 813.799L796.163 981.027L799.429 983.337ZM750.819 586.13C883.999 557.773 981.766 708.854 901.321 818.693L904.548 821.057C987.165 708.252 886.757 553.096 749.986 582.218L750.819 586.13ZM901.321 818.693L788.847 972.263L792.074 974.627L904.548 821.057L901.321 818.693ZM788.847 972.263C726.221 1057.77 596.681 1051.85 542.116 960.988L538.687 963.047C594.724 1056.36 727.758 1062.44 792.074 974.627L788.847 972.263ZM542.116 960.988L473.103 846.062L469.674 848.121L538.687 963.047L542.116 960.988ZM473.103 846.062C420.72 758.828 469.798 645.967 569.333 624.773L568.5 620.861C466.28 642.626 415.877 758.532 469.674 848.121L473.103 846.062ZM569.333 624.773L750.819 586.13L749.986 582.218L568.5 620.861L569.333 624.773ZM748.447 584.59L748.791 586.208L752.704 585.375L752.359 583.757L748.447 584.59ZM901.879 819.103C982.701 708.749 884.474 556.964 750.676 585.453L751.509 589.365C881.716 561.641 977.302 709.351 898.652 816.739L901.879 819.103ZM750.676 585.453L569.189 624.096L570.022 628.009L751.509 589.365L750.676 585.453ZM569.189 624.096C469.19 645.389 419.882 758.776 472.511 846.418L475.94 844.359C424.725 759.072 472.708 648.729 570.022 628.009L569.189 624.096ZM472.511 846.418L541.523 961.345L544.952 959.285L475.94 844.359L472.511 846.418ZM541.523 961.345C596.343 1052.63 726.487 1058.58 789.405 972.673L786.178 970.309C724.949 1053.91 598.3 1048.12 544.952 959.285L541.523 961.345ZM789.405 972.673L901.879 819.103L898.652 816.739L786.178 970.309L789.405 972.673ZM750.586 604.134C874.134 580.302 961.776 721.626 885.499 821.677L888.68 824.102C967.185 721.128 876.982 575.679 749.828 600.206L750.586 604.134ZM885.499 821.677L778.831 961.589L782.012 964.014L888.68 824.102L885.499 821.677ZM778.831 961.589C719.449 1039.48 599.871 1031.71 551.075 946.785L547.607 948.778C597.828 1036.18 720.896 1044.18 782.012 964.014L778.831 961.589ZM551.075 946.785L489.345 839.356L485.877 841.348L547.607 948.778L551.075 946.785ZM489.345 839.356C442.498 757.828 489.849 654.428 582.188 636.616L581.43 632.688C486.396 651.02 437.661 757.439 485.877 841.348L489.345 839.356ZM582.188 636.616L750.586 604.134L749.828 600.206L581.43 632.688L582.188 636.616ZM886.049 822.097C962.712 721.539 874.625 579.503 750.455 603.454L751.212 607.382C871.777 584.126 957.303 722.037 882.868 819.672L886.049 822.097ZM750.455 603.454L582.057 635.936L582.814 639.864L751.212 607.382L750.455 603.454ZM582.057 635.936C489.253 653.838 441.661 757.76 488.745 839.701L492.214 837.708C446.498 758.149 492.706 657.246 582.814 639.864L582.057 635.936ZM488.745 839.701L550.476 947.13L553.944 945.137L492.214 837.708L488.745 839.701ZM550.476 947.13C599.518 1032.48 719.699 1040.29 779.381 962.009L776.2 959.583C718.252 1035.59 601.562 1028.01 553.944 945.137L550.476 947.13ZM779.381 962.009L886.049 822.097L882.868 819.672L776.2 959.583L779.381 962.009ZM750.349 622.137C864.27 602.83 941.787 734.396 869.678 824.66L872.803 827.157C947.206 734.021 867.221 598.272 749.681 618.194L750.349 622.137ZM869.678 824.66L768.816 950.914L771.941 953.411L872.803 827.157L869.678 824.66ZM768.816 950.914C712.679 1021.18 603.063 1011.56 560.033 932.584L556.52 934.498C600.919 1015.99 714.02 1025.92 771.941 953.411L768.816 950.914ZM560.033 932.584L505.587 832.652L502.075 834.566L556.52 934.498L560.033 932.584ZM505.587 832.652C464.277 756.83 509.899 662.889 595.042 648.459L594.373 644.515C506.524 659.404 459.451 756.332 502.075 834.566L505.587 832.652ZM592.736 646.821L593.012 648.452L596.956 647.783L596.679 646.152L592.736 646.821ZM595.042 648.459L750.349 622.137L749.681 618.194L594.373 644.515L595.042 648.459ZM870.218 825.092C942.725 734.33 864.778 602.041 750.234 621.455L750.902 625.399C861.827 606.599 937.306 734.705 867.092 822.596L870.218 825.092ZM752.54 623.093L752.263 621.462L748.32 622.13L748.596 623.761L752.54 623.093ZM750.234 621.455L594.926 647.776L595.595 651.72L750.902 625.399L750.234 621.455ZM594.926 647.776C509.316 662.286 463.442 756.744 504.98 832.983L508.493 831.07C468.269 757.242 512.691 665.771 595.595 651.72L594.926 647.776ZM504.98 832.983L559.426 932.915L562.938 931.001L508.493 831.07L504.98 832.983ZM559.426 932.915C602.693 1012.33 712.911 1022 769.356 951.346L766.231 948.85C711.57 1017.27 604.837 1007.9 562.938 931.001L559.426 932.915ZM769.356 951.346L870.218 825.092L867.092 822.596L766.231 948.85L769.356 951.346ZM750.112 640.14C854.402 625.355 921.797 747.162 853.858 827.641L856.914 830.221C927.224 746.934 857.476 620.88 749.55 636.179L750.112 640.14ZM853.858 827.641L758.804 940.237L761.86 942.818L856.914 830.221L853.858 827.641ZM758.804 940.237C705.912 1002.89 606.257 991.416 568.993 918.383L565.43 920.201C603.994 995.781 707.124 1007.65 761.86 942.818L758.804 940.237ZM568.993 918.383L521.83 825.948L518.267 827.766L565.43 920.201L568.993 918.383ZM521.83 825.948C486.054 755.833 529.947 671.35 607.894 660.301L607.332 656.341C526.668 667.775 481.242 755.205 518.267 827.766L521.83 825.948ZM607.894 660.301L750.112 640.14L749.55 636.179L607.332 656.341L607.894 660.301ZM854.386 828.087C922.736 747.122 854.932 624.581 750.015 639.455L750.576 643.415C851.858 629.057 917.309 747.35 851.329 825.507L854.386 828.087ZM750.015 639.455L607.797 659.616L608.358 663.576L750.576 643.415L750.015 639.455ZM607.797 659.616C529.381 670.731 485.222 755.724 521.214 826.263L524.777 824.445C490.033 756.352 532.66 674.306 608.358 663.576L607.797 659.616ZM522.087 823.573L520.613 824.324L522.431 827.887L523.904 827.136L522.087 823.573ZM521.214 826.263L568.378 918.698L571.941 916.88L524.777 824.445L521.214 826.263ZM568.378 918.698C605.866 992.171 706.122 1003.71 759.332 940.684L756.276 938.104C704.91 998.948 608.13 987.806 571.941 916.88L568.378 918.698ZM759.332 940.684L854.386 828.087L851.329 825.507L756.276 938.104L759.332 940.684ZM749.872 658.144C844.534 647.879 901.807 759.927 838.039 830.621L841.009 833.3C907.239 759.877 847.753 643.507 749.44 654.167L749.872 658.144ZM838.039 830.621L748.791 929.56L751.761 932.239L841.009 833.3L838.039 830.621ZM748.791 929.56C699.146 984.595 609.451 971.272 577.952 904.184L574.331 905.884C607.046 975.561 700.201 989.397 751.761 932.239L748.791 929.56ZM577.952 904.184L538.072 819.247L534.451 820.947L574.331 905.884L577.952 904.184ZM538.072 819.247C507.831 754.841 549.994 679.815 620.744 672.144L620.313 668.167C546.834 676.135 503.043 754.054 534.451 820.947L538.072 819.247ZM618.54 670.371L618.718 672.016L622.695 671.584L622.517 669.94L618.54 670.371ZM620.744 672.144L749.872 658.144L749.44 654.167L620.313 668.167L620.744 672.144ZM838.552 831.085C902.747 759.918 845.089 647.123 749.797 657.456L750.228 661.432C841.87 651.496 897.315 759.968 835.582 828.406L838.552 831.085ZM749.797 657.456L620.67 671.456L621.101 675.433L750.228 661.432L749.797 657.456ZM620.67 671.456C549.448 679.178 507.003 754.704 537.446 819.541L541.067 817.841C511.791 755.49 552.608 682.859 621.101 675.433L620.67 671.456ZM538.407 816.881L536.909 817.583L538.609 821.204L540.106 820.502L538.407 816.881ZM537.446 819.541L577.326 904.479L580.947 902.779L541.067 817.841L537.446 819.541ZM577.326 904.479C609.036 972.014 699.328 985.425 749.304 930.024L746.334 927.345C698.273 980.623 611.441 967.725 580.947 902.779L577.326 904.479ZM749.304 930.024L838.552 831.085L835.582 828.406L746.334 927.345L749.304 930.024ZM749.63 676.147C834.662 670.401 881.818 772.689 822.222 833.6L825.081 836.397C887.248 772.859 838.056 666.163 749.36 672.156L749.63 676.147ZM822.222 833.6L738.78 918.881L741.64 921.678L825.081 836.397L822.222 833.6ZM738.78 918.881C692.384 966.3 612.649 951.132 586.912 889.989L583.226 891.541C610.072 955.32 693.243 971.141 741.64 921.678L738.78 918.881ZM586.912 889.989L554.316 812.549L550.629 814.1L583.226 891.541L586.912 889.989ZM554.316 812.549C529.607 753.849 570.039 688.28 633.591 683.987L633.321 679.996C567.03 684.475 524.855 752.87 550.629 814.1L554.316 812.549ZM633.591 683.987L749.63 676.147L749.36 672.156L633.321 679.996L633.591 683.987ZM822.716 834.084C882.758 772.717 835.248 669.668 749.583 675.457L749.853 679.447C831.853 673.906 877.328 772.547 819.857 831.286L822.716 834.084ZM749.583 675.457L633.544 683.297L633.814 687.287L749.853 679.447L749.583 675.457ZM635.674 685.157L635.563 683.507L631.572 683.777L631.684 685.427L635.674 685.157ZM633.544 683.297C569.519 687.622 528.785 753.679 553.678 812.817L557.365 811.265C533.537 754.659 572.527 691.428 633.814 687.287L633.544 683.297ZM554.746 810.198L553.221 810.839L554.773 814.526L556.297 813.885L554.746 810.198ZM553.678 812.817L586.275 890.258L589.962 888.706L557.365 811.265L553.678 812.817ZM586.275 890.258C612.204 951.856 692.532 967.137 739.275 919.365L736.415 916.567C691.673 962.296 614.781 947.669 589.962 888.706L586.275 890.258ZM739.275 919.365L822.716 834.084L819.857 831.286L736.415 916.567L739.275 919.365ZM749.383 694.15C824.788 692.919 861.832 785.445 806.408 836.576L809.12 839.516C867.245 785.893 828.395 688.86 749.318 690.15L749.383 694.15ZM806.408 836.576L728.773 908.2L731.486 911.14L809.12 839.516L806.408 836.576ZM728.773 908.2C685.626 948.006 615.851 930.994 595.874 875.798L592.113 877.159C613.063 935.044 686.237 952.885 731.486 911.14L728.773 908.2ZM595.874 875.797L570.559 805.854L566.798 807.215L592.113 877.159L595.874 875.797ZM569.359 808.415L570.915 807.852L569.554 804.091L567.998 804.654L569.359 808.415ZM570.559 805.854C551.382 752.863 590.078 696.749 646.435 695.829L646.37 691.83C587.268 692.794 546.686 751.642 566.798 807.215L570.559 805.854ZM646.435 695.829L749.383 694.15L749.318 690.15L646.37 691.83L646.435 695.829ZM806.877 837.085C862.769 785.522 825.41 692.217 749.372 693.458L749.437 697.457C821.804 696.276 857.355 785.074 804.165 834.145L806.877 837.085ZM751.404 695.425L751.377 693.771L747.378 693.837L747.405 695.49L751.404 695.425ZM749.372 693.458L646.424 695.137L646.489 699.137L749.437 697.457L749.372 693.458ZM646.424 695.137C589.593 696.065 550.57 752.651 569.909 806.089L573.67 804.728C555.266 753.873 592.402 700.019 646.489 699.137L646.424 695.137ZM569.909 806.09L595.224 876.033L598.985 874.672L573.67 804.728L569.909 806.09ZM595.224 876.033C615.369 931.695 685.732 948.85 729.242 908.709L726.53 905.769C685.121 943.971 618.157 927.644 598.985 874.672L595.224 876.033ZM729.242 908.709L806.877 837.085L804.165 834.145L726.53 905.769L729.242 908.709ZM749.132 712.151C814.909 715.431 841.846 798.194 790.599 839.55L793.111 842.663C847.217 798.999 818.776 711.619 749.331 708.156L749.132 712.151ZM790.599 839.55L718.77 897.516L721.282 900.629L793.111 842.663L790.599 839.55ZM718.77 897.516C678.873 929.712 619.055 910.86 604.835 861.611L600.992 862.72C616.006 914.718 679.161 934.62 721.282 900.629L718.77 897.516ZM604.835 861.611L586.804 799.164L582.961 800.273L600.992 862.72L604.835 861.611ZM586.804 799.164C573.152 751.882 610.112 705.218 659.273 707.67L659.472 703.675C607.57 701.087 568.547 750.353 582.961 800.273L586.804 799.164ZM657.375 705.573L657.293 707.225L661.288 707.424L661.37 705.772L657.375 705.573ZM659.273 707.67L749.132 712.151L749.331 708.156L659.472 703.675L659.273 707.67ZM751.064 713.557L751.146 711.905L747.151 711.706L747.069 713.358L751.064 713.557ZM749.166 711.46L659.308 706.979L659.108 710.974L748.967 715.455L749.166 711.46ZM659.308 706.979C609.673 704.504 572.355 751.617 586.14 799.356L589.983 798.246C576.96 753.146 612.215 708.635 659.108 710.974L659.308 706.979ZM587.507 796.88L585.918 797.338L587.027 801.181L588.616 800.723L587.507 796.88ZM586.14 799.356L604.171 861.803L608.014 860.693L589.983 798.246L586.14 799.356ZM604.171 861.803C618.528 911.528 678.923 930.56 719.204 898.055L716.692 894.942C678.636 925.652 621.578 907.67 608.014 860.693L604.171 861.803ZM719.204 898.055L791.033 840.089L788.521 836.976L716.692 894.942L719.204 898.055ZM791.033 840.089C842.775 798.333 815.577 714.771 749.166 711.46L748.967 715.455C811.709 718.584 837.403 797.528 788.521 836.976L791.033 840.089ZM775.182 843.095C822.778 811.153 805.748 737.336 748.968 729.464L748.419 733.426C801.561 740.793 817.498 809.879 772.953 839.774L775.182 843.095ZM748.968 729.464L672.199 718.822L671.65 722.784L748.419 733.426L748.968 729.464ZM672.199 718.822C629.763 712.939 594.149 750.574 602.371 792.615L606.297 791.847C598.602 752.502 631.932 717.278 671.65 722.784L672.199 718.822ZM602.371 792.615L613.119 847.564L617.044 846.796L606.297 791.847L602.371 792.615ZM614.698 845.217L613.074 845.534L613.842 849.46L615.465 849.143L614.698 845.217ZM613.119 847.564C621.684 891.353 672.107 912.269 709.16 887.403L706.931 884.082C672.252 907.355 625.06 887.778 617.045 846.796L613.119 847.564ZM709.16 887.403L775.182 843.095L772.953 839.774L706.931 884.082L709.16 887.403ZM748.873 730.15C805.025 737.934 821.865 810.933 774.797 842.52L777.026 845.842C827.145 812.206 809.213 734.476 749.422 726.188L748.873 730.15ZM774.797 842.52L708.775 886.828L711.004 890.149L777.026 845.842L774.797 842.52ZM708.775 886.828C672.132 911.419 622.267 890.734 613.797 847.431L609.872 848.199C618.891 894.309 671.987 916.334 711.004 890.149L708.775 886.828ZM613.797 847.431L603.05 792.482L599.124 793.25L609.872 848.199L613.797 847.431ZM601.471 794.828L603.094 794.511L602.326 790.585L600.703 790.903L601.471 794.828ZM603.05 792.482C594.919 750.909 630.137 713.69 672.104 719.507L672.653 715.545C627.968 709.351 590.466 748.981 599.124 793.249L603.05 792.482ZM670.398 717.252L670.171 718.89L674.133 719.439L674.36 717.801L670.398 717.252ZM672.104 719.507L748.873 730.15L749.422 726.188L672.653 715.545L672.104 719.507ZM635.531 779.159C638.414 748.997 670.136 730.638 697.731 743.163L699.385 739.521C669.29 725.861 634.693 745.883 631.549 778.778L635.531 779.159ZM697.731 743.163L748.321 766.126L749.975 762.484L699.385 739.521L697.731 743.163ZM748.321 766.126C785.242 782.884 781.938 836.368 743.235 848.455L744.427 852.274C786.637 839.091 790.241 780.761 749.975 762.484L748.321 766.126ZM743.235 848.455L688.825 865.448L690.017 869.266L744.427 852.274L743.235 848.455ZM688.825 865.448C658.694 874.857 628.709 850.53 631.711 819.114L627.729 818.733C624.455 852.997 657.158 879.527 690.017 869.266L688.825 865.448ZM631.711 819.114L635.531 779.159L631.549 778.778L627.729 818.733L631.711 819.114ZM698.017 742.533C669.99 729.812 637.771 748.458 634.842 779.093L638.824 779.473C641.491 751.572 670.837 734.588 696.364 746.175L698.017 742.533ZM634.842 779.093L631.023 819.048L635.005 819.429L638.824 779.473L634.842 779.093ZM631.023 819.048C627.974 850.958 658.429 875.664 689.031 866.108L687.839 862.29C659.965 870.994 632.228 848.49 635.005 819.429L631.023 819.048ZM689.031 866.108L743.441 849.116L742.248 845.298L687.839 862.29L689.031 866.108ZM743.441 849.116C782.75 836.839 786.107 782.517 748.607 765.496L746.954 769.138C781.108 784.641 778.051 834.116 742.248 845.298L743.441 849.116ZM748.607 765.496L698.017 742.533L696.364 746.175L746.954 769.138L748.607 765.496Z" fill="#08AAA2"/>
</g>
</g>
<defs>
<clipPath id="clip0">
<rect width="834" height="600" fill="white"/>
</clipPath>
</defs>
</svg>
