<svg height="71" width="64" xmlns="http://www.w3.org/2000/svg"><path d="m40.499.004c13.239-.207 21.076 7.397 23.227 18.266.703 3.549-.105 7.566-.7 10.704-.467 3.451-.934 6.903-1.401 10.355-.622 4.769-1.245 9.54-1.867 14.31-1.702 7.23-6.009 12.41-12.256 15.125-2.463 1.07-6.235 2.731-10.155 2.094-8.986-1.461-14.02-5.411-20.426-9.307-6.021-3.663-11.793-6.273-14.94-12.798-2.261-4.688-2.764-12.477-.584-17.685 2.388-5.705 7.034-9.218 11.555-12.798 6.254-4.952 11.703-11.478 18.676-15.59 1.626-.96 3.742-1.716 5.719-2.211 1.051-.155 2.101-.31 3.152-.465z" fill="#08aaa2" fill-rule="evenodd"/></svg>