<svg width="100" height="100" viewBox="0 0 100 100" fill="none" xmlns="http://www.w3.org/2000/svg">
<rect width="100" height="100" fill="black" fill-opacity="0"/>
<rect width="100" height="100" fill="black" fill-opacity="0"/>
<rect width="100" height="100" fill="black" fill-opacity="0"/>
<path d="M50.0227 0.00101294C77.5041 -0.105042 100.068 22.424 99.9998 50.127C99.9347 77.4724 77.5116 100.68 48.6945 99.9848C21.9824 99.3424 0.686076 77.733 0.0166847 51.3284C-0.713285 22.5407 22.6109 -0.174735 50.0227 0.00101294ZM97.6827 50.0452C97.7418 23.6694 76.1138 1.91 49.3411 2.34027C36.4819 2.54784 25.3612 7.21576 16.3259 16.338C5.42179 27.3434 0.867811 40.7851 2.70788 56.1236C4.13299 67.9957 9.58656 77.9936 18.6097 85.8825C27.7147 93.8397 38.3977 97.8197 50.4997 97.7228C76.3758 97.4879 97.6494 76.3679 97.6827 50.0452Z" fill="#564B44"/>
<path d="M49.9122 60.1492H32.3444C24.4692 60.1492 18.372 53.8965 18.5628 46.0167C18.7022 40.1913 22.7473 35.0052 28.4583 33.3765C28.6946 33.3261 28.914 33.2161 29.0958 33.057C29.2777 32.8979 29.4158 32.695 29.4972 32.4674C32.9411 24.3558 40.8027 19.5288 49.5805 20.1863C53.6044 20.4893 57.2755 21.8711 60.3741 24.4694C62.9365 26.6193 65.1597 29.0995 66.3683 32.3129C66.5379 32.7674 66.7802 32.8977 67.2588 32.875C70.1297 32.7056 72.9752 33.4978 75.346 35.1264C81.581 39.358 83.1515 47.306 79.5865 53.3344C76.9423 57.7993 72.932 60.1098 67.7116 60.1432C61.7749 60.175 55.8428 60.1492 49.9122 60.1492ZM55.917 41.0957H55.8958C55.8958 35.593 55.8958 30.0883 55.8958 24.5815C55.8958 24.1831 55.8655 23.8967 55.4127 23.6952C53.1911 22.6894 50.7889 22.1445 48.3509 22.0934C45.913 22.0423 43.49 22.486 41.2283 23.3977C38.9666 24.3095 36.913 25.6704 35.1917 27.3982C33.4703 29.1261 32.1169 31.185 31.2131 33.4507C30.0016 36.4642 29.579 39.5867 30.1 42.826C30.7603 46.9166 32.5413 50.4255 35.552 53.2723C38.7506 56.2934 42.5579 58.0039 46.962 58.1902C49.688 58.3069 52.4141 58.2024 55.1401 58.2433C55.7716 58.2524 55.9337 58.0766 55.9306 57.4494C55.9064 51.9966 55.917 46.5454 55.917 41.0927V41.0957ZM57.9131 25.1027C57.8904 25.2194 57.8737 25.3373 57.8631 25.4557C57.853 36.1783 57.8399 46.901 57.8237 57.6236C57.8237 58.1569 58.0312 58.2387 58.4855 58.2296C60.7814 58.213 63.0759 58.2024 65.3703 58.2296C65.9518 58.2387 66.0775 58.0524 66.076 57.5024C66.0518 51.6997 66.076 45.8955 66.0412 40.0928C66.0427 36.9259 65.1966 33.8164 63.5908 31.0872C62.1805 28.6843 60.2382 26.637 57.9131 25.1027ZM67.9994 48.3453H67.9872V57.207C67.9872 58.2963 67.9872 58.316 69.0595 58.1827C76.5439 57.2524 81.0722 49.9665 78.9943 43.132C77.5026 38.2217 72.988 34.887 68.063 34.7855C67.4148 34.7719 67.2664 34.9067 67.4208 35.5688C67.7934 37.1244 67.9875 38.7174 67.9994 40.317C68.0069 42.9941 67.9994 45.6697 67.9994 48.3453ZM39.1746 58.2539C30.2817 52.9966 26.7258 45.4667 28.3826 35.4855C26.223 36.1369 24.1633 37.6626 22.6761 39.7276C20.0924 43.3062 19.6396 48.5408 22.2445 52.6481C24.1421 55.6419 26.8182 57.5312 30.3332 58.0615C33.2031 58.4917 36.1063 58.1205 39.1731 58.2539H39.1746Z" fill="#564B44"/>
<path d="M49.9076 71.2605C40.0939 71.2605 30.2807 71.2605 20.468 71.2605C20.1652 71.2605 19.6942 71.4529 19.6003 71.0711C19.4776 70.5727 19.5473 70.0227 19.57 69.4955C19.57 69.3727 19.7684 69.3743 19.8941 69.3743C20.097 69.3743 20.2984 69.3743 20.4999 69.3743C40.1515 69.3743 59.8026 69.3768 79.4533 69.3818C79.7834 69.3818 80.3089 69.1788 80.4134 69.5333C80.5543 70.0182 80.4452 70.5803 80.4134 71.1075C80.4058 71.2423 80.2332 71.259 80.103 71.259C79.8758 71.259 79.6486 71.259 79.423 71.259L49.9076 71.2605Z" fill="#564B44"/>
</svg>
