<svg width="100" height="100" viewBox="0 0 100 100" fill="none" xmlns="http://www.w3.org/2000/svg">
<rect width="100" height="100" fill="black" fill-opacity="0"/>
<rect width="97.561" height="98.9546" fill="black" fill-opacity="0" transform="translate(1.34155 0.458252)"/>
<path d="M72.8049 46.0973C72.6829 46.9509 72.8049 47.5607 73.6586 48.1704C76.2195 50.1217 77.0732 52.9265 76.3415 55.9753C75.7317 58.9022 73.9025 60.9753 70.8537 61.4631C69.3903 61.707 68.9025 62.3168 68.4146 63.6583C66.2195 69.6339 62.6829 74.6339 57.439 78.2924C54.0244 80.6095 50.2439 82.1948 46.0976 82.5607C42.0732 82.9265 38.7805 81.4631 35.9756 78.5363C33.0488 75.4875 31.2195 71.5851 30.2439 67.5607C29.5122 64.8778 29.1464 62.0729 28.5366 59.268C28.4147 58.9022 28.2927 58.4144 28.0488 58.1704C26.3415 56.5851 25.8537 54.5119 25.6098 52.3168C25.4878 51.2192 25.4878 50.1217 25.6098 49.0241C25.7317 47.6826 26.4634 46.5851 27.6829 45.9753C27.9268 45.8534 28.2927 45.6095 28.2927 45.2436C28.7805 42.9265 29.2683 40.6095 29.5122 38.2924C29.6342 37.5607 29.3903 36.829 29.1464 36.0973C26.4634 30.9753 28.0488 25.9753 32.6829 22.8046C36.2195 20.4875 40.122 19.268 44.2683 18.5363C48.7805 17.8046 53.4147 17.6826 57.9268 18.6583C61.8293 19.5119 65.4878 21.0973 68.5366 23.6583C71.9512 26.3412 73.4147 29.9997 73.4147 34.1461C73.4147 34.9997 73.4147 35.8534 73.4147 36.5851L72.8049 46.0973ZM34.8781 55.4875C34.7561 55.4875 34.7561 55.3656 34.6342 55.3656C34.5122 55.6095 34.2683 55.8534 34.1464 55.9753C33.5366 56.5851 33.0488 57.4387 32.439 57.8046C31.5854 58.4144 31.4634 59.0241 31.5854 59.8778C31.9512 61.5851 32.1951 63.4144 32.561 65.1217C33.4147 68.6583 34.5122 71.9509 36.7073 74.8778C39.1464 78.1705 42.1951 80.2436 46.5854 79.5119C50.9756 78.7802 54.8781 76.829 58.1707 73.9022C62.439 70.1217 65 65.2436 66.5854 59.7558C66.9512 58.6583 67.1951 58.5363 68.2927 58.6583C68.7805 58.6583 69.3903 58.7802 69.8781 58.7802C71.8293 58.5363 73.2927 56.9509 73.5366 54.9997C73.7805 52.8046 72.8049 50.7314 70.9756 49.9997C69.5122 49.39 67.561 49.7558 66.9512 50.9753C66.0976 52.6826 64.6342 53.4144 62.561 52.9265C61.2195 52.6826 60.7317 52.0729 60.7317 50.7314C60.7317 50.3656 60.6098 49.9997 60.6098 49.6339C60.6098 49.1461 60.3659 48.9022 59.8781 48.9022C59.2683 48.9022 58.6586 48.9022 58.0488 48.9022C56.0976 48.9022 56.3415 48.9022 56.4634 50.6095C56.4634 52.4387 56.3415 54.268 55.4878 56.0973C54.7561 57.4387 53.7805 58.4143 52.1951 58.6583C50.7317 58.9022 49.1464 58.7802 47.8049 58.0485C46.3415 57.3168 45.122 56.0973 44.0244 54.7558C42.6829 52.9265 41.5854 50.8534 40.8537 48.7802C40.6098 48.2924 40.4878 47.6826 39.7561 47.6826C39.0244 47.8046 39.2683 48.4143 39.1464 48.9022C39.0244 49.7558 39.1464 50.7314 38.9025 51.5851C38.4147 53.6583 37.6829 55.7314 37.0732 57.8046C36.4634 59.6339 36.9512 60.3656 38.9025 60.3656C41.0976 60.3656 42.0732 61.4631 41.8293 63.6583C41.7073 64.39 41.4634 64.8778 40.6098 64.8778C39.8781 64.9997 39.5122 64.5119 39.3903 63.7802C39.2683 63.0485 38.9025 62.8046 38.1707 62.8046C37.561 62.8046 37.0732 62.8046 36.4634 62.6826C34.7561 62.3168 33.7805 61.3412 33.9025 59.5119C33.9025 58.7802 34.0244 58.1704 34.1464 57.4387C34.3903 56.9509 34.6342 56.2192 34.8781 55.4875ZM59.6342 46.0973C59.6342 45.9753 59.7561 45.8534 59.7561 45.8534C59.3903 44.9997 59.0244 44.1461 58.5366 43.4143C57.3171 41.5851 56.9512 39.5119 57.0732 37.4387C57.0732 36.9509 57.0732 36.4631 57.0732 36.0973C57.0732 34.6339 56.3415 34.1461 55 34.6339C47.9268 37.1948 40.7317 39.0241 33.1707 38.4143C32.9268 38.4143 32.439 38.6583 32.439 38.9022C32.0732 40.7314 31.7073 42.5607 31.3415 44.5119C31.3415 44.6339 31.7073 45.1217 31.8293 45.1217C32.439 45.2436 33.1707 45.1217 33.7805 45.1217C39.3903 44.9997 44.8781 44.7558 50.4878 44.6339C51.5854 44.6339 52.9268 44.9997 53.7805 45.4875C55.8537 46.5851 57.6829 45.8534 59.6342 46.0973Z" fill="#564B44"/>
<path d="M30.8537 8.04866C30.6098 7.56085 30.3659 6.9511 30.122 6.46329C29.6342 5.48768 29.8781 4.87793 30.8537 4.39012C31.8293 3.90232 32.439 4.02427 32.9268 5.12183C34.1464 7.4389 35.2439 9.75597 36.3415 12.195C36.7073 12.8048 36.7073 13.4145 36.0976 13.9023C35.4878 14.3901 34.7561 14.756 34.0244 14.2682C33.1707 13.6584 32.1951 13.0487 31.2195 12.5609C31.4634 13.1706 31.7073 13.6584 32.0732 14.2682C32.561 15.2438 32.3171 15.8535 31.3415 16.3413C30.2439 16.8291 29.6342 16.7072 29.1464 15.7316C27.9268 13.2926 26.8293 10.8535 25.7317 8.53646C25.4878 7.92671 25.3659 7.31695 25.8537 6.82914C26.4634 6.21939 27.439 5.97549 28.1707 6.46329C29.0244 7.07305 29.8781 7.6828 30.7317 8.29256C30.8537 8.17061 30.8537 8.04866 30.8537 8.04866Z" fill="#564B44"/>
<path d="M90.2439 73.7801C87.1951 73.7801 84.7561 71.341 84.7561 68.2922C84.7561 65.2435 87.1951 62.8044 90.2439 62.8044C93.1707 62.8044 95.6098 65.2435 95.6098 68.2922C95.7317 71.341 93.2927 73.7801 90.2439 73.7801ZM92.561 68.2922C92.561 67.0727 91.4634 65.9752 90.3659 65.9752C89.1463 65.9752 88.0488 67.0727 88.0488 68.2922C88.0488 69.5118 89.0244 70.4874 90.3659 70.4874C91.4634 70.4874 92.561 69.5118 92.561 68.2922Z" fill="#564B44"/>
<path d="M41.8291 95.3657C41.2194 96.0974 40.4877 96.8291 39.8779 97.5608C39.2681 98.4145 38.4145 98.2926 37.4389 97.9267C36.8291 97.6828 36.7072 97.073 36.8291 96.4633C37.3169 93.7804 37.8047 91.2194 38.4145 88.5365C38.6584 87.5608 39.2681 87.195 40.3657 87.4389C41.3413 87.6828 41.7072 88.1706 41.5852 89.1462C41.4633 89.634 41.3413 90.1218 41.3413 90.6096C41.3413 90.7316 41.3413 90.8535 41.3413 91.2194C42.195 90.2438 42.8047 89.5121 43.5364 88.7804C43.9023 88.4145 44.512 88.1706 44.8779 88.1706C46.2194 88.1706 46.7072 88.9023 46.3413 90.2438C45.8535 92.6828 45.3657 95.2438 44.8779 97.6828C44.634 98.7804 44.1462 99.1462 42.9267 98.9023C41.8291 98.6584 41.4633 98.1706 41.7072 96.9511C41.8291 96.3413 41.9511 95.8535 42.073 95.2438C41.9511 95.3657 41.9511 95.3657 41.8291 95.3657Z" fill="#564B44"/>
<path d="M52.0735 8.29257C52.0735 8.90233 51.9515 9.51209 51.9515 9.99989C51.8296 11.0975 51.3418 11.5853 50.3661 11.4633C49.0247 11.4633 48.6588 11.0975 48.7808 9.75599C48.9027 7.19501 49.1466 4.63404 49.3905 2.07306C49.3905 1.34135 49.6344 0.731598 50.4881 0.487695C51.4637 0.365744 52.1954 0.609647 52.6832 1.46331C53.171 2.31696 53.5369 3.29257 54.2686 4.14623C54.3905 3.53648 54.3905 2.80477 54.5125 2.19501C54.6344 1.2194 55.1222 0.853549 56.0979 0.853549C57.3174 0.9755 57.8052 1.34135 57.6832 2.43891C57.4393 5.12184 57.3174 7.68282 57.0735 10.3657C57.0735 11.0975 56.8296 11.7072 55.9759 11.8292C54.8783 12.0731 54.0247 11.7072 53.6588 11.0975C53.171 10.1218 52.6832 9.26818 52.3174 8.29257C52.1954 8.29257 52.1954 8.29257 52.0735 8.29257Z" fill="#564B44"/>
<path d="M88.2926 33.9022C85.2438 33.9022 82.9268 31.5852 82.9268 28.4144C82.9268 25.2437 85.3658 23.0486 88.5365 23.0486C91.4633 23.0486 93.7804 25.4876 93.7804 28.5364C93.7804 31.4632 91.4633 33.9022 88.2926 33.9022ZM90.6097 28.4144C90.6097 27.1949 89.6341 26.2193 88.2926 26.2193C87.0731 26.2193 86.0975 27.1949 86.0975 28.4144C86.0975 29.6339 87.1951 30.7315 88.4146 30.7315C89.6341 30.7315 90.6097 29.6339 90.6097 28.4144Z" fill="#564B44"/>
<path d="M75.7316 18.7804C74.2682 19.878 73.7804 19.878 72.8048 18.9024C72.317 18.2926 72.195 17.6829 72.6828 17.0731C74.5121 14.9999 76.3414 12.8048 78.1707 10.7316C78.6585 10.1219 79.3902 10.1219 79.9999 10.6097C80.7316 11.2195 81.4633 11.8292 82.195 12.5609C83.2926 13.6585 83.7804 15.4877 83.1707 16.9512C82.4389 18.6585 81.2194 19.5121 79.3902 19.6341C79.1463 19.6341 79.0243 19.6341 78.6585 19.6341C78.6585 19.9999 78.5365 20.3658 78.5365 20.8536C78.4146 21.9512 78.0487 22.5609 77.195 22.439C76.3414 22.439 75.4877 21.3414 75.4877 20.4877C75.7316 19.9999 75.7316 19.5121 75.7316 18.7804ZM78.1707 15.8536C78.9024 16.0975 79.2682 16.3414 79.756 16.3414C79.9999 16.3414 80.3658 15.8536 80.3658 15.6097C80.2438 15.1219 79.878 14.756 79.5121 14.2682C79.0243 14.878 78.6585 15.2438 78.1707 15.8536Z" fill="#564B44"/>
<path d="M11.9512 67.8046C11.7073 67.1948 11.4634 66.8289 11.2195 66.2192C9.39019 67.0728 7.68287 67.8046 5.97556 68.6582C4.63409 69.268 3.90239 68.9021 3.53653 67.5607C3.29263 66.8289 3.53653 66.2192 4.26824 65.9753C6.70726 64.8777 9.26824 63.6582 11.7073 62.5607C12.5609 62.1948 13.1707 62.4387 13.6585 63.4143C14.3902 64.8777 14.9999 66.3411 15.7317 67.9265C16.2195 69.0241 15.9756 69.6338 14.878 70.1216C12.5609 71.2192 10.2438 72.1948 8.04873 73.2924C6.95117 73.7802 6.34141 73.5363 5.85361 72.5607C5.3658 71.4631 5.6097 70.9753 6.70726 70.4875C8.29263 69.5119 9.99995 68.6582 11.9512 67.8046Z" fill="#564B44"/>
<path d="M27.4391 89.9998C26.9513 89.7558 26.4634 89.5119 25.9756 89.1461C25.4878 89.8778 25.122 90.4875 24.7561 91.0973C24.2683 91.951 23.6586 91.951 22.561 91.3412C21.7074 90.8534 21.4635 90.2437 21.9513 89.39C23.2927 87.0729 24.6342 84.6339 26.0976 82.3168C26.5854 81.4632 27.1952 81.3412 28.0488 81.829C29.0244 82.3168 29.2683 83.0485 28.9025 83.7802C28.5366 84.5119 28.0488 85.3656 27.561 86.2193C28.0488 86.4632 28.5366 86.7071 29.0244 87.0729C29.3903 86.3412 29.8781 85.6095 30.2439 84.9997C30.8537 83.9022 31.3415 83.7802 32.4391 84.39C33.4147 84.8778 33.5366 85.6095 33.0488 86.4632C31.7074 88.7802 30.3659 90.9754 29.0244 93.2924C28.5366 94.1461 27.8049 94.268 26.8293 93.7802C25.9756 93.2924 25.7317 92.6827 26.2195 91.829C26.7074 91.3412 27.0732 90.7315 27.4391 89.9998Z" fill="#564B44"/>
<path d="M56.4636 95.4878C56.5855 96.2195 56.7075 96.9512 56.7075 97.6829C56.8294 98.7804 56.4636 99.1463 55.1221 99.3902C54.1465 99.5122 53.6587 99.1463 53.5368 98.1707C53.049 95.4878 52.6831 92.8048 52.1953 90.1219C52.0734 89.2683 52.5612 88.7804 53.4148 88.6585C54.5124 88.4146 55.1221 88.6585 55.366 89.5122C55.6099 90.3658 55.7319 91.3414 55.8538 92.317C56.4636 92.1951 56.9514 92.1951 57.5612 92.0731C57.4392 91.2195 57.3173 90.4878 57.1953 89.878C56.9514 88.4146 57.8051 87.5609 59.2685 87.9268C59.6343 88.0487 60.1221 88.5365 60.2441 88.9024C60.7319 91.5853 61.2197 94.3902 61.7075 97.0731C61.8294 98.0487 61.3416 98.5365 60.366 98.6585C59.2685 98.7804 58.7807 98.5365 58.6587 97.5609C58.6587 97.317 58.5368 97.0731 58.5368 96.8292C58.1709 95.1219 58.1709 95.1219 56.4636 95.4878Z" fill="#564B44"/>
<path d="M83.4147 82.8045C83.7806 83.1704 84.1464 83.4143 84.3903 83.7801C85.0001 84.5118 85.0001 85.1216 84.2684 85.9752C83.5367 86.7069 82.9269 86.7069 82.1952 86.0972C80.8538 84.8777 79.6342 83.6582 78.4147 82.4386C77.805 81.8289 77.0733 81.2191 76.4635 80.4874C75.8538 79.7557 75.7318 79.2679 76.3416 78.5362C76.9513 77.8045 77.683 77.1947 78.2928 76.463C79.8781 74.9996 82.3172 74.9996 83.9025 76.463C85.4879 78.0484 85.6099 80.3655 84.1464 82.0728C83.9025 82.3167 83.6586 82.5606 83.4147 82.8045ZM81.2196 80.7313C81.4635 80.1216 81.7074 79.6338 81.8294 79.2679C81.8294 79.146 81.4635 78.6582 81.2196 78.6582C80.7318 78.7801 80.366 79.024 79.6342 79.2679C80.244 79.7557 80.6098 80.1216 81.2196 80.7313Z" fill="#564B44"/>
<path d="M10.244 24.1462C13.1708 24.1462 15.122 27.195 13.9025 29.8779C13.5367 30.6097 13.5367 30.9755 14.3903 31.3414C15.4879 31.8292 15.7318 32.5609 15.122 33.5365C14.6342 34.5121 13.9025 34.756 12.805 34.1462C10.6099 32.9267 8.41473 31.8292 6.09766 30.6097C5.0001 29.9999 4.87815 29.3901 5.36595 28.4145C5.7318 27.6828 6.09766 26.9511 6.46351 26.3414C7.43912 24.8779 8.65863 24.1462 10.244 24.1462ZM9.02449 28.2926C9.02449 28.4145 9.02449 28.5365 9.14644 28.6584C9.63424 28.7804 10.122 29.0243 10.6099 29.0243C10.7318 29.0243 10.9757 28.2926 10.9757 27.9267C10.9757 27.6828 10.3659 27.317 10.244 27.317C9.75619 27.5609 9.39034 27.9267 9.02449 28.2926Z" fill="#564B44"/>
<path d="M21.5854 76.951C21.5854 77.073 21.4635 77.4388 21.2196 77.6827C19.7562 79.9998 18.4147 82.3169 16.9513 84.512C16.4635 85.3656 15.7318 85.6095 15.0001 85.1217C14.0245 84.512 13.7805 83.5364 14.2684 82.6827C14.2684 82.5608 14.3903 82.5608 14.3903 82.4388C14.6342 82.073 14.8781 81.829 14.3903 81.3412C14.0245 80.9754 13.6586 81.0973 13.2927 81.3412C12.0732 81.829 11.5854 81.7071 10.8537 80.7315C10.3659 79.9998 10.4879 79.2681 11.2196 78.7803C13.9025 77.4388 16.4635 76.2193 19.1464 74.9998C20.3659 74.7559 21.5854 75.7315 21.5854 76.951Z" fill="#564B44"/>
<path d="M20.2441 24.5119C19.8783 24.39 19.5124 24.1461 19.2685 23.7802C17.927 21.3412 16.7075 18.9022 15.488 16.3412C15.1222 15.4875 15.2441 14.8778 15.8539 14.268C16.4636 13.6583 17.0734 13.6583 17.927 14.1461C20.2441 15.4875 22.5612 16.829 24.8783 18.1705C25.7319 18.6583 25.9758 19.39 25.61 19.9997C25.1222 20.9753 24.1466 21.3412 23.2929 20.8534C22.927 20.7314 22.4392 20.3656 22.1953 20.4875C21.5856 20.7314 21.5856 21.2192 21.9514 21.829C22.5612 22.9266 22.1953 23.7802 21.0978 24.268C20.7319 24.5119 20.61 24.6339 20.2441 24.5119Z" fill="#564B44"/>
<path d="M67.073 85.7315C66.9511 84.9998 67.4389 84.634 68.0486 84.2681C68.6584 84.0242 69.2681 83.9022 69.7559 84.3901C71.8291 86.4632 73.9023 88.5364 75.8535 90.6096C76.3413 91.0974 76.3413 91.951 75.8535 92.4388C75.1218 93.1705 74.1462 93.2925 73.5364 92.8047C73.0486 92.4388 72.9267 91.5852 72.073 92.073C71.3413 92.5608 71.8291 93.0486 71.8291 93.5364C71.9511 94.634 71.2194 94.9998 70.2437 95.3657C69.634 95.6096 69.0242 94.9998 68.7803 94.1462C68.1706 91.4632 67.6828 88.9022 67.073 86.2193C67.195 86.0974 67.195 85.8535 67.073 85.7315Z" fill="#564B44"/>
<path d="M69.8781 5.97526C69.5123 8.78014 69.2684 11.585 68.9025 14.2679C68.7806 15.2436 68.2928 15.7314 67.4391 15.6094C66.3415 15.4875 65.7318 14.7557 65.7318 13.7801C65.7318 13.4143 66.0976 12.9265 65.4879 12.5606C65.0001 12.3167 64.7562 12.5606 64.3903 12.9265C63.5367 13.9021 63.0489 14.024 61.9513 13.4143C61.2196 13.0484 60.9757 12.1948 61.4635 11.585C63.2928 9.26794 65.122 7.07282 66.9513 4.75575C67.4391 4.14599 68.1708 4.26794 68.7806 4.51184C69.7562 4.75575 70.0001 5.24355 69.8781 5.97526Z" fill="#564B44"/>
<path d="M95.0001 53.4145C94.8781 53.2926 94.6342 53.1706 94.5123 53.0487C94.2684 52.8048 94.1464 52.5609 94.0245 52.317C92.9269 50.8535 92.9269 50.8535 91.2196 51.4633C90.7318 51.5852 90.0001 51.7072 89.7562 51.4633C89.1464 50.9755 89.8781 50.4877 90.244 49.9999C91.3416 48.4145 91.3416 48.4145 90.244 46.9511C90.122 46.8291 90.0001 46.7072 90.0001 46.5852C89.8781 46.2194 89.6342 45.8535 89.7562 45.6096C90.0001 45.3657 90.4879 45.3657 90.8537 45.4877C91.5855 45.6096 92.4391 46.2194 93.0489 45.9755C93.6586 45.7316 94.0245 44.8779 94.5123 44.2682C94.7562 44.0243 95.122 43.5365 95.4879 43.6584C95.8538 43.7804 95.8537 44.2682 95.9757 44.634C96.0976 45.3657 95.8537 46.3413 96.2196 46.8291C96.5855 47.317 97.5611 47.3169 98.2928 47.6828C98.6586 47.8048 98.9025 48.0487 98.9025 48.4145C98.9025 48.7804 98.5367 49.0243 98.2928 49.1462C97.5611 49.5121 96.5855 49.5121 96.2196 49.9999C95.8537 50.4877 96.0977 51.4633 96.0977 52.195C95.7318 52.8048 95.7318 53.2926 95.0001 53.4145Z" fill="#564B44"/>
<path d="M4.39033 51.5851C4.39033 49.7558 4.75619 50.1217 2.92692 49.5119C2.56107 49.3899 2.19521 49.268 1.82936 49.146C1.58546 49.0241 1.34155 48.7802 1.34155 48.5363C1.34155 48.2924 1.58546 47.9265 1.82936 47.9265C2.43911 47.5607 3.04887 47.4387 3.65863 47.1948C4.14643 47.0729 4.39033 46.829 4.26838 46.2192C4.26838 45.6095 4.26838 44.9997 4.26838 44.3899C4.26838 44.146 4.51228 43.7802 4.75619 43.6582C5.00009 43.5363 5.36594 43.7802 5.60985 43.9021C5.9757 44.3899 6.34155 44.8778 6.70741 45.3656C7.07326 45.9753 7.43911 45.9753 7.92692 45.7314C8.41472 45.4875 8.90253 45.3656 9.51228 45.2436C9.87814 45.2436 10.3659 45.1217 10.4879 45.3656C10.7318 45.6095 10.4879 46.0973 10.244 46.3412C10.0001 46.829 9.63424 47.3168 9.26838 47.6826C8.90253 48.0485 8.90253 48.4143 9.26838 48.7802C9.63424 49.268 10.0001 49.7558 10.3659 50.3656C10.4879 50.6095 10.6098 51.0973 10.3659 51.3412C10.244 51.4631 9.75619 51.5851 9.51228 51.4631C8.90253 51.3412 8.41472 51.0973 7.80497 50.8534C7.31716 50.6095 6.95131 50.7314 6.70741 51.2192C6.34155 51.707 6.09765 52.1948 5.60985 52.6826C5.36594 52.9265 5.00009 53.1704 4.75619 53.0485C4.51228 53.0485 4.39033 52.5607 4.26838 52.3168C4.26838 52.1948 4.39033 51.829 4.39033 51.5851Z" fill="#564B44"/>
<path d="M42.1951 12.1951C41.5854 12.1951 41.0975 11.9512 40.9756 11.2195C40.4878 8.53659 39.878 5.73171 39.5122 3.04879C39.3902 2.07318 39.7561 1.58537 40.9756 1.34147C41.8293 1.21952 42.439 1.58537 42.561 2.43903C43.0488 5.12196 43.5366 7.68293 44.0244 10.3659C44.2683 11.5854 43.6585 12.1951 42.1951 12.1951Z" fill="#564B44"/>
<path d="M49.7562 64.5119C50.3659 68.2924 48.4147 71.9509 45.6099 74.3899C43.2928 76.4631 40.122 75.8534 38.6586 73.1704C38.2928 72.6826 38.0489 72.0729 37.805 71.4631C37.3172 70.1217 36.5855 69.0241 35.3659 68.1704C34.8781 67.8046 34.5123 67.1948 34.2684 66.5851C34.1464 66.2192 34.2684 65.6095 34.6342 65.2436C34.8781 64.9997 35.4879 65.1217 35.8538 65.1217C36.0977 65.1217 36.3416 65.3656 36.4635 65.4875C38.2928 66.9509 40.366 67.0729 42.5611 66.3412C44.3903 65.7314 45.9757 64.6339 47.4391 63.4143C48.0489 62.9265 48.6586 62.6826 49.2684 63.1704C49.6342 63.5363 49.6342 64.0241 49.7562 64.5119ZM45.9757 68.1704C45.7318 68.0485 45.7318 68.0485 45.6099 68.0485C44.0245 68.9021 42.3172 69.5119 40.6099 69.6338C40.4879 69.6338 40.244 70.1217 40.244 70.2436C40.3659 70.7314 40.6098 71.2192 40.9757 71.5851C41.7074 72.8046 42.9269 72.9265 43.7806 71.9509C44.3903 71.2192 44.8781 70.3656 45.366 69.5119C45.6099 69.146 45.7318 68.6582 45.9757 68.1704Z" fill="#564B44"/>
<path d="M54.5121 65.6096C54.3902 66.3413 54.2682 67.073 53.9024 67.8047C53.5365 68.2925 53.0487 68.5364 52.439 68.2925C51.8292 68.0486 51.7073 67.5608 51.8292 66.9511C52.0731 65.6096 51.8292 64.2681 50.9756 63.0486C50.4878 62.3169 50.6097 61.4632 51.2195 61.0974C51.7073 60.7315 52.5609 60.8535 53.1707 61.4633C53.9024 62.4389 54.6341 64.1462 54.5121 65.6096Z" fill="#564B44"/>
</svg>
