<svg width="230" height="69" viewBox="0 0 230 69" fill="none" xmlns="http://www.w3.org/2000/svg">
<rect width="230" height="68.2969" fill="black" fill-opacity="0"/>
<path fill-rule="evenodd" clip-rule="evenodd" d="M193.918 10.1606V19.453L196.013 22.8306V10.1448L193.918 10.1606Z" fill="#564B44"/>
<path fill-rule="evenodd" clip-rule="evenodd" d="M230 10.1604V51.5081H0V10.1604H2.09102V49.4863L227.921 49.4903V10.1604H230Z" fill="#564B44"/>
<path fill-rule="evenodd" clip-rule="evenodd" d="M230 41.3477V0H0V41.3438L2.09102 41.3477V2.01783H227.921V41.3477H230Z" fill="#564B44"/>
<path fill-rule="evenodd" clip-rule="evenodd" d="M36.1565 68.1031V59.6948L36.9701 59.7067V67.3182H39.7725V68.1031H36.1565Z" fill="#564B44"/>
<path fill-rule="evenodd" clip-rule="evenodd" d="M54.1265 63.8735C54.118 64.8364 54.4866 65.7639 55.1523 66.4542C55.4747 66.7923 55.861 67.0619 56.2882 67.2471C57.1991 67.6214 58.2191 67.6214 59.13 67.2471C59.5577 67.0626 59.944 66.7929 60.2659 66.4542C60.5889 66.1209 60.8451 65.7279 61.0205 65.2966C61.3722 64.4326 61.3848 63.4661 61.0559 62.593C60.8996 62.1667 60.6649 61.7739 60.3641 61.4354C60.0488 61.0845 59.6664 60.8013 59.24 60.6029C58.7564 60.3932 58.2355 60.285 57.7091 60.285C57.1827 60.285 56.6618 60.3932 56.1782 60.6029C55.7518 60.8013 55.3694 61.0845 55.0541 61.4354C54.7525 61.7733 54.5176 62.1662 54.3623 62.593C54.2071 63.0019 54.1258 63.4356 54.1225 63.8735H54.1265ZM53.25 63.9091C53.238 63.2544 53.3808 62.6062 53.6666 62.0182C53.9247 61.4898 54.2856 61.0193 54.7278 60.6346C55.1539 60.2694 55.641 59.9835 56.1664 59.7902C57.1599 59.4075 58.2583 59.4075 59.2518 59.7902C59.7791 59.9819 60.2677 60.268 60.6943 60.6346C61.1371 61.0188 61.4981 61.4894 61.7555 62.0182C62.0405 62.6065 62.1832 63.2545 62.1722 63.9091C62.1712 64.4729 62.059 65.0308 61.842 65.5504C61.6265 66.0737 61.3129 66.5502 60.9183 66.9537C60.5132 67.3639 60.0361 67.6946 59.5112 67.929C58.9421 68.1709 58.3307 68.2955 57.713 68.2955C57.0954 68.2955 56.484 68.1709 55.9148 67.929C55.3885 67.6952 54.9099 67.3644 54.5038 66.9537C54.1084 66.5509 53.7947 66.0743 53.5801 65.5504C53.3641 65.0319 53.2519 64.4755 53.25 63.9131V63.9091Z" fill="#564B44"/>
<path fill-rule="evenodd" clip-rule="evenodd" d="M80.6022 65.4429C80.6059 65.85 80.5311 66.2539 80.3821 66.6322C80.2458 66.974 80.0365 67.2813 79.769 67.5321C79.497 67.7824 79.1755 67.9715 78.8257 68.0871C78.4382 68.2183 78.0316 68.2826 77.6229 68.2774C77.234 68.2804 76.8468 68.2229 76.4752 68.107C76.1246 67.9985 75.7996 67.8191 75.5201 67.5797C75.2438 67.3423 75.0236 67.0457 74.8755 66.7115C74.7104 66.3112 74.6301 65.8804 74.6397 65.4469V59.6947H75.4651V65.4667C75.4596 65.7696 75.52 66.07 75.642 66.3468C75.754 66.5921 75.9177 66.8099 76.1215 66.9851C76.3281 67.1602 76.5654 67.2946 76.8211 67.3815C77.0844 67.4713 77.3606 67.5169 77.6386 67.5163C77.9722 67.5236 78.3037 67.463 78.6134 67.3379C78.8745 67.2309 79.1063 67.0624 79.2894 66.8463C79.4661 66.6341 79.5996 66.389 79.6825 66.1248C79.7711 65.8374 79.8148 65.5378 79.8122 65.2368V59.6868H80.6258L80.6022 65.4429Z" fill="#564B44"/>
<path fill-rule="evenodd" clip-rule="evenodd" d="M98.3678 66.1801H98.4188V59.6945L99.2325 59.7064V68.297L93.4625 61.6093L93.4271 61.6212V68.1028H92.6135V59.5002L98.3678 66.1801Z" fill="#564B44"/>
<path fill-rule="evenodd" clip-rule="evenodd" d="M116.562 61.2646C116.424 61.1344 116.275 61.0151 116.118 60.9078C115.941 60.7877 115.755 60.683 115.56 60.5946C115.343 60.4972 115.116 60.4215 114.884 60.3687C114.626 60.3086 114.363 60.2793 114.098 60.2815C113.189 60.2823 112.317 60.6457 111.673 61.2924C111.347 61.6278 111.088 62.0235 110.91 62.4579C110.715 62.9339 110.617 63.4451 110.623 63.9603C110.625 64.4048 110.706 64.8454 110.863 65.2606C111.02 65.681 111.254 66.0672 111.555 66.3984C111.871 66.7366 112.252 67.0064 112.675 67.1912C113.148 67.4024 113.66 67.5066 114.177 67.4965C114.985 67.5083 115.772 67.2348 116.401 66.7235V64.3449H113.905V63.552H117.282V67.1199C117.003 67.3524 116.701 67.5556 116.382 67.7264C116.113 67.8668 115.833 67.9835 115.544 68.0753C115.299 68.1525 115.046 68.2056 114.79 68.2339C114.584 68.2564 114.376 68.2683 114.169 68.2695C113.511 68.2807 112.859 68.1454 112.259 67.8731C111.737 67.6354 111.268 67.2943 110.879 66.8701C110.521 66.4783 110.241 66.0207 110.054 65.5223C109.872 65.0286 109.777 64.5067 109.774 63.9802C109.771 63.4247 109.866 62.873 110.054 62.3508C110.243 61.8221 110.531 61.335 110.903 60.9157C111.289 60.4838 111.758 60.1358 112.282 59.893C112.871 59.6205 113.513 59.485 114.161 59.4965C114.387 59.4973 114.613 59.5132 114.837 59.5441C115.085 59.5783 115.33 59.6354 115.568 59.7146C115.828 59.8026 116.08 59.9154 116.319 60.0515C116.592 60.2063 116.847 60.3925 117.077 60.6065L116.562 61.2646Z" fill="#564B44"/>
<path fill-rule="evenodd" clip-rule="evenodd" d="M129.501 68.1031V59.6948H134.068V60.4798H130.315V63.4451H133.656V64.23H130.315V67.3182H134.068V68.1031H129.501Z" fill="#564B44"/>
<path fill-rule="evenodd" clip-rule="evenodd" d="M155.667 67.3182H157.258C157.472 67.3207 157.685 67.2858 157.887 67.2151C158.076 67.1498 158.249 67.0474 158.398 66.9138C158.543 66.7826 158.658 66.6218 158.736 66.4421C158.819 66.2508 158.86 66.0441 158.858 65.8356C158.86 65.6197 158.82 65.4055 158.74 65.2052C158.667 65.0148 158.553 64.8429 158.406 64.7018C158.258 64.5564 158.083 64.4419 157.891 64.3648C157.681 64.2806 157.457 64.2389 157.231 64.2419H155.659V67.3182H155.667ZM155.667 63.457H157.062C157.32 63.4662 157.578 63.4189 157.817 63.3182C158.006 63.2345 158.175 63.11 158.312 62.9535C158.432 62.815 158.523 62.6531 158.579 62.4778C158.629 62.3187 158.656 62.1531 158.658 61.9862C158.659 61.7871 158.619 61.5898 158.54 61.4074C158.463 61.2274 158.353 61.0643 158.214 60.9277C158.061 60.7828 157.88 60.6708 157.683 60.5987C157.453 60.5136 157.209 60.472 156.964 60.4758H155.663V63.453L155.667 63.457ZM154.861 59.6948H156.987C157.345 59.6901 157.7 59.7492 158.037 59.8693C158.327 59.9733 158.594 60.1335 158.823 60.341C159.037 60.536 159.208 60.7736 159.326 61.0387C159.444 61.3069 159.505 61.5975 159.503 61.8911C159.505 62.275 159.413 62.6536 159.235 62.9931C159.039 63.3512 158.727 63.6309 158.351 63.786V63.8217C158.742 63.9578 159.085 64.2058 159.338 64.5353C159.61 64.901 159.749 65.3506 159.731 65.8078C159.74 66.1164 159.688 66.4236 159.577 66.7117C159.462 66.9874 159.288 67.2339 159.066 67.4332C158.828 67.6464 158.55 67.8095 158.249 67.9129C157.895 68.0311 157.525 68.0888 157.152 68.0833H154.861V59.6948Z" fill="#564B44"/>
<path fill-rule="evenodd" clip-rule="evenodd" d="M175.468 64.0596L174.781 62.6562L174.777 62.6523V62.6483L174.093 61.2529L173.676 60.4164L174.104 59.5403H174.132L178.369 68.1428H177.485L175.857 64.8445H172.32L170.705 68.1428H169.867L171.88 64.0596H172.709H172.772H172.847H172.921H172.992H173.067H173.138H173.204H173.275H173.338H173.405H173.468H173.531H173.594H173.652H173.711H173.77H173.829H173.884H173.939H173.991H174.046H174.093H174.144H174.191H174.238H174.285H174.332H174.376H174.419H175.468Z" fill="#564B44"/>
<path fill-rule="evenodd" clip-rule="evenodd" d="M188.731 64.0475H189.753C189.993 64.0503 190.232 64.0016 190.452 63.9048C190.873 63.7264 191.206 63.3872 191.38 62.9613C191.471 62.7376 191.516 62.4976 191.513 62.2557C191.514 62.0318 191.473 61.8098 191.392 61.6016C191.312 61.3912 191.19 61.1997 191.034 61.0388C190.878 60.8778 190.69 60.751 190.484 60.666C190.234 60.5633 189.967 60.5134 189.697 60.5193H188.727V64.0475H188.731ZM189.642 59.7344C190.056 59.7256 190.467 59.7969 190.853 59.9445C191.174 60.0669 191.466 60.256 191.71 60.4995C191.933 60.7246 192.105 60.9949 192.217 61.2923C192.436 61.8802 192.444 62.5265 192.241 63.1199C192.147 63.3915 192.006 63.6439 191.824 63.8652C191.638 64.087 191.411 64.2702 191.156 64.4043C190.874 64.5477 190.567 64.6314 190.252 64.6501L193.18 68.1308H192.075L188.786 64.1348H188.735V68.1308H187.917V59.7344H189.642Z" fill="#564B44"/>
<path fill-rule="evenodd" clip-rule="evenodd" d="M15.6793 11.6868H21.7401C26.889 11.6868 29.9391 13.225 29.9391 17.4549C29.9391 22.553 25.8867 24.4242 23.7879 24.4242H23.0489V25.8791H23.8861C28.701 25.8791 31.7471 27.659 31.7471 32.1308C31.7471 37.0346 28.9368 39.8215 21.689 39.8215H15.6793V11.675V11.6868ZM21.7872 41.4192C30.4343 41.4192 33.7516 37.8156 33.7516 32.1902C33.7516 27.9603 31.2715 25.554 27.172 24.8325C29.4595 23.6789 31.8886 21.2646 31.8886 17.3003C31.8886 12.5867 28.4573 10.1646 21.8305 10.1646H9.68921V11.6868H13.5882V39.8731H9.68921V41.3914L21.7872 41.4192Z" fill="#564B44"/>
<path fill-rule="evenodd" clip-rule="evenodd" d="M57.778 11.8811L68.8305 39.8771H65.4031V41.3954H74.966V39.8771H71.0198L59.2637 10.1448H56.5124L44.7209 39.8771H40.8416V41.3915H50.1725V39.8731H46.6744C50.3966 30.5134 54.1069 21.2409 57.778 11.8811Z" fill="#564B44"/>
<path fill-rule="evenodd" clip-rule="evenodd" d="M106.037 41.3914V34.8146L103.95 34.8106V39.8731H88.5853V11.7384L92.4882 11.7344L92.4922 10.1487H82.1982V11.7344H86.4982L86.4864 39.885L82.5677 39.8731L82.5598 41.3914H106.037Z" fill="#564B44"/>
<path fill-rule="evenodd" clip-rule="evenodd" d="M137.064 15.0284V10.0532H135.346V12.2178C133.096 10.58 130.397 9.68914 127.623 9.6687C118.897 9.6687 112.368 15.5319 112.368 25.5814C112.368 35.5358 118.264 41.9302 127.768 41.9302C135.967 41.9302 139.591 36.4 139.591 36.4L138.777 34.9967C137.487 36.6383 135.84 37.9599 133.965 38.8602C132.089 39.7604 130.034 40.2153 127.957 40.1899C119.946 40.1899 114.511 34.5646 114.511 25.5735C114.511 16.4556 120.186 11.3892 127.906 11.3892C132.17 11.3971 133.809 13.1335 137.064 15.0284Z" fill="#564B44"/>
<path fill-rule="evenodd" clip-rule="evenodd" d="M170.626 10.1487C166.848 8.57042 162.623 8.46666 158.773 9.85759C154.924 11.2485 151.725 14.0346 149.8 17.6734C147.875 21.3122 147.361 25.5434 148.359 29.5432C149.357 33.543 151.794 37.0252 155.198 39.3118C158.601 41.5985 162.726 42.526 166.77 41.9138C170.814 41.3015 174.487 39.1934 177.075 35.9998C179.663 32.8061 180.979 28.7555 180.769 24.6365C180.558 20.5176 178.836 16.6249 175.936 13.7165C174.415 12.1875 172.611 10.9752 170.626 10.1487V10.1487ZM169.883 11.9524C173.199 13.3353 175.886 15.9131 177.421 19.1839C178.956 22.4548 179.23 26.1847 178.189 29.6479C177.148 33.111 174.866 36.0595 171.788 37.9196C168.711 39.7797 165.057 40.4182 161.538 39.7109C158.019 39.0036 154.887 37.0012 152.752 34.0932C150.616 31.1852 149.63 27.5799 149.984 23.9788C150.339 20.3776 152.009 17.0384 154.67 14.611C157.331 12.1836 160.793 10.8417 164.381 10.8464C166.268 10.8512 168.136 11.2283 169.879 11.9564L169.883 11.9524Z" fill="#564B44"/>
<path fill-rule="evenodd" clip-rule="evenodd" d="M212.796 38.1684V10.1487H219.714V11.7344H214.938C214.938 21.5976 214.938 31.5123 214.938 41.3835H212.211L194.189 10.1606H196.383L212.796 38.1684ZM196.013 41.3874V25.9663L193.918 22.5966V39.8731H188.526V41.3874H196.013ZM190.416 10.1487H188.223L206.653 41.3914H209.121C200.914 27.4212 197.424 22.0773 190.416 10.1487Z" fill="#564B44"/>
</svg>
