<svg width="230" height="85" viewBox="0 0 230 85" fill="none" xmlns="http://www.w3.org/2000/svg">
<rect width="230" height="84.836" fill="black" fill-opacity="0"/>
<rect width="230" height="84.836" fill="black" fill-opacity="0"/>
<rect width="230" height="84.836" fill="black" fill-opacity="0"/>
<path d="M58.0066 37.9565C60.6652 37.517 62.6079 38.4371 63.7041 40.9368C63.8309 42.4269 63.0553 43.6749 62.6079 45.0086C61.672 47.81 60.8143 50.6301 60.4601 53.5769C60.3855 54.199 60.3706 54.8733 60.9225 55.2831C61.6086 55.7897 62.0933 55.0968 62.5258 54.7764C65.7214 52.3997 68.1787 49.4753 69.0624 45.4631C69.8977 43.2279 70.8858 41.0225 71.2139 38.6048C71.5048 36.4478 72.8658 35.129 75.0658 34.6932C75.4908 34.6112 75.9122 34.4994 76.341 34.4249C79.2681 33.922 79.2756 33.9257 78.4329 36.7682C78.3098 37.1891 78.06 37.6287 78.4813 37.9416C78.9027 38.2546 79.4098 37.9938 79.8274 37.6846C81.2183 36.6601 82.5196 35.4941 84.164 34.8571C85.3311 34.4063 86.4945 33.9257 87.6504 34.898C88.8063 35.8704 88.8697 37.2264 88.4558 38.4706C87.7399 40.6313 86.7891 42.7138 85.9538 44.8372C85.6145 45.6903 85.3162 46.5621 85.003 47.4226C84.701 48.5998 83.8843 49.6913 84.3243 51.2597C85.4573 50.5241 86.4197 49.5549 87.147 48.4173C88.3253 47.404 88.8325 46.0293 89.2053 44.5839C89.8547 42.0024 91.0372 39.5851 92.6768 37.4872C93.8191 35.9916 95.4522 34.9457 97.2894 34.533C98.8629 34.1604 100.272 34.4696 101.324 35.7623C102.178 36.8203 102.726 37.0289 103.334 35.5239C104.877 31.6905 106.537 27.9019 108.121 24.0834C108.625 22.8727 111.772 21.5763 113.077 22.0904C113.909 22.4182 113.346 22.9733 113.211 23.3123C112.006 26.4316 110.763 29.5361 109.482 32.6256C108.039 36.12 106.578 39.6069 105.064 43.0565C104.628 44.0475 104.553 44.9453 105.064 45.8952C105.575 46.8452 106.119 47.8063 107.368 47.7802C108.617 47.7542 109.4 46.8638 109.874 45.8393C110.758 43.9208 110.993 41.816 111.403 39.7633C111.503 39.2641 111.209 38.4446 111.955 38.3924C112.525 38.3552 112.7 39.089 112.947 39.6031C114.897 44.0251 114.091 48.19 111.66 52.124C110.441 54.091 108.118 54.7764 105.966 54.0425C104.378 53.5024 104.132 51.8446 103.278 50.6897C103.002 50.3172 103.062 49.5721 102.457 49.6019C101.909 49.628 101.857 50.3097 101.622 50.7195C100.078 53.4688 98.1209 55.8493 95.3392 57.4251C92.427 59.0643 91.1741 58.8072 89.0599 56.3522C88.6423 55.0931 88.2209 53.8376 87.7921 52.5524C86.4796 53.4055 85.9948 54.836 84.9806 55.8121C83.944 57.0861 83.0267 58.6396 81.4345 59.1388C79.779 59.6603 78.0786 59.3698 77.2881 57.414C77.2285 56.6689 77.0308 55.9238 77.1352 55.2086C77.4447 53.1149 78.4515 51.2299 79.0668 49.2257C80.1444 47.2028 80.7112 44.9825 81.5278 42.8591C81.6732 42.4865 81.8335 41.9799 81.4942 41.6223C81.1549 41.2646 80.7708 41.5403 80.4762 41.7154C77.4 43.552 74.7227 45.7164 74.1373 49.5684C72.7315 53.2937 71.3855 57.0749 70.3414 60.9381C68.8312 61.2436 67.3285 61.6049 65.8072 61.8285C65.0703 61.8844 64.3691 62.1683 63.8011 62.6406C63.2008 60.4538 63.2082 60.465 61.0828 61.7428C60.5512 62.0647 59.9845 62.3246 59.3937 62.5177C56.4927 63.4304 54.8371 62.242 54.7103 59.1909C54.6879 58.6992 54.7103 58.2074 54.7103 57.373C53.7968 58.39 52.9578 58.9786 52.3351 59.9136C50.9554 61.9812 48.9792 63.5384 46.891 64.7938C44.9446 65.9636 42.0697 64.9056 41.6707 61.59C41.6381 60.946 41.6381 60.3007 41.6707 59.6566C40.4962 60.5395 39.7579 61.5193 38.9711 62.4655C37.8114 63.8439 36.6481 65.2222 35.1752 66.284C33.2661 67.6661 31.342 67.2563 30.1786 65.1664C29.3135 63.6315 29.2576 61.9738 29.582 60.2899C29.9971 58.991 30.4123 57.6884 30.8274 56.382L32.0691 53.3906C32.442 52.6753 32.8149 51.975 33.1132 51.2374C33.2549 50.8872 33.7098 50.4476 33.2027 50.0825C32.882 49.8515 32.5016 50.0452 32.1735 50.2539C31.0549 50.9766 29.8654 51.6509 28.7654 52.4257C28.551 52.5562 28.3792 52.7461 28.2706 52.9722C28.1621 53.1984 28.1215 53.4511 28.1539 53.6998C28.4559 55.5848 27.8332 57.3804 27.6057 59.2133C25.1709 66.5224 21.6397 73.2466 16.5574 79.0618C14.8814 81.0349 12.7685 82.591 10.3862 83.6068C6.71335 85.1416 3.45439 82.7462 2.12694 80.0267C0.0910228 75.8469 0.00153187 71.3504 0.00153187 66.8539C-0.0397813 61.3433 0.754765 55.8582 2.35813 50.5854C4.66066 43.2729 7.66641 36.2003 11.3333 29.4665C13.8018 24.944 16.4529 20.5257 19.7007 16.5694C22.6838 12.9223 25.7637 9.2566 30.6149 7.79999C37.1328 5.84419 43.0989 10.9814 41.4694 17.5753C40.0636 23.275 38.1135 28.8556 34.944 33.9034C34.5227 34.587 34.0221 35.2185 33.4525 35.7847C31.6888 37.517 29.6454 37.8299 27.8817 36.7123C27.0049 36.104 26.3571 35.2201 26.0415 34.2013C25.7259 33.1825 25.7607 32.0875 26.1403 31.0908C26.778 29.5187 27.4678 27.8684 29.4179 27.0302C29.5596 28.8258 28.7654 30.45 29.0451 32.3425C30.0183 31.5303 30.3129 30.5022 30.7678 29.6155C32.6752 25.9274 34.0319 21.9802 34.7949 17.8994C34.9664 16.968 35.123 15.9734 34.2467 15.3363C33.3705 14.6993 32.4383 15.2097 31.6366 15.6753C29.0674 17.1655 27.1322 19.3746 25.2976 21.6359C19.3418 28.9708 14.6766 37.2635 11.5011 46.1597C8.90961 53.5582 7.10114 61.1505 7.26148 69.078C7.29504 70.6016 7.04148 72.5239 8.69334 73.1758C10.4981 73.9209 11.9896 72.591 13.2164 71.3132C16.7251 67.681 18.9251 63.2739 20.618 58.5837C20.9909 58.0249 21.5092 57.3208 21.0655 56.7844C20.6217 56.2479 19.9468 56.8924 19.3838 57.0489C18.1309 57.4214 16.8519 57.3879 15.5767 57.4624C10.994 56.531 11.7621 52.6008 13.9882 49.4753C15.3157 47.6126 17.3441 46.5807 19.2607 45.4109C19.6 45.4109 20.1146 45.2731 20.2451 45.437C20.5285 45.8095 20.1034 46.0629 19.8722 46.3423C19.3912 46.9085 18.9214 47.4822 18.4851 48.082C18.1495 48.5439 17.9109 49.058 18.3099 49.6206C18.7089 50.1831 19.216 50.2874 19.9244 50.1272C23.7427 49.2592 27.2068 47.5604 30.6112 45.7127C34.5488 44.0847 38.1321 41.7713 42.1965 39.6888C40.7609 43.3918 39.4074 46.8117 38.0948 50.2501C37.0992 52.8839 36.0925 55.5215 35.5854 58.3155C35.5332 58.5874 35.1789 58.8259 35.5145 59.1239C35.6516 59.2531 35.8275 59.3334 36.015 59.3523C36.2025 59.3711 36.391 59.3275 36.5511 59.2282C37.0406 58.9639 37.4953 58.6398 37.9047 58.2633C40.4067 55.7972 42.9012 53.398 44.4226 50.0676C46.2168 46.0905 49.0298 42.6568 52.5774 40.1135C54.1957 38.9475 55.9334 37.9826 58.0066 37.9565ZM58.1333 42.237C57.1866 42.4109 56.2825 42.7664 55.471 43.2838C51.2947 45.8021 49.531 49.9484 48.1626 54.2996C48.0022 54.8099 47.9873 55.9573 48.7778 56.4416C49.3334 56.7806 49.8964 56.356 50.2693 55.976C53.7185 52.4034 57.8313 49.3486 59.2744 44.2002C59.6621 42.833 59.3079 42.3673 58.1333 42.237ZM93.0945 48.5179C93.5345 49.1176 92.4568 50.4364 93.65 50.7866C94.6755 51.0883 95.3243 49.9558 95.9619 49.2182C97.4584 47.4053 98.7537 45.4355 99.8249 43.3434C100.496 42.1028 99.7168 39.618 98.5832 38.981C96.7188 37.9454 95.9955 39.4281 95.3056 40.5755C93.863 42.9743 93.0988 45.7193 93.0945 48.5179V48.5179Z" fill="#564B44"/>
<path d="M198.612 69.8824C196.695 73.198 195.054 76.6812 192.646 79.6987C191.572 81.0435 190.61 82.4778 189.185 83.5358C185.923 85.9498 182.984 84.9439 181.851 81.0025C181.396 79.4193 181.758 77.795 181.478 76.2118C181.927 72.7514 182.876 69.3746 184.297 66.1869C187.85 57.8869 193.388 50.913 199.111 44.0473L200.692 42.1436C196.591 42.7769 194.726 40.9143 194.435 37.0362C193.283 38.5263 192.332 39.7929 191.326 41.0148C190.847 41.5842 190.318 42.1091 189.745 42.5832C188.592 43.5592 187.295 44.1925 185.841 43.3283C184.386 42.464 184.11 40.9701 184.349 39.4129C184.685 37.0623 185.77 34.9425 186.586 32.7521C187.403 30.5616 188.451 28.3152 188.924 26.0092C188.697 25.6665 188.406 25.6665 188.22 25.8006C185.415 27.7862 182.418 29.4812 181.359 33.2177C180.3 36.9542 178.748 40.5454 177.518 44.241C177.194 45.2245 176.638 45.6715 175.754 45.8093C174.114 46.0664 172.462 46.2526 170.825 46.465C170.579 45.6417 171.172 45.0792 171.198 44.4012C171.198 44.0286 171.817 43.6114 171.123 43.3208C170.627 43.1159 170.254 43.4549 170.042 43.8275C169.512 44.6726 168.85 45.4273 168.08 46.0627C166.719 47.2883 165.194 47.3851 163.606 46.6215C162.133 45.9211 161.76 44.6284 161.794 43.1234C161.794 42.5199 161.764 41.9126 161.745 41.3129L161.943 41.4581C161.943 41.4209 161.943 41.3538 161.917 41.3501C161.863 41.3447 161.81 41.3447 161.756 41.3501L159.568 44.2298C157.569 46.2787 155.466 48.0855 152.308 47.8322C149.757 46.7556 149.034 45.4554 149.664 42.7099C150.879 37.4348 153.02 32.4689 154.929 27.436C154.985 27.3261 155.031 27.2114 155.067 27.0933C155.637 23.3679 157.998 21.8219 161.589 21.8108C162.058 21.8108 162.629 21.4159 162.957 21.93C163.199 22.3025 162.841 22.7495 162.67 23.1444C161.044 26.8921 159.389 30.6323 158.248 34.5663C157.947 35.5758 157.75 36.6129 157.658 37.662C157.55 38.951 158.277 39.208 159.292 38.6008C160.377 37.9489 161.093 36.8983 161.786 35.8739C164.564 31.6829 166.678 27.1044 168.375 22.3696C168.718 21.427 168.998 20.9614 170.209 20.8198C171.828 20.6335 173.39 19.963 175.169 20.3206C174.471 23.2674 172.984 25.8527 171.94 28.6058C170.795 31.6195 169.508 34.5663 168.748 37.7254C168.61 38.2916 168.166 39.0218 168.863 39.4129C169.494 39.7855 170.016 39.1447 170.478 38.7722C172.76 36.9095 174.721 34.9016 175.545 31.8803C176.519 28.2966 177.865 24.8022 179.013 21.2818C179.446 19.9555 180.039 19.0466 181.676 18.9981C183.193 18.9571 184.703 18.5585 186.463 18.2754C185.855 20.1381 185.326 21.7325 184.636 23.8262C186.128 22.6303 187.194 21.7437 188.294 20.8906C189.528 19.9332 190.841 19.0875 192.396 18.7485C194.462 18.3015 195.629 19.244 195.752 21.3376C195.783 22.3388 195.57 23.3325 195.129 24.2322C193.966 26.8399 192.761 29.3993 191.691 32.0293C191.145 33.2009 191.004 34.5202 191.288 35.7807C193.272 34.0783 194.95 32.4279 195.819 29.9953C197.247 26.0017 198.996 22.1721 202.37 19.352C203.445 18.4059 204.692 17.6749 206.043 17.1988C210.078 15.8875 213.24 18.6889 212.341 22.8166C211.726 25.6367 211.01 28.4344 210.287 31.4668C211.405 31.1204 211.502 30.3008 211.778 29.6041C213.382 25.418 215.842 21.6117 219.001 18.4282C220.981 16.4649 223.259 14.9934 226.111 14.7028C228.722 14.416 229.933 15.5224 229.997 18.1748C230.105 22.5893 227.327 25.1785 224.12 27.4882C221.63 29.3064 219.035 30.9781 216.35 32.495C215.652 32.8675 215.317 33.3593 215.652 34.1528C216.025 35.0655 216.722 35.0431 217.517 34.7563C220.015 33.8547 222.021 32.1485 224.135 30.6584C224.75 30.2188 225.47 29.1981 226.126 29.7681C226.783 30.338 225.918 31.2358 225.534 31.9027C223.93 34.6929 222.084 37.2783 219.567 39.3533C216.487 41.8717 211.696 40.8993 210.991 37.2671C210.801 36.2986 210.245 36.6785 210.048 37.0921C209.597 38.1203 208.638 38.8169 208.374 39.9606C205.991 50.2276 203.168 60.3344 198.612 69.8824ZM201.613 48.9349C199.581 49.4788 199.585 51.4607 198.63 52.7161C195.011 57.6166 192.197 63.0617 190.293 68.8468C189.957 69.8377 189.073 71.4545 190.088 71.827C191.102 72.1996 191.933 70.5046 192.496 69.5024C196.173 62.9757 199.589 56.3483 201.613 48.9349V48.9349ZM199.376 32.9793C199.466 33.8138 199.186 34.4694 199.95 34.842C200.221 34.9984 200.537 35.0592 200.847 35.0146C201.157 34.97 201.442 34.8226 201.658 34.5961C204.757 31.8039 207.036 28.221 208.251 24.2322C208.474 23.4872 208.325 22.7086 207.505 22.336C206.759 22.0045 205.98 21.8815 205.268 22.459C201.889 25.2828 200.569 29.213 199.395 32.9793H199.376ZM218.393 27.6856C218.579 27.6802 218.762 27.641 218.934 27.5701C221.171 26.0539 223.289 24.385 224.877 22.1498C225.024 21.9861 225.114 21.779 225.133 21.56C225.152 21.3409 225.099 21.1216 224.982 20.9353C224.627 20.4324 224.105 20.5628 223.643 20.7565C220.828 22.0268 219.262 24.4818 217.774 26.9964C217.491 27.5068 217.804 27.8123 218.412 27.6856H218.393Z" fill="#564B44"/>
<path d="M159.101 56.4155C159.236 56.2144 159.362 56.002 159.512 55.8083C159.773 55.4618 160.067 55.0222 160.544 55.2048C161.111 55.4209 160.839 56.0057 160.783 56.3857C160.213 60.2973 158.065 63.1621 154.739 65.1775C152.395 66.6318 149.772 67.5774 147.039 67.9529C138.731 68.4409 130.908 65.9449 122.999 64.004C121.571 63.6538 120.669 63.6538 120.035 65.36C118.991 68.1578 118.476 71.2461 116.478 73.5967C113.894 76.6366 111.164 79.5275 106.667 79.4567C103.341 79.4045 101.178 77.337 100.925 73.9469C100.448 67.5133 106.209 60.5357 112.973 59.2766C114.77 58.945 116.168 58.4682 116.854 56.5422C118.379 52.2357 120.154 48.0112 121.101 43.5035C122.403 41.0821 122.876 38.3775 123.73 35.807L123.935 35.3264C123.958 35.2574 123.975 35.1863 123.984 35.1141C124.707 33.559 125.222 31.9157 125.516 30.2264C127.623 23.383 129.711 16.5358 131.855 9.70359C132.925 6.28001 133.015 3.02035 130.435 0.0996861C134.857 -0.64538 138.351 2.86388 137.758 8.02347C137.366 11.2012 136.673 14.3345 135.688 17.3815C133.764 23.5208 131.736 29.6118 129.976 35.7809C129.271 38.262 128.22 40.5978 127.515 43.0677C125.986 47.7579 124.476 52.4555 122.91 57.1308C122.537 58.1888 122.537 58.6731 123.849 59.1015C125.953 59.7832 128.134 59.4926 130.241 60.0216C134.187 60.9688 138.208 61.5721 142.259 61.8247C146.267 61.9812 150.294 62.2978 154.03 60.3346C156.1 59.5187 157.681 58.0696 159.101 56.4155ZM113.357 65.021C110.907 65.7251 108.837 66.9359 107.439 69.0965C107.066 69.6702 106.727 70.2924 107.271 70.9592C107.868 71.7043 108.535 71.4621 109.27 71.1529C111.943 70.0279 112.417 67.4053 113.357 65.021Z" fill="#564B44"/>
<path d="M130.733 43.2317C131.907 38.5042 133.716 34.0673 136.665 30.1371C138.5 27.6784 140.666 25.6667 143.605 24.5491C145.801 23.7109 147.9 23.7258 149.69 25.2942C151.312 26.7359 151.51 28.7029 151.125 30.7443C150.126 36.0455 147.837 40.8027 145.051 45.3625C144.503 46.0257 143.966 46.7111 143.396 47.3593C141.49 49.5163 139.242 51.0847 136.289 51.3901C133.335 51.6956 131.173 50.0788 130.819 47.1284C130.725 45.8317 130.696 44.5312 130.733 43.2317V43.2317ZM142.687 38.7613C144.1 36.9619 145.372 35.0844 146.11 32.8827C146.435 31.9104 146.856 30.9232 145.864 30.1706C145.441 29.8349 144.905 29.6737 144.366 29.7202C143.827 29.7666 143.327 30.017 142.967 30.4202C141.699 31.7167 140.092 32.7449 139.372 34.5181C137.897 36.6489 136.917 39.0827 136.505 41.6409C136.397 42.3041 136.341 43.0715 137.068 43.4552C137.795 43.8389 138.414 43.4738 138.932 43.0119C140.357 41.7415 141.736 40.4377 142.687 38.7613Z" fill="#564B44"/>
</svg>
